/* XPM */
static char *_2d672f968f6406d91400b1d4cd8de8fHGqLNw5KkcuGqp4F[] = {
/* columns rows colors chars-per-pixel */
"64 64 126 2 ",
"   c None",
".  c #341C07",
"X  c #371E08",
"o  c #3D2008",
"O  c #442408",
"+  c #532D09",
"@  c #5B3109",
"#  c #633509",
"$  c #6D3B09",
"%  c #733D0A",
"&  c #77400A",
"*  c #7B420A",
"=  c #CE371E",
"-  c #DD3823",
";  c #EE2C2C",
":  c #F32E2E",
">  c #FD3332",
",  c #82450A",
"<  c #824A09",
"1  c #8B490A",
"2  c #934E0A",
"3  c #97500A",
"4  c #9C530A",
"5  c #8E541C",
"6  c #A25509",
"7  c #A65809",
"8  c #AC5B09",
"9  c #B35E09",
"0  c #B56209",
"q  c #BB6209",
"w  c #8D5721",
"e  c #C36609",
"r  c #C76809",
"t  c #CC6B09",
"y  c #D36E09",
"u  c #D77209",
"i  c #DC7309",
"p  c #DC7B0A",
"a  c #E27609",
"s  c #E67909",
"d  c #EB7B09",
"f  c #F17E09",
"g  c #E37D17",
"h  c #F57813",
"j  c #E08109",
"k  c #EC8309",
"l  c #E28D0A",
"z  c #F58209",
"x  c #F98509",
"c  c #F48B09",
"v  c #FD8C09",
"b  c #EB970A",
"n  c #E99D0A",
"m  c #F7920A",
"M  c #FF9609",
"N  c #FF9709",
"B  c #FF960A",
"V  c #FF970A",
"C  c #FE9409",
"Z  c #FF9309",
"A  c #FE9809",
"S  c #FD980A",
"D  c #FF980A",
"F  c #FE990A",
"G  c #FF990A",
"H  c #FE9A0A",
"J  c #FF9A0A",
"K  c #FF9B0A",
"L  c #FD9D0A",
"P  c #FF9C0A",
"I  c #FF9D0A",
"U  c #FF9E0A",
"Y  c #FF9F0A",
"T  c #FF9D0A",
"R  c #FDA109",
"E  c #FEA109",
"W  c #FEA309",
"Q  c #FEA00A",
"!  c #FFA00A",
"~  c #FFA10A",
"^  c #FFA20A",
"/  c #FFA40A",
"(  c #FFA50A",
")  c #FFA60A",
"_  c #FFA70A",
"`  c #FFA20A",
"'  c #FFA80A",
"]  c #FFA90A",
"[  c #FEAA0A",
"{  c #FBAC0B",
"}  c #FEAD0A",
"|  c #FCAE0A",
" . c #FEAE0A",
".. c #FEAC0A",
"X. c #FEB00A",
"o. c #FEB10A",
"O. c #FDB30A",
"+. c #FDB40B",
"@. c #FEB40A",
"#. c #FEB40B",
"$. c #FEB50B",
"%. c #FDB60B",
"&. c #FDB70B",
"*. c #FEB70B",
"=. c #FCB60C",
"-. c #FDB80B",
";. c #FEB90B",
":. c #FDBA0B",
">. c #FEBA0B",
",. c #FCBC0B",
"<. c #FDBC0B",
"1. c #FDBF0B",
"2. c #FDBA0C",
"3. c #FDBB0C",
"4. c #FDBC0C",
"5. c #FCBD0C",
"6. c #FDBD0C",
"7. c #FCBF0C",
"8. c #F3AB17",
"9. c #DF992C",
"0. c #FCC00B",
"q. c #FCC00C",
"w. c #FDC10C",
"e. c #FCC20C",
"r. c #FDC30C",
"t. c #FCC20D",
/* pixels */
"                                                                                                                                ",
"                                                                                                                                ",
"                                                                                          > > > > > > >                         ",
"                                                                                          > > > > > > >                         ",
"                                                                                          > > > > > > >                         ",
"                                                                                          > > > > > > >                         ",
"                                                                                          > > > > > > >                         ",
"                                                                                          : > > > > h 3.                        ",
"                                                                                          : > > > - v | t.                      ",
"                                                                  %.q.w.q.r.              ; : : : = z Y #.w.                    ",
"                                                                K  .%.%.#.>.w.              ; : ;   s Z G |                     ",
"                                                              d K W ' '  . .o.#.                    6 4 4 0                     ",
"                                                              v v B B K E E E E                     7 4 4 4                     ",
"                                                            y v v x v v v Z B v                     t 2 & @                     ",
"                                                            6 u z f d d d d d s                     c 8 +                       ",
"                                                            4 8 t i i y y t e 9                   7 x c i                       ",
"                                                              2 4 7 q 8 7 4 2 ,                   7 x f a                       ",
"                                                              % % $ * 1 , % #                     8 z s u                       ",
"                                                                + @ @ $ # +                       e d i t                       ",
"                                                                  @ & 2 %                       8 i a y                         ",
"                                                                  1 q r t                     Z a d t q                         ",
"                                                                  l m c K             B B B K Z z t 9 2                         ",
"          9.b 8.                            W E Y Y Y Y Y Y W  .#.#.>.>.5.>.>.>.o.Y v v v v x g 9 3 ,                           ",
"            w 5 7 l { :.w.w.,.5.5.5.5.>.o.E Y Y Y Y Y Y B Z v B Y / W ' ' ' W W E x z d f i 9 1 % @                             ",
"                z $ 0 { n < 6 e u k c m K K k k z c v Z v v v v Z B K K Y Y Y B d s y y q , # O                                 ",
"                p p j m * + # % , 1 2 4 8 q 1 % * 1 7 t s x x v v Z Z K K K K x y q q 2 @ X                                     ",
"                , u u 6         + @ # $ % $ + O X . X @ 6 y z x v Z Z B K K Z z y 9 $ o                                         ",
"                  7 *                                   , q d v v B B K K K Z x y *                                             ",
"                                                          9 d v B K K Y Y K Z x i                                               ",
"                                                          q d v K Y Y Y Y K Z x z                                               ",
"                                                          9 f Z K Y Y K Y Y B v x                                               ",
"                                                          9 z B Y Y Y Y Y Y B v v                                               ",
"                                                          9 f K Y Y Y Y Y K B Z v                                               ",
"                                                          q z Y Y Y Y Y Y Y B Z v                                               ",
"                                                          q v K E E Y Y Y Y B B v                                               ",
"                                                          0 v Y E E Y Y K K B Z Z                                               ",
"                                                          q v E Y Y Y Y Y B M M Z                                               ",
"                                                          q Z Y Y Y Y K K B M Z Z                                               ",
"                                                          t Z Y K K K K B M Z Z v                                               ",
"                                                          e v K B M Z v x v v v v                                               ",
"                                                          e x Z Z v i 1 6 i x v v                                               ",
"                                                          q z v x y , # % 7 i f v                                               ",
"                                                          9 z v s 9 , * 1 2 9 a z                                               ",
"                                                          9 z x i q 4 1 3 4 8 u d                                               ",
"                                                          9 x v s t   1 6 8 y s s                                               ",
"                                                          9 v v f u     9 e i s s                                               ",
"                                                          e v v x i     q e a d i                                               ",
"                                                          s v v x d     q e a a y                                               ",
"                                                          d v Z v z     q r i i e                                               ",
"                                                          a Z Z Z x     e y i i                                                 ",
"                                                          d Z v v f     e y a i                                                 ",
"                                                          d Z v x d     e i s i                                                 ",
"                                                          v Z v x s     q i d a                                                 ",
"                                                          v Z v x a     e i d s                                                 ",
"                                                          v Z v f s     e a f f                                                 ",
"                                                        e v Z v f s     e a d x                                                 ",
"                                                        e Z B v x d     e i x v E                                               ",
"                                                        y B E K v f     e u z v v E                                             ",
"                                                        k E  . .B s     9 r a f v Z Z B                                         ",
"                                                      d B W ' { Y e     3 8 e a d z d v K                                       ",
"                                                      z K W  .' E                   g                                           ",
"                                                      i d k k c v                                                               ",
"                                                                                                                                ",
"                                                                                                                                "
};
