/* XPM */
static char *_f0ca7d5bff44aa6b6b29c990d5029ebq13J93HAUN1OCqp9[] = {
/* columns rows colors chars-per-pixel */
"64 64 182 2 ",
"   c #3A321B",
".  c #261C3D",
"X  c #3E3528",
"o  c #2E2539",
"O  c #312736",
"+  c #332A35",
"@  c #4E1D26",
"#  c #481929",
"$  c #541629",
"%  c #58182B",
"&  c #501734",
"*  c #66142E",
"=  c #68142E",
"-  c #721332",
";  c #7B1235",
":  c #4D2725",
">  c #512D27",
",  c #453B27",
"<  c #5D3F3A",
"1  c #5C441C",
"2  c #574A1D",
"3  c #6A5B1A",
"4  c #735416",
"5  c #746419",
"6  c #4D422B",
"7  c #584B28",
"8  c #5E512A",
"9  c #594B38",
"0  c #5C5133",
"q  c #65592B",
"w  c #68592D",
"e  c #635935",
"r  c #7A6A2A",
"t  c #6C6130",
"y  c #756732",
"u  c #7A6C33",
"i  c #7D7135",
"p  c #251B46",
"a  c #261B4C",
"s  c #271C5B",
"d  c #332854",
"f  c #3A385C",
"g  c #271A62",
"h  c #281B63",
"j  c #281B6B",
"k  c #291B72",
"l  c #2E2869",
"z  c #38386D",
"x  c #302975",
"c  c #322B7C",
"v  c #363775",
"b  c #561A48",
"n  c #47175E",
"m  c #47185E",
"M  c #5D1B55",
"N  c #611547",
"B  c #65144B",
"V  c #651D53",
"C  c #4C2F44",
"Z  c #57234C",
"A  c #5C2556",
"S  c #652757",
"D  c #662459",
"F  c #672A5E",
"G  c #3D457E",
"H  c #51525D",
"J  c #726C52",
"K  c #4F5163",
"L  c #9E1F22",
"P  c #831037",
"I  c #841138",
"U  c #9B2121",
"Y  c #9E352B",
"T  c #C20B25",
"R  c #D50A27",
"E  c #D8282E",
"W  c #837114",
"Q  c #987B17",
"!  c #A7691B",
"~  c #895728",
"^  c #A94531",
"/  c #857227",
"(  c #98752A",
")  c #8E6537",
"_  c #887934",
"`  c #907837",
"'  c #A6782A",
"]  c #A16A35",
"[  c #A37938",
"{  c #D75A3D",
"}  c #DF5D3F",
"|  c #E05D3F",
" . c #DE673B",
".. c #E0613B",
"X. c #E26C3C",
"o. c #DB324B",
"O. c #8D7142",
"+. c #D26240",
"@. c #E07046",
"#. c #D15264",
"$. c #E15C70",
"%. c #D06574",
"&. c #E36375",
"*. c #E56E7F",
"=. c #98840C",
"-. c #988317",
";. c #AA930A",
":. c #B39C09",
">. c #A48E12",
",. c #B09718",
"<. c #B69C19",
"1. c #BCA211",
"2. c #96832C",
"3. c #958638",
"4. c #968A38",
"5. c #B49727",
"6. c #B39C29",
"7. c #AA853C",
"8. c #A88B3C",
"9. c #AA983B",
"0. c #BAA126",
"q. c #BAA53D",
"w. c #C6AC07",
"e. c #C8AB19",
"r. c #D8B918",
"t. c #D4B823",
"y. c #CEB437",
"u. c #D5BB38",
"i. c #E5C703",
"p. c #ECCE02",
"a. c #EFD002",
"s. c #F6D601",
"d. c #E0C018",
"f. c #EDCC1A",
"g. c #F6D319",
"h. c #DCC132",
"j. c #E5C82C",
"k. c #F6D524",
"l. c #EDCF3B",
"z. c #8A814A",
"x. c #948547",
"c. c #A89744",
"v. c #AD9B42",
"b. c #B19D43",
"n. c #AF9F57",
"m. c #B5A445",
"M. c #B6A848",
"N. c #AD9F73",
"B. c #CD8942",
"V. c #C2AB44",
"C. c #C3B647",
"Z. c #C8B64A",
"A. c #D3BE4D",
"S. c #EAA54C",
"D. c #ECBF5A",
"F. c #D3C14E",
"G. c #DDCB51",
"H. c #E5CB47",
"J. c #E2D04E",
"K. c #F6D944",
"L. c #EEC15A",
"P. c #E7D552",
"I. c #E9D553",
"U. c #F4DC55",
"Y. c #F4DF59",
"T. c #F4E155",
"R. c #F4E058",
"E. c #F3E460",
"W. c #3A3C85",
"Q. c #3C3F89",
"!. c #3F4683",
"~. c #404985",
"^. c #434D93",
"/. c #E56F80",
"(. c #E77787",
"). c #ACA58C",
"_. c #B9B7B1",
"`. c #CDCBCA",
"'. c #E4D8D9",
"]. c #E8E7E7",
"[. c #FBEEF0",
"{. c #FEFEFE",
/* pixels */
"I I I I I I I I I I I I I I I I I I I I I I I I I I I I I I I I I I I I I I I I I I I I I I I I I I I I I I I I I I I I I I I I ",
"I I I I I I I I I I I I I I I I I I I I I I I I I I I I I I I I I I I P I I I I I I I I I I I I I I I I I I I I I I I I I I I I ",
"I I I I I I I I I I I I I I I I I I I I I I I I I I I I I I I I I I I I I I I I I I I I I I I I I I I I I I I I I I I I I I I I ",
"I I I I I I I I I I I I I I I I I I I I I I I I I I I I I I I P I I I I P P I I I I I I I I I I P I P I I P I P I I I I I I I I ",
"I I I I I I I I I I I P I I I P I I I I I I I I I I I I I P I I P I P I I P I I I I I I I I I I I I P I I P I I I I I I I P P P ",
"I I I I I I I I I I I I I I I I I I I I I I I I I I I I I I I I I I I I I I I I I I P I I I I I P I I I I I P I I I I P I L P P ",
"I I I I I I I I I I I I I I I I I I I I I I I I I I I I I I I I I I I I I I I I I I I I I I I I P P I I I P P I P P I I I I P P ",
"I I I I I I I I I I I I I I I I I I I I I I I I I I I I I I I I I I I I I I I I I I I I I I I I I I I I I I I I I I I I I I I I ",
"I I I I I I I I I I I I I I I I I I I I I I I I I I I I I I I P I I I I I I I I I I P I I I I I I I I I I I I I P I I I I P I I ",
"I I I I I I I I I I I I I I I I I I I I I I I I I I P I I P I I P I I I I I I I I I I P I I I I I I I I I I I I I I I I I I I I ",
"B B B B B B B B B B B B B B B B B B B B B B B B B B B B B B B B B B B B B B B B B B B B B B B B B B B B B B B B B B B B B B B B ",
"k k k k k k k k j k k k k k k k k k k k k k k k k k k k k k k k k k k j k k k k k k k k k k k k k k k k k k k k k k k k k k k k ",
"k k k k k k k k k k k k k k k k k k k k k k k k k k k k k k k k k k k k k k k k k k k k k k k k k k k k k k k k k k k k k k k k ",
"k k k k k k k k k k k k k k k k k k k k k k k k k k k k k k k k k k k k k k k k k k k k k k k k k k k k k k k k k k k k k k k k ",
"k k k k k k k k k k k k k k k k k k k k k k k k k k k k k k k k k k k k k k k k k k k k k k k k k k k k k k k k k k k k k k k k ",
"k k k k k k k k k k k k k k k k k k k k k k k k k k k k k k k k k k k k k k k k k k k k k k k k k k k k k k k k k k k k k k k k ",
"k k k k k k k k k k k k k k k k k k k k k k k k k k k k k k k k k k k k k k k k k k k k k k k k k k k k k k k k k k k k k k k k ",
"k k k k k k k k k k k k k k k k k k k k k k k k k k k k k k k k k k k k k k k k k k k k k k k k k k k k k k k k k k k k k k k k ",
"k k k k k k k k k k k k k k k k k k k k p p j k j j a , a k k k k k k a , a k k k l a a k k k k k k k k k k k k k k k k k k k k ",
"k k k k k k k k k k k k k k k k k k k p >.e.W , 7 5 5.h.6.+ h j k g + v.I.v.y 9 0 i M.c.o k k k k k k k j j k k k k k k k k k k ",
"k k k k k k k k k k k k k k k k k k j 2 g.u 9.<.,.' U L 5.l.( q 0 2.H.y.^ M.] b.M.v.i J.8 j k k k k k k k k k k k k k k k k k k ",
"B B B B B B B B B B B B B B B B B B B & ,.5.[.{.{.(.R R #.).v.F.G.8.] B.E E.R D.{ @.c.Z.& B B B B B B B B B B B B B B B B B B B ",
"I I I I I I I I P P P P P P P P P P P P 1 f._.{.{.(.R R &.{.{._.4. .{ S.E E.R L.| ^ G.t ; I P P P P P P P P P P P P P P P P P P ",
"I I I I I I P P P P P P P P P P P P P P $ r.[ *./.o.R R o./.*.%.Z.X...S.E E.R D.| Y R.: P P P P P P P P P P P P P P P P P P P P ",
"I I I I I I I P I P P I P I P I P I I I * <.! R R R R R R R R T C.X...S.E E.R L.} ^ P.# P P P I I I P I I P I I P P I I I I I I ",
"I I I I I I I P P P I P P P I P P P I I * <.! R R R R R R R R T C.X. .S.E E.R L.} Y P.# P P P I I I P I I I I P P P I I I I I I ",
"I I I I P P P P P P P P P P ; P P P P P $ r.N.[.[./.R R $.[.[.'.C.X. .S.E E.R L.} Y U.> P I P P P P P P P P P P P I I I I I I I ",
"I I I I I I P P P P P P P P P P P P P P 1 r.`.{.{.(.R R &.{.{.].C.X...S.E E.R L.} +.m._ - I P P P P P P P P P P P P P I I P I P ",
"I I I I I I I ; P P I I P P P P P P I @ e.1.v.v.b.[ ~ ~ [ n.n.x.` 7.7.4.) 3.] v.7.c.b.P.: P P P P P I I P I P P I I I I I I I I ",
"I I I I I I I I P P I I P P P P I ; $ ,.g.g.g.g.k.0.  / h.l._ q y V.U.9.X 7 _ Y.R.R.U.T.Z.# P P P P P P I I P P I I I I I I I I ",
"I I I I I I I I P P P I P I I P I # W g.g.g.g.k.k.0.X 2.K.K.q 2.q.C.U.9., q u Y.Y.U.T.U.U._ $ P I I P I I I I I I I I I I I I I ",
"I I I I I I I I I I ; I ; I I I I I % 1 g.r.r.t.t.0.r u.h.A.q.q q V.F.v.q 0 c.A.F.F.F.U.q % I B I I I P I I B I I I I I I I I I ",
"k k k k k k n k k k k k k j k k k k k . f.p g g N - - b l l b ; - b v v V - - Z !.!.G T.. j k k k j k k k k k k k k k k j k k k ",
"k k k k k k k k k k k k k k k k k k k p d.d k k B P ; M c c V I I D W.Q.D P I F ^.^.K J.p j k k k k k k k k k k k k k k k k k k ",
"k k k k k k k k k k k k k k k k k k k a 1.9 k k B ; P M c c 7 4 Q 9 W.Q.D I I F ^.^.J C.a k k k k k k k k k k k k k k k k k k k ",
"k k k k k k k k k k k k k k k k k k k l -./ k k B I P M W.X a.=.;.:.e Q.D I I F !.!.z.8.s k k k k k k k k k k k k k k k k k k k ",
"k k k k k k k k k k k k k k k k k k k j 8 e.g k B P I M l Q s.=.:.i.W v D I I F ^.~.C.t j k k k k k k k k k k k k k k k k k k k ",
"k k k k k k k k k k k k k k k k k k k k o f.< k M P I M s w.;.=.s.W ;.z D I I F ^.H I.o k k k k k k k k k k k k k k k k k k k k ",
"k k k k k k k k k k k k k k k k k k k k s Q 0.j B I I M x 5 a.a.;.p.-.W.D I I F ~.m.4.s k k k k k k k k k k k k k k k k k k k k ",
"k k k k k k k k k k k k k k k k k k k k j O h.) B I I M c f 3 ;.p.>.z Q.D I I S J J.+ k k k k k k k k k k k k k k k k k k k k k ",
"k k k k k k k k k k k k k k k k k k k k k j , j.( - P M x W.V = * A Q.Q.D I - ` I.9 j k k k k k k k k k k k k k k k k k k k k k ",
"k k k k k k k k k k k k k k k k k k k k k k h 6 u.y.~ C x k V I P V Q.W.M t Z.A., k k k k k k k k k k k k k k k k k k k k k k k ",
"n n n n n n n n n n n n n n n n n n n n n m m m & r y.H.b.O.O.) ) O.x.m.I.A.u : n n n n n n n n n n n n n n n n M n n n n n n n ",
"I I I I I I I I P I I I I I I I I I I I I I I I I ; % > w / m.U.U.m.u w > $ ; I P I I I I I I I I I I I I I I I I I I I I P I I ",
"I I I I I I I I I I I P I I I I I I I I I I I I I I I I I ; % b.b.% I P I I I I I I I I I I I I I I I I I I I I I I I I I I I I ",
"I I I I I I I I P I I I I I I I I I I I I I I I I I I I I I I $ @ I I I I I I I I I I I I P I I I I I I I I I I I I I I I I I I ",
"I I I I I I I I I I I I I I I I I I I I I I I I I I I I I I I I P I I I I I I I I I I I I I I I I I I I I I I I I I I I I I I I ",
"I I I I I I I I I I I P I I I I I I I I I I I I I I I I I I I I I I I I I I I I I I I I I I I I I I I I I I I I I I I I I I I I ",
"I I I I I I I I I P I I P I I I I I I I I I I I I I I I I I I I I I I I I I I I I I I I I I I I P I I I I I I I I I I I P P I I ",
"I I I I I I I I I I I I I I I I I I I I I I I I I I I I I I I I I I I I I I I I I I I I I I I I I I I P I I I I I I I I I I I I ",
"I I I I P P I I P I P I I I I I P I I I I I I I I I I I I I I I I I I I I I I I I I I I I I I I I I I I I I I I I I I I I I I I ",
"I I I I I I I I I I I I I I I P I I I I I I I I I I I I I I I I I I I I I I I I I I I I I I I I I I I I I I I I I I I I I I I I ",
"I I P P P P I I I I I I I I I I I I I I I P I I I I I I I I I I I I I I I I I I I I I I I I I I I I I I I I I I I I I I I I I I ",
"n M n n n n n n n n n n n n n n n n n n n n n n n n n n n n n n m m n n m m m m m m m m m m m m n n n n n n n n n n n n n n n n ",
"k k k k k k k k k k k k k k k k k k k k k k k k k k k k k k k k k k k k k k k k k k k k k k k k k k k k k k k k k k k k k k k k ",
"k k k k k k k k k k k k k k k k k k k k k k k k k k k k k k k k k k k k k k k k k k k k k k k k k k k k k k k k k k k k k k k k ",
"k k k k k k k k k k k k k k k k k k k k k k k k k k k k k k k k k k k k k k k k k k k k k k k k k k k k k k k k k k k k k k k k ",
"k k k k k k k k k k k k k k k k k k k k k k k k k k k W.k k k k k k k k k k k k k k k k k k k k k k k k k k k k k k k k k k k k ",
"k k k k k k k k k k k k k k k k k k k k k k k k k k k k k k k k k k k k k k k k k k k k k k k k k k k k k k k k k k k k k k k k ",
"k k k k k k k k k k k k k k k k k k k k k k k k k k k k k k k k k k k k k k k k k k k k k k k k k k k k k k k k k k k k k k k k ",
"k k k k k k k k k k k k k k k k k k k k k k k k k k k k k k k k k k k k k k k k k k k k k k k k k k k k k k k k k k k k k k k k ",
"k k k k k k k k k k k k k k k k k k k k k k k k k k k k k k k k k k k k k k k k k k k k k k k k k k k k k k k k k k k k k k k k ",
"k k k k k k k k k k k k k k k k k k k k k k k k k k k k k k k k k k k k k k k k k k k k k k k k k k k k k k k k k k k k k k k k ",
"k k k k k k k k k k k k k k k k k k k k k k k k k k k k k k k k k k k k k k k k k k k k k k k k k k k k k k k k k k k k k k k k "
};
