/* XPM */
static char *_fff3c1a20a44b14fe47551d624f389amIeUyaVW3pZGbtOW[] = {
/* columns rows colors chars-per-pixel */
"64 64 216 2 ",
"   c None",
".  c #0A0907",
"X  c #090708",
"o  c #0D0B0A",
"O  c #120E0C",
"+  c #190F0C",
"@  c #15110E",
"#  c #19120F",
"$  c #100E10",
"%  c #151211",
"&  c #1B1513",
"*  c #1D1816",
"=  c #1E1B19",
"-  c #161815",
";  c #221612",
":  c #231A15",
">  c #2A1C16",
",  c #241D1A",
"<  c #2A1E19",
"1  c #291512",
"2  c #321C17",
"3  c #341E19",
"4  c #25211E",
"5  c #2C221D",
"6  c #33231C",
"7  c #3C241D",
"8  c #262321",
"9  c #2B2421",
"0  c #2D2925",
"q  c #2F2D2A",
"w  c #352722",
"e  c #3B2721",
"r  c #332A24",
"t  c #3B2C24",
"y  c #332D2A",
"u  c #392E2A",
"i  c #35312C",
"p  c #3B322C",
"a  c #3C3632",
"s  c #3C3934",
"d  c #42241D",
"f  c #47291F",
"g  c #422621",
"h  c #452C25",
"j  c #4C2C24",
"k  c #432D29",
"l  c #4E2E2B",
"z  c #522D26",
"x  c #552F2B",
"c  c #4F3327",
"v  c #4D332C",
"b  c #45342B",
"n  c #533326",
"m  c #5D3326",
"M  c #523429",
"N  c #5B352C",
"B  c #5C3A2E",
"V  c #423732",
"C  c #4B3533",
"Z  c #413C38",
"A  c #4A3E3C",
"S  c #463C35",
"D  c #543B34",
"F  c #5B3B33",
"G  c #642C2A",
"H  c #6B2A2D",
"J  c #762B2F",
"K  c #623426",
"L  c #64332C",
"P  c #633B2C",
"I  c #6A3C2E",
"U  c #743D2D",
"Y  c #7D2E31",
"T  c #6B3731",
"R  c #633D32",
"E  c #6B3D32",
"W  c #723E34",
"Q  c #7C3E36",
"!  c #773235",
"~  c #4D423A",
"^  c #5D4138",
"/  c #6C412F",
"(  c #62402E",
")  c #73412E",
"_  c #7A402E",
"`  c #654231",
"'  c #6C4333",
"]  c #6F4837",
"[  c #6C453B",
"{  c #6E4B3E",
"}  c #66413B",
"|  c #744433",
" . c #7B4533",
".. c #744A36",
"X. c #7C4934",
"o. c #74453A",
"O. c #7B443B",
"+. c #754B3C",
"@. c #7B4B3B",
"#. c #7D513B",
"$. c #574944",
"%. c #585252",
"&. c #664640",
"*. c #754E45",
"=. c #7B4D43",
"-. c #7A4A4E",
";. c #6D5246",
":. c #765343",
">. c #7D5243",
",. c #7E5449",
"<. c #715248",
"1. c #8C2F35",
"2. c #833735",
"3. c #823D3A",
"4. c #8A3C3F",
"5. c #8A3134",
"6. c #9E3C3F",
"7. c #963739",
"8. c #804432",
"9. c #844A36",
"0. c #83453B",
"q. c #89453C",
"w. c #834C3A",
"e. c #8C4C3C",
"r. c #904D3D",
"t. c #85533D",
"y. c #8B533D",
"u. c #86553B",
"i. c #92533F",
"p. c #90593E",
"a. c #804242",
"s. c #854B42",
"d. c #8C4B42",
"f. c #934443",
"g. c #9C4745",
"h. c #934D43",
"j. c #9A4C45",
"k. c #9F4B49",
"l. c #845342",
"z. c #8C5443",
"x. c #855944",
"c. c #8C5A43",
"v. c #83544A",
"b. c #8B5449",
"n. c #845B4C",
"m. c #8C5C4B",
"M. c #945343",
"N. c #9A5546",
"B. c #945B44",
"V. c #995B45",
"C. c #93544A",
"Z. c #9C554B",
"A. c #935C4A",
"S. c #9C5D4B",
"D. c #8C5F50",
"F. c #885C58",
"G. c #9C5D53",
"H. c #A04145",
"J. c #A25A4D",
"K. c #A1564B",
"L. c #A35D52",
"P. c #A95E54",
"I. c #AB5455",
"U. c #9B6247",
"Y. c #94614B",
"T. c #9D624D",
"R. c #9C644C",
"E. c #9E684D",
"W. c #946045",
"Q. c #86625C",
"!. c #8F655B",
"~. c #8A6050",
"^. c #946254",
"/. c #9B6453",
"(. c #9D6A53",
"). c #92645B",
"_. c #9C6559",
"`. c #9D6A5A",
"'. c #956B5A",
"]. c #A2644E",
"[. c #A26B4E",
"{. c #A26553",
"}. c #A96455",
"|. c #A46B54",
" X c #A86D55",
".X c #A3655A",
"XX c #AB655B",
"oX c #A46B5A",
"OX c #A96C5C",
"+X c #A67056",
"@X c #A97156",
"#X c #A4715A",
"$X c #AA745B",
"%X c #AD795E",
"&X c #8C6762",
"*X c #946B61",
"=X c #9E786D",
"-X c #877E78",
";X c #A36F61",
":X c #AB6E61",
">X c #B26C64",
",X c #B16660",
"<X c #A57363",
"1X c #AB7263",
"2X c #AD7A63",
"3X c #A37669",
"4X c #AB756A",
"5X c #AD7C6C",
"6X c #B17366",
"7X c #B17B64",
"8X c #B2746A",
"9X c #B17C6C",
"0X c #B67D73",
"qX c #B1826D",
"wX c #B38473",
"eX c #B68874",
/* pixels */
"                                                                                                                                ",
"                                                                                                                                ",
"                                                                                                                                ",
"                                                  4 * - & * -                                                                   ",
"                                              8 * o o $ % * - % % #                                                             ",
"                                            - $ o $ o o $ * 8 * & % % & ,                                                       ",
"                                        = % o o $ $ $ $ % - * , , , * * - % &                                                   ",
"                                    0 4 - o o O % o o @ % - , q p i 9 , * % & & 4 r                                             ",
"                                  4 9 - % $ o O , * @ o o % % , 0 0 0 4 9 & % % & : :                                           ",
"                                - * 8 4 * , % & : 7 7 : % & , , r r 8 , 4 9 % $ # & : <                                         ",
"                              = $ , 8 , 8 , e N ' | K m j j 5 5 y 8 q 4 < 5 5 @ @ @ ; < 6 a                                     ",
"                            8 - - = = ; e N o.z.z.y.e.9. .| E c p % % 9 9 9 9 , @ @ & & 0 5 i                                   ",
"                            = = * & > n  .z.c.B.B.B.V.V.V.V.i. .N : o O 8 u p y * & : * , , =                                   ",
"                          8 , 8 * e E w.y.B.V.S.R.T.].{.].].].S.e.E 2 O @ r V Z 0 & , 5 : , , 5                                 ",
"                          , , = 6 I w.e.B.S.T.{.{.oXOXOX X X|.{.T.V.z.P 1 % 9 u s 5 6 t 5 : 0 5                                 ",
"                        8 * 0 : c  .y.B.S.T.{.oX$XOX$X$XOX X{.].].S.W.c.X.j : & , , 6 6 6 > 5 5 4                               ",
"                        , r r < I e.B.S.].].{.oXOX1XOXOX|.{.[.].].U.A.B.t...n : # % 6 e y < , , #                               ",
"                      = 5 r 9 7  .M.T.{.{.{.{..XOXoX{.oX}.|.|.].].T.Y.c.u.9.) j ; # % u u : < & # *                             ",
"                      & 9 r 4 z 9.V.S.].{.{.}.oXOXoXOX.XOXoX|.{.T.S.A.z.w.9. .) j ; o - y & - * @ @ *                           ",
"                      & 5 t < I 9.i.V.V.T.{.{.|.OX;X1X:X1XOXoX).v.=.=.,.+. .w.X.| 7 o o & : % & O O @ # - - @                   ",
"                    * & 5 p > _ u.M.M.B.S.{.{.OX<X4X4X;XD.n.<.$.D M l l z N |  .X.` ; . o - : % % O o @ @ - @ o                 ",
"                    = & < u 7 _ 9.y.y.B./.oXOX1X1X5X<XF.&.h e F ,.)._.^.n.E K | w. .c + X o , , 5 @ o o o O @ $ %               ",
"                  8 = ; 5 t 7 _ w.y.z.S.{.1X1X8X5X0X3Xv.v.=.m.<X5X5X<X`./.m.s.| w.w.B 5 O o o r r 4 O o o o O o %               ",
"                  4 = : 6 p 6 W 9.u.c./.oX1X1X9X0X5X3X^._..X#X`.!.Q.<.>.m.(.^.l.@.w.' < * $ o % w 6 & # o o o o o               ",
"                0 8 * * r V < E  .s.n.*.{ m.;X1X5XwX<X{.oX_.z.=.C A 3 F W (.(.m.t.X.| g & - o o : 6 5 ; % o o O o               ",
"                0 = : , a $.: N F F e 3 g P s.A.oX9X#X{.(.(.9.3X-XC &.=.d.{.`.(.m.s. .N ; @ + O ; b 6 5 < @ o o %               ",
"              q * 4 , , A %.& e ; e F *.m.A.z.w.y.{./.M.S.oXM.C.F.&X).).`.<XoX(.A.w.X.I < & ; $ # 7 7 4 e # o O $               ",
"              0 8 0 < 4 y Z * # j x.`.oX'.^.A.w.W M.Z.h.i.S.{.T.oX3X4X;X1XOX_./.C.e.9.) e * u 2 ; 5 w : 6 : o @ $               ",
"            8 q y 0 4 , , 8 % ; O.A.b.*.$.M !.a.W h.G.k.h.h.S.{..X4X9X1X1X;X.XL.A.e.w. .M 6 c ..d 1 5 # : 5 + O o o             ",
"            0 i p 8 9 5 & & + & | o.l C 5 k *Xm.E q.Z.h.C.M.Z.}.,X>X8X8X1X,XXX}.N.z.w. .N 6 N n.| f 1 6 * 5 @ O o % o           ",
"            p a y 8 5 8 + O O + B F j Q.R s._.b.L 3.h.h.0.d.N.}.>X>X8X>X,X,XXXP.Z.M.9._ P j P Y.{.+.> 6 r - & O O o o o         ",
"            s s i 0 5 : O o O o t M j W s.*X_.s.L  .Z.Z.d.Q d.XX>X>X>X,X,XXXP.J.K.B.9. .) K X.$XOXy.6 > t , o o o o o o         ",
"            i i i 5 6 5 o o o o w R I s.G._.G.d.T s.I.XXL.f.Q C.9X8X8X>XXXXXL.K.K.i.9.9.U m  .OXN.Q 1 : < 8 O o o o . o o       ",
"            q q q 5 5 4 @ o . o 9 R @.C.C.G.G.h.Q f.;X8X;XG.C.d.>X0X8X>X,XXXP.J.K.i.e.e._ m N | E 2 % ; & 8 @ O o o . . .       ",
"            i y r 6 5 6 @ X o o : F =.b.C.Z.K.Z.s.f.L.G.C.a.! h.Z.8X0X6X,X}.J.J.K.i.r.9.) m 6 O O O + @ # : @ O o o o o o       ",
"            a y q 5 : 6 4 X . . o ^ o.b.h.j.Z.Z.C.=.Q v.b.P.G.f.P.OX6X9X1XXXJ.J.K.i.r.e.U K 3 O O # O O % * O O @ o . . o       ",
"            i 5 5 : 5 6 6 @ . . % u E s.r.j.N.L.G.a.C.C.G.*Xs.a.C.L..X1XOX:X{.L.Z.N.i.e.U K 3 # ; : + + * * @ ; , @ O @         ",
"              , 4 & ; 6 6 & . . o : F O.q.h.N.L..XC.Q O.v.E N z P @.A.G.$XOX|.G.J.N.M.r.8.K 3 2 e ; @ # # @ # 6 5 & %           ",
"              4 ; ; > > 5 ; o . O @ u W 8.f.h.L.{.C.F z N T 0.a.a.| m O._.oXoX{.].N.r.r.8.K d 7 7 > & ; & O # # & &             ",
"              4 5 ; > & & # , @ % @ 5 F | 0.e.A./.s.g G j.k.g.g.f.h.b.x.`.oXoXoX{.N.i.r.8.I n ..d ; @ @ O O O O %               ",
"              5 6 5 6 # # # ; : : * 6 c R W 9.C.A.R f r.f.4.4.a.! Y 3.f.oX#X#XoX`.V.M.e. .P P t./ ; O O o O o o                 ",
"            8 r b 7 6 - @ O & t ~ ; & <.x T  .s.n.z E 4.J =.F.-.! 1.5.f.|.#X`.oX(.A.B.y.X.P ' p.#.e o o o O O o                 ",
"            , 5 a p 4 # o O : 6 u + O ^ N N W O.=.h a.3.H H Y 1.6.H.K.L.|.oX`.'.(.A.B.y.| / @.W.c.( # o @ @ @                   ",
"          4 : 0 0 7 > @ o O @ > y * o % g g L | +.F d.0.J 1.7.6.I.L.OX.X|.(.+XE././.B.w.) / B.R.Y.#.< @ O                       ",
"          0 9 5 , 7 6 # O O O ; t 4 $ o X O z T | @.z.0.2.7.H.j.h.C.oXoX|.+X#X(.Y.Y.p.X./ X.U.|.E.u.v -                         ",
"        p r 0 , , t t - @ @ # # 9 , % o o X ; M E @.b.w.z.A.C.l.C./.OX1X$X<X#XE.Y.m.t.| | y.E.#X(.c.`                           ",
"        Z i q * : t w , * # ; # t : & $ X o o > N ' @.t.t.B.R.G.J.XX1XOX$X#X`.Y.c.x.@.....W.#X<X`.W...                          ",
"        s 0 0 & * 5 , - , # > < r 5 , ; + o o X 6 P ] w.c.A.S.].XX1X8X:X|.{.`.m.:.+...| t.E.2X#X(.Y.u.n b                       ",
"          , 8 - * * % @ * * b p u q 9 r > @ @ . o 6 P | t.B.M.Z.XX:X:X1XoX(.^.,.{ | ..X.W.@X%X%X+XY.u.( n (                     ",
"            , & & % @ O + * r w : : < y t < # @ o o 6 ^ ' t.u.N.{.oX.XoXS.E.~.<.{ ..X.y.E.%X%X@X+XR.c.| n ..`                   ",
"            * * # , ; % @ 5 * & # # @ 6 $.A 7 & o @ % 6 n ' w.e./..X(./.m.D.,.[ ..X.p.U.|.@XqX@X+XR.c. .m ..#.' `               ",
"              * ; : 8 : # & & @ O O @ # , 9 p 5 o O     b k ' +.x.D.^.n.,.*.o...X.V.[.+X+X@X@X@X@XE.M.I B ` u.u.#...]           ",
"                  r < 5 , # @ O o o o o O O ; 8 @ o     B ` c c ^ { [ [ ' )  .y.E.%X%X$X@X[.@X@X@X(.V._ K P #.x.c.x.>.          ",
"                    y < # @ @ o o o O o O @ @ & O         | l.#.I E | ..X.p.R.+X$X7X7X$X@X[.%X%X@X[.R.c.X./ ..u.W.~.            ",
"                      5 & # @ o o O @ O O O % - @         N X.y.B.V.Y.U.U.[.|.$X$X7X7X$X@X@X@X@X@X[.E.R.A.#...#.>.              ",
"                        & @ @ @ o o $ o $ o o o %         M | 9.y.V.R.E.U.].].|.$X%X7X@X@X@X%X%X$X|.[.|.E.W.+.#.                ",
"                                          o                 P X.t.V.U.[.[.].[.|.|.@X$X@X$X$X%X%X$X+X|.@X+X(.x.#.                ",
"                                                            n ) 8.u.p.].|.[.|.[.@X+X@X%X+XqX%X%X2X+X@X@X$X2X'.                  ",
"                                                              (  .9.p.U.|.|.|.+X@X$X$X%XqX%XqXqX7X$X@X@XqX*X                    ",
"                                                              M ) X.u.W.E.|.#X$X#X2XqX5XqXqXqX%X7X2X@X@X3X                      ",
"                                                              n / X.9.B.U.E.|.$X2X2XqXqXqXqXqX2X$X7XXX<X                        ",
"                                                              b / ..#.p.R.R.|.$X7XqXqXqXqXwXwXqX$X5X3X                          ",
"                                                                ( ) 9.p.W.R.T.|.%XqXqXqXeXeXeX5X$X3X                            ",
"                                                                                                                                "
};
