/* XPM */
static char *_f7d9857816f43d68bedddba25049132qvJwuFb96fQJSoPE[] = {
/* columns rows colors chars-per-pixel */
"64 64 232 2 ",
"   c None",
".  c #1E1E1E",
"X  c #570403",
"o  c #490201",
"O  c #750501",
"+  c #6F120B",
"@  c #6C3914",
"#  c #702E06",
"$  c #5E3F16",
"%  c #327402",
"&  c #525507",
"*  c #6A581E",
"=  c #704908",
"-  c #48681A",
";  c #567B1F",
":  c #577C1F",
">  c #4E721B",
",  c #6E661D",
"<  c #5A7E21",
"1  c #567A27",
"2  c #677A24",
"3  c #767A25",
"4  c #766F2F",
"5  c #765F2A",
"6  c #5A5A5A",
"7  c gray27",
"8  c #727272",
"9  c #8B1A17",
"0  c #AC0B01",
"q  c #A40F01",
"w  c #BC0D02",
"e  c #A81504",
"r  c #BC1405",
"t  c #B91907",
"y  c #BA290A",
"u  c #B72716",
"i  c #BE3919",
"p  c #A93A16",
"a  c #A53736",
"s  c #962B13",
"d  c #C30B01",
"f  c #C51809",
"g  c #C81F17",
"h  c #C62807",
"j  c #C63A09",
"k  c #C92716",
"l  c #CE3C1C",
"z  c #CC352A",
"x  c #CF3D36",
"c  c #93581F",
"v  c #91571E",
"b  c #8A591E",
"n  c #B6451F",
"m  c #955C22",
"M  c #BA5025",
"N  c #857729",
"B  c #98752C",
"V  c #986533",
"C  c #A86D2D",
"Z  c #A4742E",
"A  c #AC7331",
"S  c #B47533",
"D  c #BA7B36",
"F  c #B77B37",
"G  c #BF622E",
"H  c #CB4909",
"J  c #D34F0D",
"K  c #DD790B",
"L  c #D86610",
"P  c #DC7413",
"I  c #C15527",
"U  c #D24B38",
"Y  c #C2652B",
"T  c #C46D34",
"R  c #C67937",
"E  c #D27233",
"W  c #954C4F",
"Q  c #8B6743",
"!  c #8D6944",
"~  c #926E48",
"^  c #887B45",
"/  c #98764D",
"(  c #9F7C52",
")  c #A07D53",
"_  c #A27F58",
"`  c #B26953",
"'  c #976163",
"]  c #D45049",
"[  c #DA6A64",
"{  c #DE7C71",
"}  c #ED6B6A",
"|  c #F9797A",
" . c #D9655F",
".. c #0C9302",
"X. c #318402",
"o. c #0BB501",
"O. c #10A703",
"+. c #2DB233",
"@. c #5C8422",
"#. c #5F8825",
"$. c #5E852A",
"%. c #618A26",
"&. c #638C2B",
"*. c #648629",
"=. c #66912D",
"-. c #69922E",
";. c #638B32",
":. c #6A8932",
">. c #748937",
",. c #679132",
"<. c #6A9533",
"1. c #6E9A36",
"2. c #6F9B38",
"3. c #6E953A",
"4. c #719E39",
"5. c #749838",
"6. c #71902E",
"7. c #75A23C",
"8. c #79A33E",
"9. c #7BA93F",
"0. c #5C831F",
"q. c #25995C",
"w. c #789944",
"e. c #73924B",
"r. c #7AA542",
"t. c #7DAB43",
"y. c #4A8C4A",
"u. c #849A3C",
"i. c #82803F",
"p. c #BC813A",
"a. c #81A23F",
"s. c #E28A18",
"d. c #E89211",
"f. c #F7AD14",
"g. c #FDB412",
"h. c #F0A717",
"j. c #C3843C",
"k. c #C8873D",
"l. c #D39434",
"z. c #E59332",
"x. c #E9BA26",
"c. c #E9B228",
"v. c #DD9C27",
"b. c #F4CC24",
"n. c #F8D625",
"m. c #F6D239",
"M. c #FDE42A",
"N. c #FAE126",
"B. c #FDE637",
"V. c #FBCF1D",
"C. c #889C46",
"Z. c #91874A",
"A. c #A48159",
"S. c #A7865A",
"D. c #BD9150",
"F. c #80AF45",
"G. c #89A747",
"H. c #95AB4C",
"J. c #81B146",
"K. c #85B44A",
"L. c #99A654",
"P. c #99B656",
"I. c #80A058",
"U. c #A2AC59",
"Y. c #A7B85B",
"T. c #B0B95C",
"R. c #8A8D6E",
"E. c #AD8A62",
"W. c #B7946D",
"Q. c #8AA46A",
"!. c #93AC75",
"~. c #B6BA64",
"^. c #ADA273",
"/. c #CC8C41",
"(. c #C98740",
"). c #CF9044",
"_. c #CB934C",
"`. c #D29346",
"'. c #D3964A",
"]. c #C79554",
"[. c #D49C56",
"{. c #C88165",
"}. c #D9A76A",
"|. c #EDB469",
" X c #E29B62",
".X c #B5C266",
"XX c #9DCE5D",
"oX c #F8DA50",
"OX c #FDE846",
"+X c #FDEA58",
"@X c #F5D574",
"#X c #FCEB66",
"$X c #FCEC73",
"%X c #CCC575",
"&X c #64798E",
"*X c #FD7F80",
"=X c #5293AA",
"-X c #64A3A7",
";X c #5DA5AE",
":X c #63CE92",
">X c #59C9B6",
",X c #76CCCF",
"<X c #74D5E4",
"1X c #8B8A8C",
"2X c #929293",
"3X c #9BAB89",
"4X c #9CB18E",
"5X c #A9B797",
"6X c #8EB9B1",
"7X c #B2B6AD",
"8X c #FE8081",
"9X c #E69A96",
"0X c #E28B87",
"qX c #E8B291",
"wX c #B6C3A7",
"eX c #EFD093",
"rX c #FDF18C",
"tX c #FDF398",
"yX c #FBE98E",
"uX c #C8D0BE",
"iX c #F4D6A2",
"pX c #FEF4A5",
"aX c #FEF5A8",
"sX c #F7E0A4",
"dX c #98DBE1",
"fX c #CBCCCA",
"gX c #CBD1C3",
"hX c #D8D9D6",
"jX c #E8E8E8",
"kX c #FDFDFD",
"lX c #F5F5F5",
"zX c #DFE0DE",
/* pixels */
"                                                                                                ).[.}.]._.].).`.                ",
"                                                                                          ]. X}.}.[.'./.`.`.`.`.D               ",
"                                                                                    w +.:X:X,X4XD.'.`.`.`.`./.p.D               ",
"                                                                                d z V +.o.o.o.y.>X6XD.).`./.D D D               ",
"                                                                            W z ] g % o.X.= e e o.+.,X4Xp.F D D                 ",
"                                                                          6XdXdX6X' * e d d d = o.o.o.q.;XF D D                 ",
"                                                                      '.|.}.'.`.^.6X<X1Xu d d X.o.O.& # q.;XZ                   ",
"                            M.M.M.L L B.OXOX+X+Xz.z B.B.M.M.M.M.h.v.'.qX}.`.`.`.`.`._.3X<X1Xs X.= q 0 # ..q.                    ",
"                      P c.n.OX+X|.0X9XsXaXaXaXqX9X9XiXaXaXtXrX|.U oXn.b.x.c.)._.'.'.`.`._.4X,XW 0 0 0 & ..                      ",
"                    b.k  XyXrX@X] z k k b.M.h.f g g x oX#X$X X9X9XiXpXrX$XOXs.H c.`.`.`.`.`.D.-X&Xq 0 %                         ",
"                N.M.|.[ U s.M.L d d d d r s.j t r r w j b.H d d g E $XrXiXqX9X[ oXB.b.c.l.).D F e.=X9                           ",
"              n.B.#XH d d d s.h i I T R /.`.'.`.`.`.`.(.R T M l u w b.P f x [ 0XiXaX$XOXn.c.R F R R.=X                          ",
"              J n.M.d d w n R `.`.`.`.`.`.`.`.`.`.`.`.`.`.`.`.`.`.).R I k w d d E #XtXpXeXU c.x.(.F                             ",
"                j b.f I (.`.`.`.`.`.`.`.`.`.`.`.`.`.`.`.`.`.`.`.`.).`.`.)./.I i j b.s.U [ 9XyX+XB.c.                            ",
"                d f R `.`.`.`.`.`.`.`.`.`.`.`.`.`.`.`.`.`.`.`.`.`.`.`.`.`.`.`.`.).I f d d k #XpXpX+Xb.s.                        ",
"                  T `.`.`.`.`.`.`.`.`.`.`.`.`.`.`.`.`.`.`.`.`.`.`.`.`.`.`.`.`.`.`.`.`.Y y L n.n. XqX Xv.M.                      ",
"                  `.`.`.`.`.`.`.`.`.`./././.k./.k.`.`.`.`.`.`.`.`.`.`.`.`.`.`.`.`.`.`.`.`.R y d d f  .eX+XM.N.                  ",
"                    `.`.`.`.).k.j.D D D D D D D D D D D j.k./.`.`.`.'.`.`.`.`.`.`.`.`.`.`.`.`.M d d d m.rX$XM.M.                ",
"                      F D F D C C m m m b 2 3 3 N N B A D S D D j.k./.`.`.`.`.`.`.`.`.`.`.`.`.`.R h J M.M.#X@XP s.              ",
"                        D D S m v v m b #.&.#.@.6.0.; %.%.3 N Z D D D D j./.`.`.`.`.`.`.`.`.`.`.'.`.Y j h d x  .f.M.            ",
"                            S D m v c *.4.4.1.#.<.C.=.=.#.@.@.; : 3 B D D D R j.`.`.`.`.`.`.`.`.`.`.`.G w d d z +XM.V.          ",
"          <.;.1.J..X          D D D.N r.4.4.4.@.> =.4.4.-.&.@.; @.@.%.< 3 Z D D D j.l.`.`.`.`.`.`.`.).`.T r d P B.M.n.g.        ",
"      7.,.7.4.,.4.7.J.            F J.4.2.1 - - > $.4.4.1.G.C.0.0.; @.0.@.@.2 B D D F j.`.`.`.`.`.`.`.`.`.R j M.M.M.V.h.s.      ",
"    t.2.2.7.2.4.;.4.7.              r.4.,.1.4.$.a.1.4.4.1.: @.=.,.- - $.%.0.@.: 2 B D F D k.`.`.`.`.`.`.).`.R y h h r 0 K g.    ",
"    7.4.4.4.4.4.3.H.1.t.          J.4.4.4.4.4.<.7.7.4.4.<.< <.4.4.4.*.- ;.#.@.; @.@.2 Z D D j.`.`.`.`.`.`.`.'.T d d 0 y g.g.    ",
"  t.4.4.<.2.4.4.3.8.4.9.          F.4.4.1.!.3Xr.4.4.4.H.G.2.4.4.4.4.4.1.1 &.@.; 0.@.0.@.3 S D D /.`.`.`.`.`.`.`.M 0 e d.g.g.g.  ",
"  t.4.4.*.t.4.4.1.<.7.9.~.      P.7.4.5.uXkXkXgX4.4.4.7.H.4.4.4.I.Q.4.4.1.&.; @.#.0.0.0.%.2 A D D p.k.).`.`./.p.p.p d.g.g.g.g.  ",
"  r.4.4.#.t.4.4.7.;.4.7.        J.2.7.5XkXfXzXkX;.4.7.<.7.1.w.uXkXkXhX4.2.< 0.@.#.#.@.#.0., c C D D D D D D D D F S y j H H j K ",
"  F.4.7.@.t.4.4.1.w.G.7.        J.4.3.lX7XjX6 jX<.4.4.,.t.4.gXkXkXkXkXQ.<.L.u.-.1.1.&.0.: b c v C D D D D D D D D F n q 0 0 H f.",
"    7.4.G.r.7.4.4.5.4.4.        t.7.e.lX1X. 6 7X7.4.4.7.7.Q.kXfX2X8 kX3X@.%.=.7.7.2.=.#., c c c v A D D D D D D D F A q 0 H f.f.",
"    t.4.5.*.F.4.4.<.&.4.9.    K.4.4.e.zX-X6 7Xe.1.7.P.5.1.wXjX1X7X7 hXe.: #.4.4.4.4.@.2 c c v v v m D D D D D D D D D n j f.    ",
"    L.7.4.<.<.7.4.4.@.4.9.    P.4.4.1.3XuX5XZ.5.7.1.Y.7.4.5XhX2X. 6 gX; 0.-.4.4.4.&.: Z D D S A A A D D D D D D D D F           ",
"      &.4.4.#.7.4.2.,.#.7.T.  J.4.4.4.4.<.4.7.2.4.4.<.t.2.Q.hX2X1X7Xe.; %.7.1.7.<.@.C.      D D D D D D D D                     ",
"        %.1.1.@.G.7.2.@.,.4.  K.2.4.4.4.4.4.2.2.4.4.<.t.2.1.3XwX5Xw.6..X8.5.7.<.#.@.                                            ",
"          #.,.1.C.<.2.<.; <.2.K.4.4.7.4.4.2.2.7.4.4.1.r.4.4.4.4.w.<.; #.4.1.1.%.@.                                              ",
"            *.#.=.0.#.=.@.; &.7.7.4.2.<.$.2.4.4.4.4.r.4.2.2.4.4.4.$.0.<.4.7.=.@.                                                ",
"              @.0.@.: : @.@.; <.1.4.4.4.* * 3.5.4.2.4.4.1., ;.2.4.; %.4.4.<.0.-.                                                ",
"                  : : @.; @.0.$.7.4.4.4.1 + O @ * * * = + + 2.4.-.; &.4.4.#.@.                                                  ",
"                      : < : < < t.4.4.4.,.@ O O o X O X X # 4.4.=.5.G.4.=.@.@.                                                  ",
"                            > > t.4.4.4.;.>.O o X 9 9 a a 5 4.4.%.U.7.4.@.@.                                                    ",
"                                J.2.4.4.<.r.$ + } } *X*X} >.4.4.: %.4.-.@.1 ,.2.4.                                              ",
"                                P.7.4.4.4.r.2.` *X X*X*X) 3.4.4.: =.4.&.@.$.;.;.,.1.w.                                          ",
"                                  7.7.7..Xr.r.1.A.{.{.Z.3.4.4.4.: -.4.%.@.<.<.;.<.;.3.4.2.                                      ",
"                                  t.4.4.2.r.4.2.1.4.4.4.3.4.4.1.: <.4.0.@.  2.1.;.4.<.;.w.5.U.                                  ",
"                                  K.7.4.2.<.t.2.<.<.,.<.1.4.1.7.: <.4.@.0.    1.1.;.2.4.G.G.2.                                  ",
"                                  P.2.4.7.,.t.7.4.2.,.7.4.4.4.1.: a.7.@.@.    C.2.<.<.2.2.:.<.1.L.                              ",
"                                    t.7.4.<.t.7.2.7.1.7.4.4.7.2.u.T.4.#.0.      4.G.L.1.7.4.,.3.4.                              ",
"                                    K.4.4.2.r.4.7.7.T.r.4.4.4.2.@.-.4.%.C.      2.7.<.;.2.4.4.;.4.3.                            ",
"                                    XX4.4.P.G.F.4.4.5.r.4.4.4.4.@.=.7.&.%.      5.4.2.;.4.4.4.4.;.3.%X                          ",
"                                      K.4.4.=.r.4.4.1.3.7.4.4.7.&.G.a.-.#.      G.2.2.G.3.4.4.4.;.4.                            ",
"                                      P.4.4.1.3.7.4.4.,.t.4.4.4.-.H.4.<.0.        2.4.H.,.4.4.4.<.L.C.                          ",
"                                        t.4.4.@.J.4.4.4.7.4.4.4.<.; 3.4.%.~.      1.7.4.;.1.4.4.7.w.5.                          ",
"                                        J.4.7.Y.5.7.1.H.K.4.4.4.1.@.=.2.#.          3.4.7.;.1.4.1.;.U.                          ",
"                                          r.4.<.@.t.7.7.5.t.4.4.5.*.%.4.&.0.          1.2.<.;.2.&.1.                            ",
"                                          G.2.2.@.<.4.2.4.3.4.4.7.<.: 4.=.0.eX          L.w.1.1                                 ",
"                                            5.7.&.< 7.7.4.&.7.4.7.5.C.T.&.0.Z.W.                                                ",
"                                        W.E.^ 2.<.0.&.5.4.#.2.4.1.4.*.@.@.@.2 ( A.                                              ",
"                                      W.A.A.( >.-.u.C.-.4.<.5.4.4.4.#.1 @.@.4 E._ _ E.E.                                        ",
"                                      E.) ( ) / 4 *.%.; @.*.u.#.1.&.@.1 1 Z.A.A.( ( ( ( ) ) (                                   ",
"                                    W.A.) ) ) ) ) ( 4 : : >.Z./ Z.Z.N 2 ^ A.( ( ) ) ) ( ) ( ( Q                                 ",
"                                  S.) ) ) ) ) ) ) ) ( 4 ^ ) ) ) ( ( ( ( ( ( ( ( ( / / / / ~ !                                   ",
"                                ) ) ) ) ( ( ) _ ) / ~ ! ! ) ) ) ( ( ( / Q ! ~ ~ ! Q ! Q Q                                       ",
"                                  ~ ~ ~ ! ! ! ! ! ! Q ~ ! ~ ~ ~ ! ! ! !                                                         ",
"                                                    ( ~ ~ ~                                                                     "
};
