/* XPM */
static char *_193019e8de14db3a6484852457a9421pEURNR6do8Tx3Gx0[] = {
/* columns rows colors chars-per-pixel */
"62 63 195 2 ",
"   c #655E5B",
".  c #6F635D",
"X  c #66615D",
"o  c #71615E",
"O  c #6D6662",
"+  c #6E6965",
"@  c #6D6C6A",
"#  c #716663",
"$  c #726A65",
"%  c #786E67",
"&  c #746D6A",
"*  c #7A6E6B",
"=  c #6F716F",
"-  c #76716D",
";  c #7A726E",
":  c #6F7373",
">  c #6F7E7F",
",  c #767371",
"<  c #7C7572",
"1  c #767977",
"2  c #7E7975",
"3  c #757B7C",
"4  c #7C7C7B",
"5  c #80736E",
"6  c #807673",
"7  c #827A76",
"8  c #897E77",
"9  c #827D79",
"0  c #817D7A",
"q  c #867D7A",
"w  c #877F7C",
"e  c #837D7A",
"r  c #887F7B",
"t  c #7F807D",
"y  c #8A8077",
"u  c #86817D",
"i  c #86817E",
"p  c #89827F",
"a  c #8B827F",
"s  c #8A817D",
"d  c #8D847F",
"f  c #8B827E",
"g  c #92857E",
"h  c #6D7E82",
"j  c #677C82",
"k  c #737E81",
"l  c #7B7F80",
"z  c #847F80",
"x  c #38A6BD",
"c  c #6F888F",
"v  c #6E8389",
"b  c #738285",
"n  c #7C8283",
"m  c #73858B",
"M  c #7B878B",
"N  c #75888D",
"B  c #7C8A8C",
"V  c #7B8D94",
"C  c #7F9197",
"Z  c #479FBE",
"A  c #4E9DB7",
"S  c #569EB9",
"D  c #4EA1BC",
"F  c #46A8BE",
"G  c #53A2BD",
"H  c #5AA1BC",
"J  c #63A8BE",
"K  c #6AA9BE",
"L  c #60A6BC",
"P  c #3EA5C2",
"I  c #3CA9C4",
"U  c #3FAEC9",
"Y  c #43A5C4",
"T  c #4AA4C6",
"R  c #43ACC5",
"E  c #49AAC2",
"W  c #44A5C8",
"Q  c #4CA7C9",
"!  c #44AFCA",
"~  c #4CABCD",
"^  c #53A4C3",
"/  c #5AA6C2",
"(  c #56A8C5",
")  c #5DA9C6",
"_  c #53ACCD",
"`  c #5DACCA",
"'  c #45B1C9",
"]  c #4AB3CD",
"[  c #55B5CB",
"{  c #5EB1CD",
"}  c #59B8CF",
"|  c #4EADD1",
" . c #55ADD1",
".. c #47B5D2",
"X. c #4BB7D3",
"o. c #4DBCD6",
"O. c #4FBDD9",
"+. c #54B2D4",
"@. c #5BB4D4",
"#. c #54BBD4",
"$. c #5ABDD4",
"%. c #54BED9",
"&. c #5CBBDB",
"*. c #54B5D8",
"=. c #60A7C1",
"-. c #64ACC4",
";. c #69AFC5",
":. c #62AECC",
">. c #6AAFC9",
",. c #66B1CC",
"<. c #6CB3CB",
"1. c #69B2C7",
"2. c #72B7CD",
"3. c #73B9CF",
"4. c #65B4D2",
"5. c #6AB5D3",
"6. c #63BDD6",
"7. c #6CB9D5",
"8. c #62BCDC",
"9. c #6CBDDB",
"0. c #74BCD4",
"q. c #79BAD1",
"w. c #71BEDB",
"e. c #7BBEDA",
"r. c #62BEE1",
"t. c #55C2DC",
"y. c #5CC3DD",
"u. c #64C3DC",
"i. c #6FC0DC",
"p. c #7DC0D6",
"a. c #75C2DE",
"s. c #7DC3DC",
"d. c #56C5E1",
"f. c #5BC6E2",
"g. c #5EC9E4",
"h. c #5ECCE9",
"j. c #64C3E4",
"k. c #6BC4E5",
"l. c #63CBE5",
"z. c #69CBE6",
"x. c #66C5E9",
"c. c #6CC7EA",
"v. c #63CEE9",
"b. c #6CCAEC",
"n. c #74C3E2",
"m. c #7BC6E3",
"M. c #7CCAE6",
"N. c #7ECCEA",
"B. c #72CDEF",
"V. c #64D2EE",
"C. c #68D1ED",
"Z. c #6CCDF1",
"A. c #838382",
"S. c #8A8380",
"D. c #8C8280",
"F. c #8A8481",
"G. c #8B8683",
"H. c #8A8581",
"J. c #8E8581",
"K. c #8C8784",
"L. c #8C8582",
"P. c #868886",
"I. c #8E8985",
"U. c #8D8985",
"Y. c #848A8A",
"T. c #8A8B8B",
"R. c #818789",
"E. c #908783",
"W. c #908681",
"Q. c #918683",
"!. c #918883",
"~. c #918985",
"^. c #948B86",
"/. c #928984",
"(. c #938D89",
"). c #988F89",
"_. c #9D8E84",
"`. c #99908A",
"'. c #848E92",
"]. c #898F90",
"[. c #869093",
"{. c #8B9393",
"}. c #86969B",
"|. c #87989E",
" X c #819CA3",
".X c #82BFD4",
"XX c #81C0D6",
"oX c #81C5DD",
"OX c #8AC5DB",
"+X c #84CBE2",
"@X c #80CFEF",
"#X c #82D1EE",
"$X c #8AD2EB",
"%X c #8BD0E6",
"&X c #82D2F0",
/* pixels */
"< < 2 - & ; - * ; - - ; ; ; * & * * ; 7 7 7 7 d f W.J.F.F.F.F.& O O O z /./.H.7 6 7 7 ; * * & & + , 2 < - & , - & & * ; 2 2 ",
", 2 4 < ; & , - , - - ; % ; ; < 2 ; ; 7 q 2 6 d !./.D.H.I.I.d & $ O + z D.D.H.7 7 8 7 * , < ; - 2 2 2 , - , , ; 2 ; ; i i 2 ",
"< 2 7 2 - , < - - - - - - ; - , ; * 5 q < < 2 f W.J.J.F.F.I.W.& & # + e D.Q./.7 8 7 < < * * < - - - - - & * * < ; & ; 7 7 2 ",
"2 2 2 2 2 7 4 i f i H.w y p f y f f f f f i D.f H.D.F.F.I././.; & ; ; G./.Q.J.!.W.z r q D.D.e & & & - 4 e , 2 2 7 2 7 ; - , ",
"< i 2 2 2 2 0 G.I.I.I.F.F.K.F.K.K.J.G.J.W.J./.J.H.D.e H.K.I.^.2 * & - e K./.W.^.K.D.q H./.Q.D.+ + $ - 7 4 7 2 2 7 7 7 2 2 & ",
"4 0 7 7 2 < - i F.H.A.f i H.F.F.F.J.f z J.W.W.d W.H.z A.A././.2 ; * & e Q./.^.i z K.z Q.Q.G.z & $ % & 7 e 8 0 e i 7 7 7 ; - ",
"2 0 0 7 2 2 < i Q.e f f i J.W.F.P.K.K.K.J.W.D.f J.J.A.F.A.I.I.< * * < K./.I.F.F.H.H.A.Q.Q.Q.Q.- $ - - i e 0 4 < 2 0 7 ; ; - ",
"7 7 < & + $ $ < 2 < 7 ; ; 6 2 S 6.9.r.M 5 2 6 6 2 6 < , 2 , < f W.z w < < ; < < < 2 7 q q 8 Y..Xs.p.0.` ^ Q ^ 3 & ; 7 5 2 2 ",
"; 2 7 & $ $ & ; * ; ; * 6 5 * ( x.j.x.N % ; ; 5 ; * , - , - , I.I.d J.& & * & < < 2 i 0 2 5 n #X@X#X9.~ ~ ~ | 3 = < < 7 7 7 ",
"7 7 7 ; & $ % ; ; ; < ; < ; , A &.r.r.m 5 2 ; ; * < ; & & + ; J.!.d J.7 2 < ; 2 0 7 4 2 e 7 B M.M.@Xn._ ~ | Q k 6 < 7 7 7 q ",
"; 2 6 + # $ $ & ; ; 6 * * ; < D W r.r.m * * * & ; ; 5 1 : 1 t n P.T.Y.- ; ; 5 7 7 7 2 2 2 2 B N.N.@X9.~ | ~ T 1 2 7 8 y 8 e ",
"< 7 6 e f W.f 7 7 7 , * q q w M v m V - % $ # 2 8 6 i e.w.7.5.E F $.] t * 8 7 ; ; ; 2 - , ; 1 m b b > h b b b 2 ; 7 7 8 8 8 ",
"6 8 7 W.^.^./.f 7 7 < 7 7 w r 5 7 7 * + O $ $ 2 7 7 t e.M.9.:.R I t.t.m 7 e 6 * - , - , , , ; & $ % % ; 5 5 * 5 ; ; 2 8 8 e ",
"; 7 8 z w J./.8 7 6 < < < 8 8 7 2 2 , + + + $ 2 2 2 n s.M.n.:.R ' t.o.m 7 4 0 < , < & , - ; 2 - - ; ; - * % & 2 ; ; < 2 7 6 ",
"6 ; 7 r J.J.F.2 7 6 < 7 7 6 q 8 r 7 7 $ + $ $ ; 7 7 4 ,.4.5.` R X.] O.m 6 q 7 < , < = - , 2 - - ; ; ; - ; & 2 - * & @ 2 7 2 ",
"; 7 6 r /.W.J.i d f f 6 ; ; < < < < < & ; $ $ - - ; 1 3 3 b h j v > m 4 * < < w H.D.w w p p p u f i F.J.H.i J.i e A.e @ & & ",
"6 e 7 J.!.d !.d D./.W.< * ; ; ; * < * < ; $ - < * - & & * * * + $ ; * - - < 2 !.^.J.Q./.^.^./.I.K.K.K./.Q.I.I.K.F.G.i $ # $ ",
"2 7 7 !.!.d d d D.W.D.2 ; ; & * < * * * 2 , - ; ; - + @ @ & & - < - - + - < 6 7 7 J.(./.^.W.g p K.K.F.K.Q.W.K.K.G.F.F.& $ # ",
"; 7 7 g W.p d I.D.f d 7 & & & ; * & < < 2 , 4 2 4 2 1 = & & @ - < < - - @ & $ R.P.R.Y.V Y.].[.T.K.G.K.K.H.H.K.K.H.G.F.+ $ # ",
"& ; ; ; & 2 7 y 8 q 6 2 2 ; 2 6 7 7 z K J K ;.<.0.m.+XM * < < 2 7 2 2 @ + $ = p.2.J -./ ^ >.s.l < 2 4 2 & , 7 # + & & 6 2 < ",
"% % * * & ; ; 7 7 7 7 q 7 7 7 8 r 7 4 3.<.1.>.) 9.N.&Xb * 4 * 2 2 2 2 + O % * e.<.-.;.) ) ) 5.4 - < , & @ & &   + + $ 7 7 7 ",
"$ < ; < - + & 6 < < 7 6 7 7 8 7 7 * 4 q.0.<.<.) 5.M.#Xn ; * * 6 2 0 7 & + O : q.;.;.;.) ( ` ) 1 ; , & @ @ & + o & + # 2 7 < ",
"* 6 * ; 2 ; ; 7 < 7 6 4 A.Y.P.n A.l M 2.e.2.+XM.9.n.#XV 2 4 3 2 7 0 2 & $ $ 1 <.-.-.;.) ` ` ) 1 * 6 * * < 7 ; $ * $ # < 7 7 ",
"z Q.z K.I.f F.e 7 7 e .X+X%Xs.,.:.,.>. .[ &.k.B.c.8.c.z.l.z.j.M 7 2 < < 2 6 l Z ~ @.Q ' ' R E n w A.G.G./.W.f f d W.w # # $ ",
"^.W.D.K.J.F.G.0 2 7 e .X+X+Xs.a.5.4.4. .~ &.r.c.b.x.x.C.V.V.l.M 6 7 7 2 e 7 l @.b.b.+.' ! U R P.f K./.K.Q.Q.(.~.Q.(.W.% # # ",
"W.W.K.H.K.J.I.e 7 7 4 oX$X+X+Xn.n.9.7. .W W &.8.c.c.x.v.v.h.f.M 6 8 8 8 8 8 A.b.b.j.&.' U ' R '.W.K.Q.D.Q.I.~.Q.W.(.D.# # # ",
"w G.H.K.K.H.G.w q 7 4 OX$Xe.oXs.a.a.a.8.4._ _ 8.8.k.k.y.y.t.$.B 6 8 8 7 7 6 A.c.j.r. .I ' ' [ '.W.F.Q.H.z w z H.z Q.e + $ # ",
"< < < q < < 4 2 2 7 7 4 z l 4 3 4 t 1 1 3 n n t t 3 1 1 2 3 2 2 < < * & + # $ 3 4 k : 1 > 1 b , ; 7 < - * & & < 6 7 7 7 7 2 ",
"< < e 7 7 < 2 < 2 2 2 * * * * - - * * ; - ; ; * - - + - - < ; < 2 * * # $ $ + ; * % ; * * * ; - , * & & @ & - 2 7 7 < 7 7 7 ",
"2 7 7 7 7 2 * 7 7 6 < ; < < < - - , ; ; - < ; 2 - - - - ; ; - % * * & # % . O * - , & ; ; < < < < - * - < * * 7 q 7 7 6 ; 7 ",
"7 7 8 n 3 n l n A.A.l 2 ; < & & < ; O X O = & ; ; - - < ; ; , t 1 1 3 : @ @ @ 2 < ; ; < 7 ; ; < < ; 5 < < 5 < q q 8 q q 7 6 ",
"6 8 e ;.4.n.N.n.n.r.c.m . O O 2 F.A.F.2 - - & ; 7 7 7 7 2 2 n p.s.s.2.H H H >.}.r K.J.g J.f F.f f J.W.r W.W.W.f H.Q.f /.D.G.",
"; 7 7 <.4.M.N.c.x.x.Z.c   O O 6 i T.(.2 - - , 2 7 6 < 2 7 < M m.oX2.L ^ ( ^ 4. Xg K.K./.W.W.J.J.Q./.Q.Q.(.Q.W.!.J.!.!.W.J.I.",
"2 7 e <.( ` N.c.x.x.Z.c # & # z (.(.(.1 - - - 2 q 7 7 8 8 7 4 q.2.=.-.) / ^ ` |.r H.D.K.d J.J./././.Q.Q.Q.D.J.W.W./.J.W.W.K.",
"7 q 0 2.w./ 4.w.r.r.c.N . O & w p u F.; - - & 2 7 6 2 l l 3 m 3.0.+Xs.a.w.w.n. XT.'.].G.H.D.H.J.G.z ~.K.D.H.H.D.Q.J.J.W.J.J.",
"2 7 0 A.l l : 3 4 4 4 < * < * , < 2 2 7 < & - - < < 2 S G ) w.$.P %.g.y.f.f.h.g.$.$.u.k * < ; < < < < ; < ; < H.D.J.F.2 7 w ",
"< 2 6 & & * O O $ & $ & < ; * & - 2 ; ; ; - , & - * < S ` w.n.%.x I t.f.f.d.f.f.g.v.g.k % - - < ; - - & - - - H.H.A.z , 0 0 ",
"< 2 < & ; ; & ; 2 2 - ; < & * * ; 5 ; ; < 2 - 2 , < , -.c.n.n.%.I I ..d.f.d.f.h.V.V.v.3 $ * - - - , , , , - < H.H.z z 2 2 e ",
"< 7 8 6 ; < < < 2 ; , - * ; 2 n n n n 2 2 ; - & < 2 2 0.e.w.n.$.R R R #.y.g.l.z.z.v.b.k & ; < ; < < - = - - 2 A.w H.A.2 2 4 ",
"6 7 6 < , , - 4 4 i i - - ; < 9.Z.b.Z.}.d f z z 2 4 H.4 4 3 4 , = @ @ : 1 1 3 ].T.{.].H.W.W.W.z z G.G.2 2 < 4 2 2 z 7 4 4 4 ",
"< 6 2 2 7 7 < H.I.J.Q.< - < < w.B.b.b. Xg J.z e i u p 5 % % * # O O O % 5 ; * g d W.Q.D.^.^.J./.I.I.K.4 2 7 2 2 2 2 4 2 2 4 ",
"0 2 2 e e w q K./.W.Q.< - ; < 5.*.~ *.[.g H.e A.A.p g 5 ; 6 ; $ $ + # 2 6 ; 6 W./.!./.Q.W.W.W.W.K.F.G.0 4 0 e 7 0 0 4 2 2 * ",
"2 2 < 2 7 7 2 K.Q.H.f < , < - :.*.T ~ V r K.w w p !./.7 6 5 6 $ O O # & ; ; < w D.W.W.T.T.T.].T.T.Y.R.4 < - = < 2 e 2 < < < ",
"  @ & < , 2 0 0 f w < q 2 < < l n n 3 7 8 8 e q e y f e f y q y f r f f f /.D.7 e 6 4 -.4.5.5.$.$.y.u.Y.6 2 z w P.G.w @ & * ",
"# @ O < 7 0 0 2 7 q 7 7 0 2 2 ; ; * % 7 7 e 7 8 7 7 y f y e 7 f W.^.Q./.Q.(.Q.8 q < l -.4.4.5.X.X.d.g.{.^.(.(.I.K.(.W.& @ & ",
"& & + 2 z 2 2 2 2 7 7 2 0 7 2 < 2 ; ; 7 7 7 6 0 7 7 7 7 7 7 2 y y W.g y 8 g W.8 6 * 4 -.:.,.4.X.g.v.g.{._.W.Q./.J.J.F.+ & + ",
"+ $ & ; 6 e e 6 7 7 2 7 7 < < 2 < ; ; 7 < 2 0 2 , 2 1 2 6 ; 7 {.T.n ].[.{.{.'.n n n V ) ` ` 4.x.C.V.C. X{.{.{.A.d F.i & + & ",
"< 2 0 < * < ; ; < ; < ; ; - * ; - ; 2 ; - - 2 , & , @ * 2 ; i m.` / 9.+XoX+Xs.7.7.7.7.@.W Q  .*.&.&.j.y.t.t.$.1 & * < 2 q 7 ",
", 0 2 ; < < < 2 < ; ; ; 6 6 7 7 < < - * * , * , , & , * < ; 2 0.) ) ` +X+X+X+X7.5.7.5.@.+.+.+. .| ~ Q o.t.t.} 3 & ; - < 7 2 ",
"2 0 7 @ & ; ; & @ & ; * ; 5 * ; * % * - - & * * * , < < ; ; 2 -.4.4.) s.+XoXs.w.7.7.7.*.|  .+.+.~ W Y ] t.t.t.4 ; - @ , , , ",
"7 q 2 < & - & & @ & * k b h v h m N N , & 2 , - * * & * ; ; , -.5.5.<.0.M.s.s.w.9.5.w._ Q ( _  ._ ^ T Q } $.[ 2 < < < < 2 < ",
"7 7 2 A.F.J.J.< * & , =.4.{ ) ] d.t.v.[.6 4 2 2 2 < < < ; * ; , , , 4 $.t.g.y.t.%.t.l.m , 1 1 A.z n l 4 t n n I./.J.Q.I.I.(.",
"; 2 2 i G./.K.< * ; < / G G H x I R f.V 5 2 < < 2 7 q < ; ; ; 5 % & ; } %.f.t.%.f.h.l.k * 6 5 7 7 2 < 7 2 2 7 i J./.K.z G.(.",
"2 0 4 F.I.K.D.q < ; < >.^ A G I ..d.h.c 6 2 2 e w w < * ; * 5 ; & ; 2 $.d.d.d.d.h.h.h.b * < ; 7 7 < 2 7 2 t 7 p Q.Q.~.(.^.J.",
"2 0 2 F.J.J.J.7 < < , K :.>./ 6.u.u.6.V ; 2 e f 8 6 6 & ; % ; ; ; ; < 6.u.u.&.u.8.[ &.l 5 6 < 7 7 7 7 < 0 2 2 F.K.D.D.K.J.H.",
"7 2 < 2 2 q 7 7 7 7 7 2 2 2 1 - , , 2 2 ; ; ; 2 ; ; ; & ; ; ; 7 8 7 7 4 i 4 i G.K.K.~.(.Q.Q.Q.8 7 7 2 - - & ; ; * * < 7 7 7 ",
"2 7 e 7 0 7 7 7 0 7 7 ; & % O $ * - - < < * & * * < 2 ; ; * ; 7 8 7 2 7 < 7 q D.F.d /.J.W./.Q.7 , 2 2 - - - ; ; * @ - 2 7 7 ",
"2 7 r 7 8 7 7 q e e 2 ; - & - 2 < < < - * * , , * & ; * ; * ; 7 7 7 2 2 7 q < z K.I./.Q.Q.^.Q.6 7 2 < - < ; * < & - < 0 e 7 ",
"7 8 7 8 7 7 6 < 7 7 < * - - ; 2 < ; < 2 < < < ; * 2 ; ; < ; ; < 2 4 2 2 q 2 2 H.W.D./.W.z z G.2 7 2 2 & ; < 6 2 7 7 6 0 e 7 ",
"; ; ; ; - * * * * - * - - & & $ + $ & e f A.e i f W.D.q 7 < 7 7 2 2 7 2 2 < 4 < < 7 7 < ; < ; ; ; ; - @ ; 2 7 e i 2 2 7 w e ",
"* < * ; ; ; ; < < * < - - < < @ + + O 7 A.w K.J.J.D.D.q 7 7 7 7 6 7 2 7 2 2 < < 7 2 < - < < * ; 2 ; ; 2 , < 2 q 7 2 2 2 0 0 ",
"& % $ & * * * * @ * * - * ; ; & + + + w /.D.D.D.W.D.D.7 ; 7 7 8 7 7 7 7 < 2 < 7 < 2 2 & - < ; < * * ; ; ; ; ; 7 0 < , 2 2 7 ",
"< < 2 < 7 7 < 7 2 6 6 7 0 2 2 < ; ; ; ^.).^.).).^.`.`.f r w r z f f f w e i e A.J.D.f 0 7 7 < < 6 2 & @ < 2 < H.f w A.f H.w "
};
