/* XPM */
static char *_4a12afa171c42b3d3d935e0b5f10100oyT8wkzeSo1Il8t7[] = {
/* columns rows colors chars-per-pixel */
"64 64 225 2 ",
"   c #1E183D",
".  c #231829",
"X  c #211B38",
"o  c #3B1E3C",
"O  c #25213D",
"+  c #1B1E4C",
"@  c #1B1B42",
"#  c #1C1F52",
"$  c #241B45",
"%  c #281B47",
"&  c #1D204E",
"*  c #182845",
"=  c #0F304F",
"-  c #13324B",
";  c #1A374B",
":  c #0B2F56",
">  c #0D2E5D",
",  c #1E2153",
"<  c #1E245B",
"1  c #122B5B",
"2  c #1B2B54",
"3  c #0B3055",
"4  c #06315C",
"5  c #0B335C",
"6  c #11355C",
"7  c #163557",
"8  c #20224C",
"9  c #2A264A",
"0  c #26284D",
"q  c #282444",
"w  c #33234D",
"e  c #39234A",
"r  c #222455",
"t  c #272A55",
"y  c #22255C",
"u  c #24295C",
"i  c #2A2657",
"p  c #293559",
"a  c #383759",
"s  c #062F63",
"d  c #0B2D62",
"f  c #023265",
"g  c #0B3462",
"h  c #003269",
"j  c #0D3862",
"k  c #1F316F",
"l  c #143E68",
"z  c #1E3574",
"x  c #1C3A7A",
"c  c #1F3C76",
"v  c #1F2D6A",
"b  c #222663",
"n  c #232965",
"m  c #212B69",
"M  c #21326E",
"N  c #263667",
"B  c #323564",
"V  c #3A3D6A",
"C  c #36396A",
"Z  c #213770",
"A  c #243D73",
"S  c #3C3F76",
"D  c #4A294F",
"F  c #453459",
"G  c #543255",
"H  c #482A50",
"J  c #563D72",
"K  c #513968",
"L  c #2D485C",
"P  c #37475B",
"I  c #1B427D",
"U  c #1D497A",
"Y  c #164265",
"T  c #28496B",
"R  c #384C6B",
"E  c #3A5665",
"W  c #3C5969",
"Q  c #37566B",
"!  c #254D71",
"~  c #284977",
"^  c #36457A",
"/  c #2F5270",
"(  c #375A7B",
")  c #396379",
"_  c #454A6C",
"`  c #444566",
"'  c #54456D",
"]  c #43596B",
"[  c #48556E",
"{  c #484C75",
"}  c #455B76",
"|  c #455D7A",
" . c #4C557A",
".. c #565575",
"X. c #55577C",
"o. c #564874",
"O. c #725779",
"+. c #67556F",
"@. c #49657C",
"#. c #5F6176",
"$. c #50646D",
"%. c #62647B",
"&. c #666174",
"*. c #697372",
"=. c #82617E",
"-. c #1A3F80",
";. c #194482",
":. c #194B83",
">. c #144C8C",
",. c #164685",
"<. c #1A5489",
"1. c #0F5496",
"2. c #0D5A9C",
"3. c #125192",
"4. c #155C94",
"5. c #165996",
"6. c #2B4D85",
"7. c #3A4882",
"8. c #28538C",
"9. c #32588D",
"0. c #2A5C97",
"q. c #1A6B9A",
"w. c #176599",
"e. c #2E6F8D",
"r. c #316B9D",
"t. c #0B5EA1",
"y. c #115FA1",
"u. c #0B60A3",
"i. c #0766AA",
"p. c #0469AE",
"a. c #0A68A7",
"s. c #1468A3",
"d. c #056EB2",
"f. c #086FB1",
"g. c #4D5682",
"h. c #565983",
"j. c #645783",
"k. c #4B6383",
"l. c #4D6A86",
"z. c #456587",
"x. c #5D608D",
"c. c #4F7095",
"v. c #6B6D8D",
"b. c #656884",
"n. c #607B8E",
"m. c #6C6F90",
"M. c #6C7690",
"N. c #787994",
"B. c #746687",
"V. c #5B77A6",
"C. c #6879A2",
"Z. c #797CA5",
"A. c #8B6687",
"S. c #947599",
"D. c #5B8498",
"F. c #7F8D8E",
"G. c #758E9D",
"H. c #64899B",
"J. c #4183A9",
"K. c #558AB2",
"L. c #7686A8",
"P. c #7C9AAE",
"I. c #7998AB",
"U. c #749EB3",
"Y. c #789CB2",
"T. c #768CB1",
"R. c #7FA8BC",
"E. c #6C91C8",
"W. c #7AA8C5",
"Q. c #79A5D2",
"!. c #969C92",
"~. c #97A09B",
"^. c #B1B39E",
"/. c #A8AC9E",
"(. c #848AAB",
"). c #9D86A8",
"_. c #8396AA",
"`. c #8796A7",
"'. c #8B8EB5",
"]. c #8B95B9",
"[. c #9498BC",
"{. c #AB97BA",
"}. c #BF91B6",
"|. c #A488AD",
" X c #96A6B3",
".X c #AFB2A4",
"XX c #B0B3A2",
"oX c #CA9CBD",
"OX c #9B9EC9",
"+X c #AE9BC1",
"@X c #86ACC4",
"#X c #9CADCB",
"$X c #98ABC6",
"%X c #87B0C5",
"&X c #80B2C9",
"*X c #99B8CC",
"=X c #99AAD3",
"-X c #8DB1D7",
";X c #A6A7C9",
":X c #A7B3CB",
">X c #ABB4D7",
",X c #B1B4DC",
"<X c #B8BBD9",
"1X c #A9ACD6",
"2X c #93BEE9",
"3X c #B0B3E0",
"4X c #C8A8CB",
"5X c #E4B1D2",
"6X c #B3C2D9",
"7X c #BAC7E5",
"8X c #A8C7EC",
"9X c #C6C8E9",
"0X c #C9D9ED",
"qX c #DDDEFF",
"wX c #D6D8F5",
"eX c #CFD8F7",
"rX c #DEE0FF",
"tX c #DAEBFE",
"yX c #DFF3FF",
"uX c #E3E8FC",
"iX c #EAF0FF",
"pX c #E3F5FF",
"aX c #F6FCFF",
"sX c #F8FDFF",
"dX c #F5F7FF",
/* pixels */
"h h h h h h h h h h h h h h h h h h h h h h h h h h h h h h h h l h h h h h h h h h h h h h h h h h x h h h h h h h h h h h x h ",
"h h h h h h h h h h h h h h h h h h h h h h h h h h h h h h h h h h h h h h h h h h h h h h h h h h h h h h h h h h h h h h h h ",
"h h h h h h h h h h h h h h h h h f h h h h h h h h h h h h h h h h h h h h h h h h h h h h h h h h h h h h h h h h h h h h h h ",
"h h h h h h h h h h h h h h h h h h h h h h h h h h h h h h h h h h h h h h h h h h h h h h h h h h h h h h h h h h h h h h h h ",
"h h h h h h h h h h h h h h h h h h h h h h h h h h h h h h h h h h h h h h h h h h h h h h h h h h h h h h h h h h h h h h h h ",
"h h h h h h h h h h h h h h h h h h h h h h h f h h h h h h h h h h h h h h h h h h h h h h h h h h h h h h h h h h h h h h h h ",
"h h h h h h h h h h h h h h h h h h h h h h h h h h h h h h h h h h h h h h h h h h h h h h h h h h h h h h h h h h h h h h h h ",
"h h h h h h h h h h h h h h h h h h h h h h h h h h h h h h h h h h h h h h h h h h h h h h h h h h h h h h h h h h h h h h h h ",
"h h h h h h h h h h h h h h h h h h h h h h h h h h h h h h h h h h h h h h h h h h h h h h h h h h h h h h h h h h h h h h h h ",
"h h h h h h h h h h h h h h h h h h h h h h h h h h h h h h h h h h h h h h h h h h h h h h h h h h h h h h h h h h h h h h h h ",
"h h h h h h h h h h h h h h h h h h h h h h h h h h h h h h h h h h h h h h h h h h h h h h h h h h h h h h h h h h h h h h h h ",
"h h h h h h h h h h h h h h h h h h h h h h h h h h h h h h h h h h h h h h h h h h h h h h h h f h h h h h h h h h h h h h h h ",
"h h h h h h h h h h h h h h h h h f h h h h h h h h h h h h h h h h h h h h h h h h h h h h h h h h h h h h h h h h h h h h h h ",
"h h h h h h h h h h h h h h h h h h h h h h h h h f h h h h h h h h h h h h h h h h h h h h h h h h h h h h h h h h h h h h h h ",
"h h h h h h h h h h h h h h h h h h h h h h h h h h h h h h h h h h h h h h h h h h h h h h h h h h h h h h h h h h h h h h h h ",
"h h h h h h h h h h h h h h h h h h h h h h h h h h h h h h h h h h h h h h h h h h h h h h h h h h h h h h h h h h h h h h h h ",
"h h h h h h h h h h f h h h h h h h h h h h h f h h h h h h h h h h h h h h h h h h h h h h h h h h h h h h h h h f h h h h h h ",
"h h h h h h h h h h h h h h h h h h h h h h h h h h 4 f f h h h h h f 4 h h h h h h h h h h h h h h h h h h h h h h h h h h h h ",
"h h h h h h h h h h h h h h h h h h h h h h h h h f 3 / 4 h h h h 4 = ! f f h h h h h h h h h h h h h h h h h h h h h h h h h h ",
"h h h h h h h h h h h h h h h h h h h h h h h f f 6 L G.6 j h f h 5 ; `.Y j f h h h h h h h h h h h h h h h h h h h h h h h h h ",
"h h h h h h h h h h h h h h h h h h h h h h h f f l./.^.`.T 4 f h / ~.XX XW 4 h h h h h h h h h h h h h h h h h h h h h h h h h ",
"h h h h h h h h h h h h h h h h h h h h h h h f 4 - !.^.$.3 4 h f - *..X!.- 4 h h h h h h h h h h h h h h h h h h h h h h h h h ",
"h h h h h h h h h h h h h h f h s h h h h h h h f l @.R e.3 f f h 4 l.L l.6 h h h h h h h h h h h h f h h h h h h h h h h h h h ",
"h h h h h h h h h h h h h h h h h f h h h h h h f f 4 3 3 = 4 g 4 4 3 4 5 f h h h h h h h h h h h h h h h h h h h h h h h h f h ",
"h h h h h h f h h h h h h h h h h h h h h h h h h f f : - E I.*XG.L - 3 f f h h h h h h h h h h h h f h h h h h h h h h h h f h ",
"h h h h h h h h h h h h h h h h h h h h h f f s 4 4 5 z.%X XD.) D.%XU.) 5 4 4 4 h Y h h h h h h h h h h h h h h h h h h h h h h ",
"h h h h h h h h h h h h h h h h h h h h h s 4 4 ; n.*X@Xr.8.5.w.q.w.J.W.R.@.; 3 4 f f f h h h h h h h h h h h h h h h h h h h h ",
"h h h h h h h h h h h h h h h h h h s 4 4 4 T L.<XI.( ! <.5.2.t.u.w.9.( l.U.%XD.Y 4 4 4 h h h h h h h h h h h h h h h h h h h h ",
"h h h h h h h h h h h h h h h h f f 3 - ] [.<XL.~ T U ,.>.3.5.2.5.9.J J e.w.r.K.W.H./ - 4 f h h h h h h h h h h h h h h h h h h ",
"h h h h h h h f h h h h h h h f f 5 k.$X:Xb.p p Z x I I U :.>.<.8.7.J J r.u.s.q.e.H.R.U.( 4 s h h h h h h h h h h h h h h h h h ",
"h h h h h h h h h h h h h h h f 4 l.$X..t u p n m M A V.-X2X@Xz.7.7.7.c.E.0.s.f.f.q.q.J. X/ 4 h h h h h h h h h h f h h h h h h ",
"h h h h h h h h h h h h f h h f 3 l.N.9 u n n n m N C.=X*X:XpXiXC.A 6.6.6.8.s.d.d.d.f.q.U.W 4 h h h h h h h h h h h h h h h h h ",
"h h h h h h h h h h h h h h f f > l.M.9 b b b b p 9XiX]. .E M.uXrX~ U E.8.<.y.i.i.d.d.s.U.W 4 h h h h h h h h h h h h h h h h h ",
"h h f h h h h h h h h h h h h s : k.m.9 i b n u [.uX[ X.6XpXiXwX7Xz.! 2XK.K.2.t.i.p.p.w.U.W 4 h h h h h h h h h h h h h h h h h ",
"h h h h h h h h h h h h h h h f : k.m.9 y b b u uXN.%.sXsXsXsXsXaX0X@.$X-XQ.0.t.t.u.i.w.U.W 4 h h h h h h h h f h h h h h h h h ",
"h h h h h h h h h h h h h h h 4 3 g.b.9 i b b u qXa wXdXN.a P <XuXsXtX0X].-X5.1.t.t.u.4.U.W 4 h h h h h h h h h h h h h h h h f ",
"h h h h h h h h h h h h h h h f 4 g.v.q r y b y 1X` dXb.r i _ aX<X:X6XyX7X8X<.3.3.2.t.4.Y.W 4 h h h h h h h h h h h f h h h h h ",
"h h h h h h h h h h h h h h h f 3 @.b.q y < < y  . .9XK u u N.sXZ.[ wX(.=X9.U >.3.1.2.<.P.W 4 h h h h h h h h h h h h h h h h h ",
"h h h h h h h h f h h h h f h f 3 | b.q r r < b < B 1XZ.u i ;XuX_ ;X^ N Z c -.,.>.3.3.<.P.W 4 h h h h h h h h h h h h h h h h h ",
"h h h h h h h h h h h h h h h 4 3 @.b.O r y < < < y g.'.S y <X'.g.n m m k z x -.,.,.>.:.P.W 4 h h h h h h h h h h h h h h h h f ",
"h h h h h h h h h h h h h h h f 3 | %.O & r < y y y y b b r 3X{ i n n n m k Z -.-.-.>.6.P.] 4 h h h h h h h h h h h h h h h h h ",
"h h h h f h h h h h h h h h h f 4 } #.O & , < < < y y # y b Z.C b b n n m n m Z z -.x x _.W 4 h h h h h h h h h h h h f h h h h ",
"h h h h h h h h h h h h h h h 4 3 } #.O + # , , # r r y < y B S b b n n n n m m Z x x c `.] 4 h h h h h h h h h h h h h h h h h ",
"h h h h h h h h h h h h h h h f 3 } #.  + # # , r # r r y < < r i b y b b b n m n m Z l `.] 4 h h h h h f h h h h h h h h h h h ",
"f h h h h h h h h h h h h h f f 3 } ..  @ + # & X.<X1X,XC B <X>X,Xh.r 1X,X3XZ.n n m k N `.] 4 f h h h h h h h h h h h f h h h h ",
"h h h h h h h h h h h h h h h f 3 } &..   + + + v.;X..{ 0 V wX..h.p t wXh.h.C b n m v n `.] 4 h h h h h h h h h h h h h h h h h ",
"h h h h h h h h h h f h h h h 4 3 } +..   @ + @ v.9X'.N.+ V rX'.'.u t qX[.[.{ b n n b 2 `.] : h h h h h h h h h h h h h h h h h ",
"h h h h h h h h h h h h h h h f 4 R F.&.a     @ ..v.& & + B '.& r r r OXt i y i i i h.S.$XT 4 f h h h h h h h h h h h h h h h h ",
"h h h h h h h h h h h h h h h f f g 1 [ N.).=.o X * + + , , , , , , y y r i 9 F S.{.'.g.1 4 s h h h h h h h h h h h h h h h h h ",
"h h h h h h h h h h h h h h h h h f d 1 q F O.|.).' $ $ $ + # , , , i w i j.+X+XB.` 2 1 f h h h h h h h h h h h h h h h h h h h ",
"h h h h h h h h h h h h h h h h h h f g > 1 1 B ' ).oXA.w $ + % , % H S.4XS.o.B 1 3 g s f h h h h h f h h h h f h h h h h h h h ",
"h h h h h h h h h h h h h h h h h h h h f f s 1 9 D G A.4X|.K % ' +X4XA.G e r > f h h h h h h h h h h h h h h h h h h h h h h f ",
"h h h h h h h h h h h h h h h h h h h h h h h h d 1 < y a O.oX5XoXO.i i 1 1 d s f h h h h h h h h h h h h h h h h h h h h h h h ",
"h h h h s h h h h h h s h h h h h h h h h h h h h h h d r w D G D % < d s h f h h h h h h h h h h h h h h h h h h h h h h h h h ",
"h h h h h h h h h h h h h h h h h h h h h h h h h h h h d d < 1 1 d s h h h h h h h h h h h h h h h h h h h h h h h h h h h h h ",
"h h h h h h h h h h h h h h h h h h h h h h h h h h h h h h h h h h h h h h h h h h h h h h h h h h h h h h h h h h h h h h h h ",
"h h h h h h h h h h h h h h h h h h h h h h h h h h h h h h h h h h h h h h h h h h h h h h h h h h h h h h h h h h h h h h h h ",
"h h h h h h h h h h h h h h h h h h h h h h h h h h h h h h h h h h s h h h h h h h h h h h h h h h h h h h h h h h h h h h h h ",
"h h h h h h h h h h h h h h h h h h h h h h h h h h h h h h h h h h h h h h s h h h h h h h h h h h h h h h h h f h h h h h h h ",
"h h h h h h h h h h h h h h h h h h h h h h h h h h h h h h h h h h h h h h h s h h h h h h h h h h h h h h h h h h h h h h h h ",
"h h h h h h h h h h h h h h h h h h h h h h h h h h h h h h h h h h h h h h h h h h h h h h h h h h h h h h h h h h h h h h h h ",
"h h h h h h h h h h h h h h h h h h h h h h h h h h h h h h h h h h h h h h h h h h h h h h h h h h h h h h h h h h h h h h h h ",
"h h h h h h h h h h h h h h h h h h h h h h h h h h h h h h h h h h h h h h h h h h h h h h h h h h h h h h h h h h h h h h h h ",
"h h h h h h h h h h h h h h h h h h h h h h h x h h h h h h h h h h h h h h h h h h h h x h h h h h h h h h h h h h h h h h h h "
};
