/* XPM */
static char *_d09529b9b11474796950309e6e482d4Ax0y9f6Kaud1QUij[] = {
/* columns rows colors chars-per-pixel */
"64 64 248 2 ",
"   c #040305",
".  c #1C0101",
"X  c #1A0907",
"o  c #1A0B12",
"O  c #1B171A",
"+  c #0D100B",
"@  c #230101",
"#  c #2C0504",
"$  c #2C0A0C",
"%  c #280B07",
"&  c #340D05",
"*  c #350A0A",
"=  c #34140D",
"-  c #3B130C",
";  c #39180A",
":  c #270D12",
">  c #360E14",
",  c #261918",
"<  c #351413",
"1  c #3C1513",
"2  c #3C1A14",
"3  c #331D1C",
"4  c #381919",
"5  c #27120B",
"6  c #38241A",
"7  c #2F221A",
"8  c #1E1F23",
"9  c #281C24",
"0  c #381C25",
"q  c #391F31",
"w  c #2D2223",
"e  c #292527",
"r  c #352225",
"t  c #3B2425",
"y  c #34242B",
"u  c #3B2B2B",
"i  c #39272A",
"p  c #3B2832",
"a  c #383638",
"s  c #1E2020",
"d  c #42140D",
"f  c #461B0C",
"g  c #431613",
"h  c #451A15",
"j  c #491C16",
"k  c #451D19",
"l  c #4C1E1A",
"z  c #461619",
"x  c #501E1B",
"c  c #571F18",
"v  c #50160D",
"b  c #4B2215",
"n  c #46221B",
"m  c #4D201B",
"M  c #472817",
"N  c #50211C",
"B  c #552B1A",
"V  c #583619",
"C  c #4C2A12",
"Z  c #633A1A",
"A  c #491D25",
"S  c #561A28",
"D  c #4A2323",
"F  c #43242C",
"G  c #4C2B2C",
"H  c #462728",
"J  c #562929",
"K  c #4A322A",
"L  c #583726",
"P  c #4B2D34",
"I  c #462A37",
"U  c #552D33",
"Y  c #582A37",
"T  c #45333A",
"R  c #4B3438",
"E  c #543234",
"W  c #5B3333",
"Q  c #54323C",
"!  c #5C343B",
"~  c #593B38",
"^  c #612A2B",
"/  c #663A28",
"(  c #652C35",
")  c #64333C",
"_  c #6B333C",
"`  c #643836",
"'  c #743A35",
"]  c #764D1B",
"[  c #5A4430",
"{  c #694627",
"}  c #754B27",
"|  c #7B5729",
" . c #694837",
".. c #764935",
"X. c #6B5335",
"o. c #7A5536",
"O. c #6A512B",
"+. c #78673D",
"@. c #323946",
"#. c #592D43",
"$. c #483945",
"%. c #5C3243",
"&. c #583947",
"*. c #5B3B54",
"=. c #673747",
"-. c #733647",
";. c #673C57",
":. c #71334E",
">. c #384452",
",. c #274765",
"<. c #48474A",
"1. c #4B4B56",
"2. c #584C52",
"3. c #56555A",
"4. c #594649",
"5. c #644656",
"6. c #7C465C",
"7. c #6E504D",
"8. c #706653",
"9. c #585963",
"0. c #45596A",
"q. c #774462",
"w. c #645B65",
"e. c #785965",
"r. c #5C626B",
"t. c #5C6679",
"y. c #68666A",
"u. c #736869",
"i. c #686972",
"p. c #776A75",
"a. c #6C717B",
"s. c #76777B",
"d. c #75726D",
"f. c #87511F",
"g. c #85582C",
"h. c #865938",
"j. c #8B5130",
"k. c #98692C",
"l. c #886537",
"z. c #95683A",
"x. c #9A753C",
"c. c #8C6731",
"v. c #A66D34",
"b. c #A67939",
"n. c #B07A32",
"m. c #813D55",
"M. c #865C43",
"N. c #8B5051",
"B. c #896745",
"V. c #956848",
"C. c #9A7646",
"Z. c #906E52",
"A. c #A77A47",
"S. c #B37B45",
"D. c #A8754E",
"F. c #8F5570",
"G. c #877370",
"H. c #AC7C63",
"J. c #A75678",
"K. c #B48839",
"L. c #C99836",
"P. c #CD9731",
"I. c #D1AF39",
"U. c #9C8652",
"Y. c #A88447",
"T. c #B78849",
"R. c #BB9349",
"E. c #AC8455",
"W. c #BA8B55",
"Q. c #BA9455",
"!. c #AC9054",
"~. c #9B876A",
"^. c #9C957A",
"/. c #B1916C",
"(. c #BAA36B",
"). c #C38A47",
"_. c #C7974C",
"`. c #C69857",
"'. c #CD9750",
"]. c #D5A948",
"[. c #CAA557",
"{. c #D6A859",
"}. c #DAB557",
"|. c #D1AB47",
" X c #E1B558",
".X c #C89567",
"XX c #C8A667",
"oX c #D5AA66",
"OX c #DAB767",
"+X c #D9B875",
"@X c #CDAF71",
"#X c #E2BB69",
"$X c #E7C458",
"%X c #DCC274",
"&X c #E9C66A",
"*X c #EEC974",
"=X c #37679C",
"-X c #797B84",
";X c #46698E",
":X c #8B7C82",
">X c #7F838A",
",X c #85858B",
"<X c #898B94",
"1X c #8C919B",
"2X c #949598",
"3X c #948F8A",
"4X c #A5999B",
"5X c #AE9B91",
"6X c #B5AB92",
"7X c #999CA5",
"8X c #9393AA",
"9X c #A39CA7",
"0X c #9EA2A9",
"qX c #9AA5B4",
"wX c #A6A6AB",
"eX c #A9AAB4",
"rX c #ABB2B5",
"tX c #B3B4BC",
"yX c #BAB7BA",
"uX c #B3ADB0",
"iX c #CEB584",
"pX c #D0BFBD",
"aX c #D6C690",
"sX c #EACD93",
"dX c #D2CAB3",
"fX c #E2D2A2",
"gX c #BCBCC5",
"hX c #B5BAC5",
"jX c #B4B8C6",
"kX c #C0BAC4",
"lX c #BDC3C9",
"zX c #C5C7CC",
"xX c #CBCCD2",
"cX c #C7CAD4",
"vX c #D1CED5",
"bX c #CBD1D6",
"nX c #D5D5DC",
"mX c #D8D8DA",
"MX c #D2CACE",
"NX c #E5DDD0",
"BX c #EDE5D4",
"VX c #D9DBE3",
"CX c #E2DDE9",
"ZX c #DCE2E8",
"AX c #E4E5E9",
"SX c #EAEBF2",
"DX c #F5F7FB",
"FX c #EFEEF2",
/* pixels */
"- h h j j h h j j j f j h h g h h k h j g h h h h h h j j j g k d f h j h h j g h h g h g h h h h h h h h h g h h j h h h j j > ",
"k b l j l b l l j l l l l l N l l m j j l l l m l j j l l b v f l g A l l l l l l l l l l l l m l l l l l l l j l j j l j l x l ",
"l j j l j b j j l j m j l j l l l j m l l l l m l l l l l l l & /.B 1 l j l l l k j l l l l j j l l l l l l l l j l j l j j h l ",
"j l m j j m j m j m l l m m m l l j k l j l l j l l l j h d @ J *XV.. 1 l l l m l l k l l j m m l l j l l l l l j l l l m m m b ",
"l j l l j l m j j j l l l l j m k l j l l l l k l j j l d / z.b.K.`.} L h l l l l l l k l l l l m m m m l l x j l l l l l m b l ",
"l j l b l j j j m m j l j l j m m l m j k l l m m j j f B M.@X*Xn.&X}.E.@ l l l l l l l D l l l l l l l l l l x l l x l l l l l ",
"j j j j j j l l j m j j j m m l m l l m m m m l l m l k l @ C &X_.K.n.`. .= n j j m m l l l l l l l l j l l j j l x x l l l l m ",
"j j j j b l j j b j l l b j l m l m l l m l l l m j j k g V.}.&XK.|.'.).h.- l x l j k l l l l l m j l l l j x l x l l x l m l g ",
"j j k b l j j j l m m l l m m j l l j j j m b l l l m F # } '.n.v.).k.T...# h l A l l l l l j j l l l l j x j x l x x j x l j g ",
"j j j j j l j h j j j j j j m m j j m l j l m m k l - @ > 7.V.F. .7.4.4XdX3.= j l l l m l l j l l l j l x x x l x l l x j x l z ",
"j j j l b l j l l j j b l v g 1 g g * d j l j v l 1 ~ d.9.cXzXeXqX;X=X=X8X8XK = h m D - $ 1 l x k n j l l x x x l x x l l l l j ",
"j j l l j l l l k j j h m * f V d j / V - = 0 j b @ 9XVX0.@.t.1.9.t.,.,.>.@., 3 n < & / C.{ # * 1 ; k l l l l x l l l x x l j j ",
"j j m l l l l l j j k m & L T.T.V.S.{.}.W.C $ < - 4 T <.>.>.a 1.a + O e 8 y 4 A H 2 ...XW.{ V /.h.N ; - m m l l l l x x l l j g ",
"j j j j j j j j l j n - B +XOXR.k.f.v._._.c.L H H H ,   s.ZX>XeXi.s u ! 9 i 7. ./ h.j.z.* L oX).f.T.`.B 2 m m l j l m l l x j g ",
"j j j j j j j h j h z - V..XoXoXW.M.b o.g.j.o.[ K 8 O e tXmXlXnXjXa.$.P O 9 r  .! J ~ H L | f.j._.$X&Xo.& m j l l x l x x l j z ",
"j j j j j j l x j h 4 3 4 ` N.J  .H.M.W G P i u , O + 1.SXtX0X-X-X<X5.I 9 O s e R u , K O.V.D./ z.U.M X 4 z k v x j x l l l j j ",
"j m j j j b l j k h < s 8 O , , 3 5 7 H K r T I O O   ,XSX<X1XrX>Xi.5.Q 9 O e y u e , M.o.{ g.D.7.o 3 , O r h j m m b x x b j j ",
"j j j j j j l l h g 0 e e y 9 e y 9 s s y R T O u e   i.mXzXtX,Xi.-X$.&.y w e i R e s i ` k H./.6 *.T 9 O , z k j l l l l N l g ",
"j h j h h l h j - D I , P W W H p p 7 i 9 w 0 I y O O   2XrXr.a.t.1X<.$.T y i i E 6 o 9 I L N.~ Q ! 9 y 9 r D h b l m N N l l g ",
"j j h j j j j j * ( Q i ! ^ W J R i D R O y Q F , e e   >XbXa.>Xr.-Xr.T Q P K G ! E , 9 &.` -.Y =.D r R F &.k - j l b x x x l g ",
"j j h j h j h h d _ ) G ( _ =.) %.I ) G w T ~ &.$.9 e   r.VX>X1X-X0.a.w.U J U Q J r r r *.P Y -.) U K P ) ! F 1 h m m l l l m h ",
"j j l h j j h d d -.-.Y Y ( ) %.Y #.=.i i w F Q #.T e + ,XVX0XrXlX8X9.s.e.( ) %.;.=.W 4 $.;.Y J J J ^ _ W U i t h k m m x l l g ",
"j j j h j j j - g _ :.Y %.Q Y Q R Q 9 t 4.Q Q =.=.#.9 r.DXMXyXZXDXgX7.X.G.-.#.%.W ! R i 9 #.Y F E W =.U G E w 7 1 k m l l l l j ",
"j j j j j j j - z _ :.=.I 5.=.:.:.) K F : < 6 M M ` ` BXmX,XFXbXd.K B.Y.A.S...H D H , o , o #.6.5.;.I i W t u D 2 h l l x l l g ",
"j j j j j j h 1 J _ _ m.Y q I %.=.#.I 4 L ..M.D.C.V.B.NXuXwX<X<.w 8./.A.b.b.z.B.j.N.j...n I q.*.I q i %.G 7 E G K h m l l m l g ",
"j h j j j j g 1 J =.S -.m.F y O , 9 , H..XV...H 7 3 F P MX,XO mXvXMXMXuX/.`.).S.).S.S.'.D.> q y y I =.Q t e E H - h m l x l l h ",
"j j f l j j 2 1 Y Y Y ( :.m.q 9 y : k E.c n $.3.1.3.P U 7 <.nXxX7XlXZXi.8.R.'.'.'.'..Xn.z.. : u %.;.=.0 F u H U - k l m m m l g ",
"j j h j h l h 2 D J -.S #.q.q.I y r k Z.J _ I 7XqXwXP Q u.vX0X-X-Xy.SXrX<.C._.'.{.'.'.K.D.< P 6.m.:Xp r U K H < m k m m m m l j ",
"h j j j j h h h * _ ) ) #.;.q.q.0 + 6 Z.J Q p.0XhX2X~ 0 MXDXbXVXcXi.gXDXd.R.L.'.R.R.`._.v.D 6.F.:.:Xo 0 ` D E < m l N A m m m g ",
"f j j j l v j h 2 z J =.Q ;.#.:.q.0 6 Z.A w.ZXvXyX7X5.q <.jXa.eXhX3.>XSXu.g._.@XfXNX~.Y.).N.F.=.:.#.9 o ! H n n k l l x m m m g ",
"j j j l l j l j z - -.Q q :.=.0 ;.:.n M.^ =.6.2.yXyX2.I 4.@.9XgX<X7XhXjX<.X.dXNX6XuXkXB.W.F.%.9 #.! : : k W 2 k k m l N l m m h ",
"j j j j j k j j g J W 4 : Y =., o Y ..M.J ' D 5.mXxX2X$.0 2.-X-XtXDXDXjX@.^.FX^.@XXXdXZ.H.N.G w I =.< 4 ; n n k j l N m x l l g ",
"j j j j j h j h z f d = 4 1 J R 6 X A V.J ( _ ( G.VXcX2XyXmXlXxXAXVXFXcX<.mXyXXX$X&X6XZ.W.o._ U D J 1 k j k j l l x x m x N l h ",
"j j z j j j j j h h z f 2 - D J C.h.h h.W &.=.( G -XtXVXAXVXVXAXVXAXnX<Xd.AX^.OX|.%X4X@Xn./ N.;.> j g j l N l N x x x x l l l g ",
"j j g j j h z j l j k h h = 2 @ L `.n.V.4 2XSX&.A o y.vXrXcXZXzXxXVX,X-X^.AXd.%XOXBX2XW.v.L N.A 5 2 g k j l x x x x N N l l l g ",
"j j v j j j j j j j n f & K u u , Y.).j.p.gXbXG.e.p.w.rXnXwXlX2XzXcXs.:X6XBXs.OXsXZXzXV.S./ Y @ e K M 2 k l x x N l l N D N l j ",
"j j z j h j j j j z j & ..[ O Q K | S.o.2XwXwXcXSXCXgXcXrXlX<X-XtXgXs.w.fXBXuX~.fXdXjX/.n.' < 7 y D B.{ - l m b N N x x x N m g ",
"j j j j j j j h j j k & C.M X 4 ' z.} Z.G 7XnXlXlXVXCXAXqXZXr.>X0XeXwX<.~.(.mXs.H.~.&.B.L.j.X w 3 # / Z.& k m b x l x l x x l j ",
"j j j j j h j j j j j % Q.| . . B V.f V.H.i.>Xy.3.qX7XtXZXeXi.2XrXAXlX1Xu h G.MXp A A ..V.z.B.5 . . M.D.& k m l l l l x l l l g ",
"j h z j j j h j h j j % D.*XC.M.V.` $ j.Q.(.U.!.Z.1.[ G.8.[ 3XbXeXAXmXrX1.&.n 4XjXI P j.V.* E.E.h.h.W.V g m b l l x x l x l l j ",
"j j j j z j z k j j l 1 N T.b.O.K 9 X o._.#XOX#X&XXXXX+X(.iXNXzXeXvXFXwX3.2.Q p MX,X0 h.B.: O V B.h.V - k m b l x l l x x l A l ",
"j j j j j j j h j j k j = & = @ O y o o.oX{.OXOX%XXXOXOXaXAX>Xr.jXCXFXzXy.w.Q Y &.gX$.j.o.t T , % # d k m l l l l x l x l N l g ",
"j j j j j j h j j j k l k 2 4 3 w T F { [.OX}./.5XNX@X[.fXFXi.<.7XAXSX0X9.i.3.Q 4 9Xu.M...P #.Q w < j j l m l m l x l x x x l g ",
"g j j j j j h l j j k k j 2 , K ~ F F / T.oX$X6XgXbXdXiXdXDX>X<.1XFXAX0Xy.i.w.3.I 2Xy.j.^ F Y S W 4 2 l k m m m x l x l l l l h ",
"l l l j j j j j k j l k j - k ( Y Y P ` E.'.(.yXrX1XlXnXVXcXr.3.hXAXAXnXa I 4.2.3.p.T ` 6 i ! G -.D < l l l m m l l l l x l l g ",
"j j j j j j j l l l l b l - W _ -.I Y Y C.`.@X^.wXrXlXVXSX2Xr.1.vXAXSXkX<.Y J J P y ) ' 9 T ) u _ ' = j l l k l l l l l l m l g ",
"j k j k j j l l l l j j h l ^ S m.%.I 4 Z.S.#XOX^.BXdX3X2XAX1X@.3XDXDXmX,XP ( J ` n D. .q P =.P 1 ( N h l l l j l l l l l m k g ",
"j j j j j l l k l j l j k k * S J.( &.: n `.b.#X(.6XaX[.~.d.8.N.Y e.4XAXmXp.J / l h.`.* 0 =.;.=.2 - m j l l l k l l l m l m l h ",
"l j k l k j m j m m l k j l 1 J J.#.F q . C.b.`.+X+X&X].}.(.+XN.S _ z tXDX,XA ( C oX/ . #.:.6.) 2 2 k j l l l l l l l m l m h g ",
"l l l l l l l l m l l b m l z N #.N.0 i % # Q.c..X*X}.L.}.OXaX5XN.S :XAXeXQ ( B XXl.@ % Y N.:.A 1 l k l j j j l k j j j j m h h ",
"l l j l j l l j l m m m l k l - * m.%.r 6 = M Q.k.+XOX%X%X@X^.FXCX4XZXbX7.J x Q.E.% D = =.6.` 2 1 l j m l l l l l l l l l m h g ",
"l k l l l l m m l k j l l m k < b 8.) K B.l.B.l.`.c.*X}.|.%X~.uXDXCXSXvXe.j T.`.6 ~ `  .` J ~ h.- k j l x x l x l l N N m l j g ",
"j l k l l l m k l j l j l l 2 ; O.l.M X.X.B x.8.} {.k.OX{.'.aXy.<XzX9X4Xm b.oXM t K L  .L { @XiXC < A x l N x l x x x N l m h h ",
"l l l l l l l m m l m l l j 2 L +.u X.U.[ l.c.V @ h.`.g.`.&X+X7.0 p.p l S.{.j $  .g.k.T.g.{ W.#XY.& j l x x l x x b l N N m l j ",
"k l l l k l l l l m m l m j - L X.7 %Xb.; { { & 2 @ { '.g.E.sXZ.( F M `.`.v 1 : h.}.L.L.OX] c.K.{.o.- x l l x l b x l b N x j g ",
"l l m l l l m l l l m l m m j 1 . U.$X|.Q.l.5 X k n $ V '.v.S.M.v j.XXS.- 1 D < 2 I.P.P.}.[.] T.T.B g l x l l x x x l m x l j g ",
"x x x x l x l x l l l m l l m < C &XI.x.{ Y.Y.C # % 1 @ b S.T.j.W..X} # < > $ $ O.|.R.|.L.}.Y./ j - m m A x N N x x N x x N l g ",
"l j x l l l x l l l m l l m N # Y.$XK.| !.c.Y.Q.Q.| V 6 # @ { W.z.& . = b / c.Q.OXK.[ |  XP.}.V & m l N x x l x x l l x l N l j ",
"x j x l x l l x l l l l l l N - | &X| B.c.R.V O.l.{.Q.`.T.T.C.K.n.A.R.R.[._. XT.V g.X.M K.K.}.B 1 m l l x x l l m l N N x l m m ",
"x x l l x l x l l l l l l h l l # C.}.V Y.+.V U.l.C | | l.x.C.K.x.z.c.b.| V o.} `.A.X.X.c.oXo.= m x l N x x l N x x x l N m m l ",
"x l x l l l x l m x x j l l l l l # o.&X[.O.l.T.T.|  X} X.B.V A.g.Z.B O.l.C.C.[ l.o.B.Y.[.{ $ l N x m l l N N N x x x D l x m m ",
"j l l l l l l m m N x x l l x A m b # f x.XX_.T.] Y.|.Z Y.x.O._.k.A.C.[ X.o.{ T.b.l.`.z.- > m l m m m N N x l N x x x x x l l l ",
"l c l l l x l x l x l x l x N l j b D 1 % C g.Y.Y.[._.| }.f.b. X| c.| [.x.x.Y.R.Y.g.g # g n j m l m m l x l l x l l l l x l x l ",
"x l l l x l x l x N l l N x x l c b l l n 2 # % b Z z.T.K.W._._.T.Y.Y.Y.x.c.{ f * $ h m j b m m x x m N x x x x x l l l l l x x "
};
