/* XPM */
static char *result[] = {
/* columns rows colors chars-per-pixel */
"64 64 245 2 ",
"   c #090507",
".  c #181617",
"X  c #130D0A",
"o  c #291809",
"O  c #261C17",
"+  c #381D19",
"@  c #3A1805",
"#  c #38250A",
"$  c #2A231A",
"%  c #382717",
"&  c #3B3219",
"*  c #1B1D23",
"=  c #271E22",
"-  c #282628",
";  c #362826",
":  c #3A3428",
">  c #373738",
",  c #2B2C32",
"<  c #1F2127",
"1  c #431D14",
"2  c #452709",
"3  c #532B0B",
"4  c #4A320C",
"5  c #56370A",
"6  c #472A17",
"7  c #49371A",
"8  c #593918",
"9  c #552919",
"0  c #643D18",
"q  c #623C0C",
"w  c #462D27",
"e  c #493928",
"r  c #5B3C23",
"t  c #553925",
"y  c #433834",
"u  c #522D22",
"i  c #673A25",
"p  c #6C322B",
"a  c #5C421A",
"s  c #684509",
"d  c #754D0C",
"f  c #7B550D",
"g  c #78540B",
"h  c #694718",
"j  c #764A18",
"k  c #7C5413",
"l  c #77561A",
"z  c #6D541A",
"x  c #594428",
"c  c #464239",
"v  c #574836",
"b  c #564B35",
"n  c #6B4C2B",
"m  c #664725",
"M  c #734C23",
"N  c #754E2B",
"B  c #6B542A",
"V  c #785627",
"C  c #644933",
"Z  c #6A5337",
"A  c #7C5B32",
"S  c #775835",
"D  c #764A33",
"F  c #7B6239",
"G  c #7F611D",
"H  c #3C3C44",
"J  c #3C4246",
"K  c #454648",
"L  c #534E42",
"P  c #5A5549",
"I  c #4A4B53",
"U  c #57585A",
"Y  c #50515A",
"T  c #62594B",
"R  c #6D5A49",
"E  c #69624C",
"W  c #796548",
"Q  c #6A6558",
"!  c #746C59",
"~  c #77745D",
"^  c #5B5C65",
"/  c #5E6069",
"(  c #666769",
")  c #7A7563",
"_  c #7B7868",
"`  c #686A73",
"'  c #6E7177",
"]  c #78777A",
"[  c #736E63",
"{  c #5F5F60",
"}  c #845B13",
"|  c #845B1C",
" . c #865817",
".. c #84580F",
"X. c #8C631B",
"o. c #896318",
"O. c #92651B",
"+. c #946A1C",
"@. c #9B6C1D",
"#. c #956816",
"$. c #9E711E",
"%. c #97741C",
"&. c #89610F",
"*. c #A1731E",
"=. c #845C24",
"-. c #865928",
";. c #865B34",
":. c #965D2F",
">. c #8C6424",
",. c #89662A",
"<. c #956B23",
"1. c #9C6E22",
"2. c #966828",
"3. c #9E7122",
"4. c #997329",
"5. c #896839",
"6. c #976A37",
"7. c #987539",
"8. c #8A7335",
"9. c #A26D23",
"0. c #A27423",
"q. c #A67925",
"w. c #A87A26",
"e. c #A4762A",
"r. c #A67929",
"t. c #A97B29",
"y. c #AC712A",
"u. c #A46B33",
"i. c #A77938",
"p. c #B47A38",
"a. c #835A41",
"s. c #866B45",
"d. c #997846",
"f. c #987A55",
"g. c #8E724A",
"h. c #A77945",
"j. c #B07A4A",
"k. c #847C67",
"l. c #907B6C",
"z. c #9F813C",
"x. c #AB853C",
"c. c #B6883A",
"v. c #B99339",
"b. c #C4933C",
"n. c #D2993F",
"m. c #D1A23E",
"M. c #9B8754",
"N. c #A78648",
"B. c #B68846",
"V. c #B99647",
"C. c #AA8853",
"Z. c #B58B55",
"A. c #AD9456",
"S. c #B99658",
"D. c #AB9149",
"F. c #8A836B",
"G. c #968C74",
"H. c #918A74",
"J. c #AB976F",
"K. c #BBA76D",
"L. c #C89949",
"P. c #D29C47",
"I. c #C79B58",
"U. c #C28A4C",
"Y. c #CAA548",
"T. c #D6A44A",
"R. c #CAA657",
"E. c #D6A857",
"W. c #D9B556",
"Q. c #E3BA5C",
"!. c #C09B61",
"~. c #C9A966",
"^. c #CAB36A",
"/. c #D8B769",
"(. c #C6A972",
"). c #CDB576",
"_. c #D7B778",
"`. c #D4AD6E",
"'. c #E3BC68",
"]. c #E5BC73",
"[. c #ECC557",
"{. c #DBC466",
"}. c #E5C567",
"|. c #E9C778",
" X c #F4D87C",
".X c #F1CC6A",
"XX c #FEEC7C",
"oX c #797B86",
"OX c #7D828A",
"+X c #83868A",
"@X c #878A93",
"#X c #94959C",
"$X c #92918F",
"%X c #A89A89",
"&X c #A7A288",
"*X c #B5AC90",
"=X c #999AA4",
"-X c #8D93A1",
";X c #A09DA2",
":X c #9FA0A7",
">X c #A6A7AA",
",X c #A9ABB6",
"<X c #AEB1B9",
"1X c #B4B5BB",
"2X c #B7B5A9",
"3X c #C6BA96",
"4X c #C6BDAF",
"5X c #D9C99A",
"6X c #D4C492",
"7X c #E3CC97",
"8X c #E8D499",
"9X c #EDD68D",
"0X c #FDEB90",
"qX c #C8C3A6",
"wX c #D6CBA8",
"eX c #DCD2AC",
"rX c #D9D6B8",
"tX c #CCCAB4",
"yX c #E8D9A8",
"uX c #E4DBB6",
"iX c #F2DEB2",
"pX c #EED9AB",
"aX c #ECE3AF",
"sX c #F5E4AB",
"dX c #EDE2B5",
"fX c #ECE3BC",
"gX c #EAE6BC",
"hX c #F2E5BA",
"jX c #F7E7B7",
"kX c #DFE1B9",
"lX c #B7BAC4",
"zX c #BCC1C9",
"xX c #C8C7C8",
"cX c #D8D6C8",
"vX c #C7C8D3",
"bX c #D5D7D9",
"nX c #D1D0CD",
"mX c #E2DDCF",
"MX c #ECE7C7",
"NX c #F1EBC6",
"BX c #FEF3C6",
"VX c #EEEAD5",
"CX c #DCDDE5",
"ZX c #E6E4E5",
"AX c #F2F3F2",
/* pixels */
"#.*.*.@.0.0.0.0.*.0.*.@.*.*.*.q.*.*.*.*.*.*.q.*.*.*.$.*.9.9.@.$.%.@.+.#.%.3.4.*.$.0.$.*.*.*.*.*.*.*.*.*.3.$.3.$.3.0.0.@.0.0.0.@.",
"*.0.0.0.1.1.1.0.0.*.1.0.*.0.q.*.$.*.*.*.q.*.q.w.q.$.*.*.#.>.| g d k =.,.l +.*.0.r.0.0.q.*.*.q.*.w.w.*.*.0.t.3.$.3.3.%.3.3.0.3.3.",
"*.$.0.0.9.e.1.1.0.0.0.9.0.0.0.*.$.*.0.0.q.3.3.3.3.0.0.%.8.f.&XJ.&X4XcX4X%XV o.0.3.3.3.0.q.$.$.*.q.*.*.*.0.0.0.0.0.0.3.0.1.0.0.*.",
"@.3.0.1.3.9.0.0.1.0.1.e.0.q.0.0.0.$.*.0.3.$.$.q.q.$.+.<.M.Z +XxX,X+X` ,XzX%X5.<.3.3.0.$.$.*.*.0.0.0.0.$.0.t.0.0.0.3.3.0.3.q.q.0.",
"$.9.@.0.3.0.1.9.$.9.0.0.0.*.*.$.$.$.*.0.0.$.*.3.$.3.0.0.>.k m $X; 7 t : ] xXs.<.@.0.0.*.q.*.0.0.*.q.q.q.0.0.*.$.*.*.0.q.$.*.*.0.",
"@.$.@.0.9.1.0.0.9.e.0.*.$.9.9.0.0.0.0.0.3.q.w.t.3.q.0.9.4.g h 3X5.h a 7 &X&Xz +.0.0.q.0.q.q.0.0.0.*.0.$.@.@.*.*.*.9.0.0.0.0.0.q.",
"$.$.$.1.1.e.3.0.0.0.0.0.0.9.0.*.0.q.q.q.q.q.q.0.q.$.%.@.d 4.|.'.I.h.D C f.8 l <.1.@.*.*.0.*.q.0.0.0.$.@.*.*.q.9.q.0.q.0.0.q.q.0.",
"$.9.9.1.e.9.1.1.0.0.9.0.q.q.0.0.0.0.3.0.0.0.3.0.3.3.>. .S.I.:.p p p p p t u h ,.0.0.0.0.0.*.*.0.*.$.$.0.q.q.q.0.0.0.q.*.0.y.@.#.",
"$.*.1.3.1.1.1.0.1.e.0.0.9.1.0.9.0.y.9.1.1.@.9.1.9.@.| ;.a.9 + O + w w ; w w w ,.@.0.q.0.q.3.$.3.q.$.*.0.0.0.0.0.*.0.0.0.@.9.9.*.",
"@.@.3.1.9.0.1.1.1.1.@.@.1.0.1.0.@.$.0.0.3.0.0.0.0.o.=.8 1 w w > > = ; = $ $ % z O.e.*.0.$.$.$.q.q.q.0.q.*.q.0.q.w.0.0.q.0.w.9.#.",
"$.0.3.9.3.9.0.9.1.0.3.1.0.1.0.3.9.0.0.0.0.3.0.9.2.<.j 0 w #X:X,X-X. .   - w x C.X.4.0.e.q.q.3.0.q.0.*.*.q.w.0.0.y.*.w.q.0.0.0.q.",
"@.$.0.e.0.3.0.1.@.9.1.@.9.0.0.3.1.1.<.+.o.+.<.O.l 7.j.j.( AXlXlXlX` * I L w W ).k X.0.0.3.4.3.3.$.0.9.0.q.9.$.0.*.*.q.0.0.9.9.@.",
"@.9.9.3.1.0.3.3.9.1.@.3.3.3.| k | ..d } >.d d ,.h l /.B K AX=XOX/ ,X+XOX` x o # l | k X.X.o.>.&...&.3.q.0.w.q.0.q.*.q.0.$.0.@.O.",
"9.$.@.3.0.0.9.1.@.0.1.9.3.>.4._.7.j `._.~.L.h.j.z S.N.% lXAX,X-XoX,X-X+XOXC v e g.5.+.3.<.o.s i.}.4.o.3.w.0.0.*.9.*.q.w.0.y.0.@.",
"@.@.@.0.@.9.1.@.@.1.@.9.$.o.8.(.j _.6.3 3 i A r 3 d.v . AXAX,X=XoX/ ^ J @X+ W i R A `.B.D.}.Y.B.I.S.} $.0.9.*.9.*.*.0.0.9.q.9.3.",
"0.0.@.@.@.0.3.$.0.0.1.0.%.o.o.A d.6.m ~.I.:.A s.d.J..   $XZX` J I < ^ . - - C Z 6 t 6 6 r 5 j.p.j 8 >.3.q.r.t.q.0.q.0.0.0.e.@.1.",
"@.@.@.@.*.@.@.9.9.9.$.<.:.k 7.m 6.8.0XI.2.u.K.|._.7 ; O J vX] ` ] H ( J   c & B _.~.8 J.s.v 1 h.d.r =.1.0.q.9.*.q.0.*.0.9.q.9.$.",
"@.@.@.9.$.$.1.9.@.@.2... .s N 8 ;.S.E.-.`.:. .j.8 6 W . X xX:X( ] / Y ' . O Z a n n d.S n C w -.:.i k o.<.u.0.q.@.9.w.0.*.q.0.@.",
"#.@.#.@.@.@.O.1.<.>.d v.|.R.h t N B.j.0 d.D + + t (.e   . nXbX/ OX^ J ' Y   c W m m :.:.U.D 6 6.;.6 h o. . .2.0.q.w.0.9.0.q.9.0.",
"#.@.@.@.#.#.<.<.<.g V.}.R.E.R.i r V U.-.+ 9 u W _.V ; . 2XAX=X] -XOX> , ] > . x s.h.j.I.d.M g.A u V E.E.Q.2. .<.0.0.w.w.q.w.*.@.",
"@.@.1.@.1.<.2.2.l ,.R.v.i !.E.V 6 w =.P.U.i.!.Z.3 m S G.bXCX-X,X-X@XOXY > +X,   O e S W S W C u A .X=.2 I.I.d 2.e.t.r.q.0.q.0.@.",
"@.@.@.@.1.@.O. .s N.x.7.1 g.-.M R = ; r h m r D f.(.(.eXcX-X] $XvXAXbX#X' OX[ * . O $ $ % : w 2 B.[.5.X 5.7Xh d <.0.0.q.0.0.*.@.",
"$.@.@.@.@.2. .1.|.{.5.B.S 6 8 ~.x $ ; b l.J.wXNXjXdXjXuXVX1X@XCXCX_ 2XP OX*X> mX> ;X2X.   O s.j.4.,.8.m ^.N.5 4.| +.3.e.9.0.0.9.",
"@.9.0.1.1.2. .6.g.7.B.j 5.7./.A.% e O ! BXiXhXiXaXfXdXfXMX2XVXAX[ X MX! F.wXc BXc J.4X. :   g.j.B.V.-.j.,.3 W.I.7.o.3.0.0.r.q.@.",
"@.@.@.@.1.1.| V M D.9XI.V. XA.x W % $ F dXyXpXhXhXhXhXhXaXqXyXsX_ . gXQ F.qXy NXc &X2X. 7 & $ A.t S.W.k 8._.W.2.=.X.%.0.0.e.3.+.",
"@.@.@.9.@.@.O.j V './.B.7.m % c : $ & 5.BXgXuXhXhXdXdXaXdXgXfXeXtX> tX! k.wX> NXK %X6X. 7 a % S G.% D.|.}.R.N.;.h >.%.*.0.0.0.@.",
"@.@.@.1.3.3.+.X.h M V.A.W e e e b : 7 5.BXNXgXfXjXhXuXeXgXVXxXmXvX=XwX_ ~ eXy MXL G.qX$ 7 a 7 h.-.p o 7 V i.5.s -.1.w.w.0.t.3.1.",
"1.@.@.1.@.<.@.O.>.5 e x x r Z n s.# # 8.BXuXcXfXdXaXdXgXAXxXJ =X=XOXVX[ ~ eX: gXP G.qX. x a o d.L.x.F % t n a l <.0.q.q.q.q.0.@.",
"@.@.@.1.@.@.1.2.k ,.A N N.B.g.& d.F ,.F BXtXcXMXaXaXMXZX>X,X] - oX=X$XU ! wX: dXP F.qXO & 4.B ;.n /.W.R.6 % z X.1.0.w.w.q.q.r.@.",
"@.@.@.9.0.@.2.O.o.N.j `.,.U.s.X C. X^.S NXcX<X2XjXeXVX#XOX:XK K / ( OX] ~ wX: aXT F.5X. t /.S.m u ~.{.~.~.4 8 ,.1.q.y.w.q.e.9.@.",
"@.@.@.1.1.u.@.f 7.B 7.].6 A.C X m V.V B sXMX=XU gXMXnXOX-XOX> :XAXoXY K &XwX: uXT k.wXO x B @ g.F B f.5 [.Y.7 h 1.3.0.w.0.r.e.@.",
"@.1.1.1.1.1.<.f z.M L.^.o K.R 7 9X[.s S jXaXxX> L 4XxX=X>XOX+XI ,XlX#X( ] qX: eXE ) wX- # B A.E.Z r m n .XT.;.4 2.4.0.0.0.q.0.9.",
"9.9.1.1.1.1.>.} Z.-.W.,.O 8.).x R.m.7.B sXyXbXOX* ( CX,X,X-X:X/ < J >X1Xl.G.c uXE _ wX$ # A.'.B.2 6.D 8 Y.W.2.6 ,.4.x.*.*.*.*.*.",
"@.@.O.1.1.@.X.} S.j /.z C 6 A.(.d.W.| S jXyXVX2X- Y bX@X-X:X>X>XoXH U ] L rX: eXQ ) eX- 7 m m ;.h.s.r -. .Q.V 6 ,.3.*.*.*.*.*.@.",
"@.@.@.1.1.1.O.d I.j i.h.i f.2 s.Z.7.5 8.8X|.5XcXI * ,XlX=X,XlX<XlXlX( O Q uXw eX) ~ eX; e a O Z h.x _.:.p.N.% 8 <.0.w.z.w.q.w.*.",
"@.@.<.1.1.1.@.d i.C.0 I.d 6.Z.6 A a # g.jX7X8XNXxXY @XlXOX/ U OXvXvXvXY y tX& wX! E wX. 7 5 h x 6 (.E.j.d.9 y a 4.q.q.w.q.w.q.$.",
"O.@.O.@.@.@.O.=.s ^.j 7.}.3 5.e a K.a b ~ uXK.G.rX>XxXlX@X- -XOXzXvXbX>XO Q &X6X*XJ.5XG.# z.N.+ Z N.~.7 # Z t M #.*.*.*.$.z.*.#.",
"@.@.@.9.<.@.<...7.0Xh.8 N.f.6 ; X R.M.$ . cX( c tXCXxX( , / +XJ lXzXzX,XU - 3XaXpXsXaXeXF |.7 f.M Z.;.r S h.5 l 3.*.c.c.*.q.c.#.",
"@.@.O.9.1.3.4.o.<./.d.S @ 8 5.w x }.A y - qX2XxXxXvXH . { qXJ < Y zXzX<X=XI b yX8X8XsX5Xd.5.+ 5.R.y.6.f.0 E.R.k +.0.*.*.*.*.*.#.",
"@.@.O.@.1.1.@.+.} l j l 4.0 0 (.n S.x L - 3X2X#X{ > k.K _ kX$ ( / OXlX<X<X' - *X8X7XaX5XF C # 8 B.u.V.5 8 7.6.| @.0.*.*.*.*.c.*.",
"O.@.@.1.1.<.1.@.<.|  .Y. X_.2 a.Z 5.A e , gXQ P rX$ VX[ H.rX> >XoX=X<X<X1X@X, [ iX8XyX7X5.9 N E.u. .-.-.h h l +.3.r.q.*.w.w.q.*.",
"@.@.@.1.1.@.<.1.<.} 4.W.7.Z 4 # n |.V.y > rX_ ~ kX: qXxX1XzX=X' I vXlX<X1X@X* P iX7XyXyXS.2 N.R.j 6.I.7.;.k 4.3.3.q.*.w.q.q.*.@.",
"@.1.@.1.1.1.9.@.1.d s ].7.@ a h ^.Q.L.x , kX_ Q rX: rX$X< > / J J lXvX,X,X' ( L eX8X8X8XK.0 /.R.N 8Xi.,.B.k <.%.q.q.w.w.0.0.*.@.",
"9.1.1.9.3.9.1.+.o.V.l s A.D.N.d.b.m.S.% , kX_ ~ uXy gXQ [ F.* J - $XCX:X,X+X&XR 4XyX7X9X(.s c.i.V.}.D.6.-.q +.%.3.3.$.*.0.0.*.@.",
"0.@.@.3.0.0.@.<.d z.[.t.3 V.n f.L.V.d.= : gX_ ~ uX: MXR F.NX, y qXtXbX1XvXY k.K.J.pX7X|.V.4.b.b.Q.Y.x.0 2 z.z.o.3.3.$.q.0.0.1.O.",
"@.@.+.@.3.1.$.4.=.8 S.[.x.a s.B t h f.O > rX) ~ uX: gXQ _ rX- Q cXmXbX,X` > 3XyX(.8XpX!.c.'.W.b.v.R.0 h ^.XXs l 1.0.0.0.3.0.1.O.",
"@.@.@.1.1.1.%.1.>.h i B.}.7.m x ; t N.8 & aX~ _ eX: MXT k.wX] vX#X' ^ > T wXpX5X8XpX3X2 P. Xx F I.j c.[.XXN.3 A 2.3.0.*.0.e.0.9.",
"0.0.3.1.3.0.3.1.<.z 2 8 B d.v r s.r h.V 4 3X_ F.eX: uXE F.qX$XU ; F.&X3XaX8X7X7X8XuXw 2 v.|.& 7 0 7.Q.[.D.t a >.1.3.0.0.0.e.@.<.",
"0.0.3.0.0.3.3.3.X.z M.C 7 6 x r m 8 S.o.h V b H.eX: fXT F.wX$ [ pXpXsXsX7X8X5X7XsXP 8 h X.I.4 C.i.C 5.S % % l X.4.q.*.*.$.0.O.@.",
"0.0.3.9.3.0.1.1.k K.8X^.V A.M.k.+ N E.z l z # G.wX: dXT k.eX- P iX9X8X7X7X7X7XhXT # B m s S.8 h.W.S.Z % W 8.d +.%.*.*.*.0.q.1.@.",
"0.0.3.0.3.3.3.+.>.yX8.F K.N.@ # 0 R.N.o & z # W eX: dXT k.eX- T pX8X8XpX7X8XeXc   & 7 # A N.B r B.Q.^.D.XX{.3.&.q.q.q.w.q.q.1.9.",
"$.0.3.3.3.3.3.3.k 9X^.# &X5Xz.i.R.L.).e X c a.Z.M.e NXP F.wX- E jX8X6X7XsXwX&   v w   g.9XV S.o 6 C M.0Xz.7.Y...4.0.q.w.0.q.@.1.",
"9.0.3.0.3.0.q.3. .>.}.Q.8.x.L.T.Y._.|.D.$ . e h.j 8 5XE F.wX$ P pX7X7XjX*X% & B f.p 0 E.0XA.F K.% b G.Z # {.z.&.*.x.w.q.0.q.0.q.",
"$.@.q.0.3.3.3.q.3...f x.P.P.v.~.|.Q.y.j.i.i e 8 z M ,.t G.rX- Q pXsXsXk.# B l q j u.U.:./.0XF F ^.8.l F {.v.f 3.*.*.*.*.q.w.$.$.",
"0.0.0.*.0.0.3.$.q.3.+.k k s M.9XI.u.-.h j.j.6.h d V =.z s.*X; Q BX3Xv 2 l d d 1.P.j.D i u..X0X8.s x.V.V.%.g 1.3.q.*.q.q.r.q.@.+.",
"*.0.0.0.0.*.$.3.3.3.2.3.1.o.,.R.9.D 8 s.9 :.p.B.4. .d j s 5 & E ) o 4 d k y.U.L.u.V M i :.9.[./.d f f &.o.z.w.w.w.*.w.q.0.q.3.@.",
"$.3.3.3.0.q.*.q.q.$.$.q.q.r.X.-.4.0 5.m d.d.z u.B.Y.b.c.r.o.>.V a X.t.U.P.P.u.;.8 ;.d.0 u.y.c.| #.*.*.*.*.c.*.c.x.*.*.c.*.x.*.%.",
"$.q.q.3.0.*.*.*.w.w.*.*.*.3.1.f 6.E.2.-.I.j I.M ;.M t.U.L.T.T.T.E.T.L.c.e.-.;.6.N.0 U.:.u.L. .o.$.c.*.#.*.*.*.*.c.*.*.c.*.*.*.*.",
"0.q.q.r.q.0.0.q.*.*.$.q.0.e.e.O.k e.L.L.2.-.,.i.d.m g.M S A e.p.M 5.V x ;.n Z.>.B.j i.E.v.f >.q.*.x.*.c.*.c.c.*.*.x.*.*.c.*.*.c.",
"0.3.3.q.*.0.*.0.q.3.q.$.@.0.0.4.<.k O.L.I.-.-.x.M 6.D.8 7.7.u.P.V G B.N h.p.V ,.e.P.L.4.g <.0.0.x.*.*.x.*.*.#.x.*.*.x.*.*.*.x.*.",
"*.q.*.q.@.*.0.q.w.q.q.q.$.*.*.t.q.3.&.} t.I.T.c.e.T.O.6.L.2.h.p.A 6.j.j N.n.u.x.m.w.f o.#.*.c.*.*.x.*.*.*.*.x.*.c.*.*.*.*.x.*.*.",
"*.*.q.*.q.0.0.*.0.q.0.q.0.0.w.w.w.*.3.4.| } 0.L.T.P.c.U.P.-.-.-.=.| p.i.U.m.P.x.&.f +.4.*.*.*.*.*.*.*.c.*.c.*.*.#.*.x.*.*.*.*.x.",
"*.*.*.w.q.q.0.q.w.q.q.q.w.w.w.q.*.q.q.e.3.<.X.} O.q.b.b.b.Y.V.L.L.Y.L.v.t.O... .#.z.*.c.x.*.c.*.*.c.*.*.*.*.*.*.*.*.c.*.*.*.*.*.",
"+.*.*.q.0.0.*.9.0.0.q.q.q.*.q.*.*.q.q.q.q.3.3.2.X.......o.+.#.#.o.o.} } k X.1.$.*.*.*.*.*.*.*.*.*.*.#.c.*.c.*.*.c.*.*.*.*.*.x.*."
};
