/* XPM */
static char *_21a53fb421b485b84168b412a710742gpMrT8I9ytEbMGcB[] = {
/* columns rows colors chars-per-pixel */
"64 64 123 2 ",
"   c #00001C",
".  c #000225",
"X  c #00042D",
"o  c #030A2D",
"O  c #0B0C2C",
"+  c #09122F",
"@  c #000632",
"#  c #010B34",
"$  c #080E30",
"%  c #000539",
"&  c #050D3B",
"*  c #080F3B",
"=  c #0A1135",
"-  c #04113D",
";  c #0B143C",
":  c #0D193E",
">  c #141435",
",  c #13163B",
"<  c #121A3D",
"1  c #000C40",
"2  c #041241",
"3  c #0A1542",
"4  c #071846",
"5  c #0D1943",
"6  c #0E1949",
"7  c #121B45",
"8  c #181C41",
"9  c #131E4A",
"0  c #1C2244",
"q  c #14214B",
"w  c #1B244B",
"e  c #1F2A4A",
"r  c #1B2551",
"t  c #1E2952",
"y  c #252547",
"u  c #22274D",
"i  c #242A4D",
"p  c #292F4F",
"a  c #222653",
"s  c #242C53",
"d  c #292F54",
"f  c #272E5A",
"g  c #2A3356",
"h  c #26315A",
"j  c #2C345C",
"k  c #303658",
"l  c #353C5D",
"z  c #383E5E",
"x  c #343C64",
"c  c #393D62",
"v  c #343D68",
"b  c #3B4165",
"n  c #36426A",
"m  c #3C446D",
"M  c #3E4969",
"N  c #434262",
"B  c #444A6D",
"V  c #4E4F6E",
"C  c #444C72",
"Z  c #454E79",
"A  c #484F79",
"S  c #4B5374",
"D  c #4B547C",
"F  c #525774",
"G  c #52567C",
"H  c #52587D",
"J  c #5A5A7C",
"K  c #4F5B83",
"L  c #545C83",
"P  c #5A5D80",
"I  c #5C6386",
"U  c #5C648C",
"Y  c #5F6891",
"T  c #64668A",
"R  c #62698E",
"E  c #716E8D",
"W  c #626993",
"Q  c #636B94",
"!  c #6B7195",
"~  c #69729B",
"^  c #6E769C",
"/  c #797897",
"(  c #75789B",
")  c #727B9C",
"_  c #70789F",
"`  c #787998",
"'  c #747CA2",
"]  c #777EA8",
"[  c #7A80A4",
"{  c #828AAE",
"}  c #8287B1",
"|  c #838CB4",
" . c #8C97B5",
".. c #8490B8",
"X. c #8B95BC",
"o. c #9699BC",
"O. c #919ABE",
"+. c #8F98C1",
"@. c #929BC4",
"#. c #99A2C3",
"$. c #9AA1C6",
"%. c #9EA7D0",
"&. c #A3ACC9",
"*. c #A7ACD2",
"=. c #A7ACD4",
"-. c #ACAFD2",
";. c #ABB5D9",
":. c #B2B1D1",
">. c #B2B6DB",
",. c #B2BADF",
"<. c #B7BCE2",
"1. c #B7BFE6",
"2. c #B7C1E4",
"3. c #BDC2E0",
"4. c #BEC6ED",
"5. c #C1C6E3",
"6. c #D7D4F3",
"7. c #E8E9FF",
"8. c #E9EDFF",
"9. c #EEEEFF",
"0. c #ECF7FF",
"q. c #EEF8FF",
"w. c #FCFBFF",
/* pixels */
"& * # & & % * % & & % * & * & & - - - - - - - - - - - - - - - - - - - - - - - - - - - - - - - - - & - & & & & & & & & * % * * @ ",
"& % % & * * * & & & & & & & 2 & - - - - - - - - - - - 2 - - - - - - - - - - - - - - - - - - - - & - - & & & % & & # % & * % * * ",
"* % & * & % & * % & & & & * - * - - - - - - - - - - - - - - - - - - - - - - - - - - - - - - - - 2 & & - & & & & & & & & @ * @ * ",
"* * % * * % * & * & & * - - 1 - - - - - - - - - - - - - - - - - - - - - - - - - - - - - - - - - - - 2 & & & & & & & & & * * % & ",
"* % % * * * & & 2 & & - & & - - - - - - - - - - - - - - - - - - - - - - - - - - - - - - - - - - - & - & - & & & & & * & * % * & ",
"# * & * * & & * * * - & - - * - - - - - - - - - - - - - - - - - - - - - - - - - - - - - - - - - - 2 - - - & & & 1 & & & & * & & ",
"& & & & & * & & * 1 2 - - - - & - - - - - - - - - - - - - - - - 2 - - - - - - - - - - - - - - - - ; 2 - & - & & * * * & * & * % ",
"& * * & & & * & - - & - - - - - - - - - - - - - - - - - - - - - - - - - - - - - - - - - - - - - 2 - - - - & - & * * * * % * * * ",
"& & & & & & & & - - - - - - - - - - - - - - - - - - - - - - - - - - - - - - - - - - - - - - - - - - - - - - - - 1 * 1 * * & & % ",
"& & & & & & - - 2 * - - - - - - - - - - - - - - - - - - - - - - - - - - - - - - - - - - - - - - - - - - - - - - 1 & & * & & & & ",
"& & & & - & - - - - - - - - - - - - - - - - - - - - - - - - - - - - - - - - - - - - - - - - - - - - - - - - - - * * * & & & & & ",
"& & & & - & - - - - - - - - - - - - - - - - - - - - - - - - - - - - - - - - - - - - - - - - - - - - - - - - - - 1 * 2 * & & & & ",
"& & - & - - - - - - - - - - - - - - - - - - - - - - - - - - - - - - - - - - - - - - - - - - - - - - - - - - - - 2 - - & & & & & ",
"& & - & - - - - - - - - - - - - - - - - - - - - - - - - - - - - - - - - - - - - - - - - - - - - - - - - - - - - - - - 2 & & & & ",
"- & & - - - - - - - - - - - - - - - - - - - - - - - - - - - - - - - - - - - - - - - - - - - - - - - - - - - - - - - - & & - & & ",
"& - & - - - - 4 - - - - - - - - - - - - - - - - - - - - - - - - - - - - - - - - 2 - - - - - - - - - - - - - - - - 3 - - - & - & ",
"- - - - - - - - - - - - - - - - - - - - - - - - 2 & 2 & - 3 o - 3 * & # 9 # - - 2 - 2 - - * - - - - - - - - - - - - - - - - - - ",
"- - - - - - - - - - - - - - - - - - - - - - - - 2 3 4 3 & # 9 : * @ * & & 3 & - 2 2 - - * - - - - - - - - - - - - - - - - - - - ",
"- - - - - - - - - - - - - - - - - - - - 2 - - - - @ - - 9 @ o # > % w 5 @ & - - - - 2 - - * * - - - - - - - - - - - - 2 - - - - ",
"- - - - - - - - - - - - - - - - - - - - - - 2 - & w # - . t . , > $ @ o 7 5 4 # 2 - - - & - * - - - - - - - - - - - - - - - - - ",
"- - - - - - - - - - - - - - - - - - - - - - - - # ; - ; o c o.-.H O = o - # # 4 - - - - 2 - * * - - - - - - - - - - - - - - - - ",
"- - - - - - - - - - - - - - - - - - - - - 2 - - - * . s u ` 9.V 0 B $.M + : o - - - - 2 & * * 2 - - - - - - - - - - - - - - - - ",
"- - - - - - - - - - - - - - - - - - - - - - - - ; # , >.y > N O 0   &.0.g . r # - - - - * 2 * - - - - - - - - - - - - - - - - - ",
"- - - - - - - - - - - - - - - - - - - - - - - - * ; C P O > E / F S z  .M ; : # - - - - - * 2 - - - - - - - - - - - - - - - - - ",
"- - - - - - - - - - - - - - - - - - - - - - - - 3 o < G > N 6.w.5.+ + < e e o - - - - - - - * 1 - - - - - - - - - - - - - - - - ",
"- - - - - - - - - - - - - - - - - - - - - - - - 5 # R 8.T N :.7.3.p + p I . : - - - - - - - * - - - - - - - - - - - - - - - - - ",
"- - - - - - - - - - - - - - - - - - - - - - - - @ 9 L ,.; > J ` l z ) 3.;.o : - - - - - - & 2 2 - - - - - - - - - - - - - - - - ",
"- - - - - - - - - - - - - - - - - - - - 2 - - - - # s u d < N . O o R q.K 5 o - - - - 2 - - * & - - - - - - - - - - - - - - - - ",
"- - - - - - - - - - - - - - - - - - - - - - - - 3 - # ; ~ 1.*.8 $ 8 A u : @ 3 4 - - 2 - - - - = - - - - - - - - - - - - - - - - ",
"- - - - - - - - - - - - - - - - - - - - - - 2 - - # 9 X D %.4.f K *.W * : q @ 3 - - - - - - ; - - - - - - - - - - - - - - - - - ",
"- - - - - - - - - - - - - - 2 - - - - - - - 2 2 4 # - 9 # 9 h 5 L a 3 3 2 @ 3 - 2 2 - - - - - - - - - - - - - 2 - - - - - - - - ",
"- - - - - - - - - - - - - - - - - = - - - - - - - 2 4 @ 3 @ r v f * ; % 3 5 # 4 2 - - - - & - - - - - - - - - - - - - - - - - - ",
"- - - - - - - - - - - - - - - - 6 @ 3 & 6 # - 3 6 X ; 7 x m [ ; A W v 9 * * 2 - 3 @ - 3 # # r @ & - - - - - - - - - - - - - - - ",
"- - - - - - - - - - - - - - - - @ - & o & 5 @ & * 7 * a v m } j L a W g - ; o - ; - - - 2 5 o & 2 - - - - - - - - - - - - - - - ",
"- - - - - - - - - - - - - - - - 6 @ 9 9 # & 6 - * X * 8 D ~ j b A C P ; ; * * 8 # - @ & - 6 & 2 - - - - - - - - - - - - - - - - ",
"- - - - - - - - - - - - - - - - & # X & - x q q , * # # ; j ; ; * d w # ; ; ; # 7 r 5 6 # @ 6 # - - - - - - - - - - - - - - - - ",
"- - - - - - - - 2 - - - - - - - - 5 3 # [ m h [ X.8 $.j U L ,.w &.] ' x ( | B X.L Q W r 9 @ & - - - - - - - - - - - - - - - - - ",
"- - - - - - - - - - - - - - - - @ o : @ +.e t @.@.9 ' ] L $.O.e o.k { C Y ) C D } B @.m @ 2 r @ - - - - - - - - - - - - - - - - ",
"- - - - - - - - - - - - - - - - - q . 3 t K s h x h 0 C s e l : l O k O l d w 7 j f A @ 7 3 X 5 - - - - - - - - - - - - - - - - ",
"- - - - - - - - - - - - - - - - - ; - ; # - o : o = Z : H e K p B p B S I p o ; * & * 3 3 @ 5 - - - - - - - - - - - - - 2 - - - ",
"- - - - - - - - - - - - - - - - - - + - - - - + - + _ h O.b [ ! I c R ! X.g 7 o & * - - - - - - - - - 2 - - - - - - - - - - - - ",
"- - - - - - - - - - - - - - - - - + - - + - - - - : t w w = , < , < u = s s s ; - = = * : - - - - - - - - - - - - - - - - - - - ",
"- - - - - - - - - - - - - - - - - - - - - - - - - = # - # = - - ; 5 = o o ; 3 # - = - - - - - - - - - - - - - - - - - - - - - - ",
"- - - - - - - - - - - - - - - - - - - - - - - + - # : # q - < * ; & @ 7 3 # o - - - - - - - - - - - - - - - - - - - - - - - - - ",
"- - - - - - - - - - - - - - - - - - - - - - - - - - 3 - : - # @ # & 1 & & 2 2 - - - - - - - : - - - - - - - - - - - - - - - - - ",
"- - - - - - - 2 - - - - - - - - 2 2 2 - - - - - & & 3 - 3 - 3 3 4 3 6 1 2 & 3 & - - - - - - + - - - - - - - - - - - - - - - - - ",
"- - - - - - - - - - - - - - - 2 2 2 2 2 2 2 - - 3 & 6 @ 4 @ 3 & 1 % 1 1 6 & & 2 - - - - - - - - - - - - - - - - - - - - - - - - ",
"- - - - - - - - - - - - - - - - 2 2 2 2 2 - 2 - & - - 3 & 3 - - 1 4 1 3 1 3 2 - - - - - - + - - - - - - - - - - - - - - - - - - ",
"- - - - & 2 - - - - - - - - - - - 2 - - - - 2 - - - - - - - - - - 2 - - 2 - - - - - - - - - - - - - - - - - - - - - - - - - - # ",
"- - - - - - & - - - - - - - - - - - - - - - - - - - - - - - - - - - - - - - - - - - - - - - - - - - - - - - - - - - - - - - & - ",
"& - - - - - - - - - - - - - - - - - - - - - - - - - - - - - - - - - - - - - - - - - - - - - - - - - - - - - - - - - - - - & & # ",
"- - & & & & - 2 - - - - - - - - - - - - - - - - - - - - - - - - - - - - - - - - - - - - - - - - - - - - - - - - - - - - - & & & ",
"& & & & & & - * - - - - - - - - - - - - - - 2 - - - - - - - - - - - - - - - - - - - - - - - - - - - - - - - - - - & & & & & # & ",
"& & & & & & - & - - - - - - - - - - - - - - - - - - - - - - - - - - - - - 2 - - - - - - - - - - - - - - - - - - & - & & & & # & ",
"& % & & & - - 2 - - - - - - - - - - - - - - - - - - - - - - - - - - - - - - - - - - - - - - - - - - - - - - - - & & & & & & & @ ",
"& & & & & & - * - - - - - - - - - - - - - - - - - - - - - - - - - - - - - - - - - - - - - - - - - - - - - - - - & & & & & & % & ",
"% * % * * 3 1 * - - - * 2 - - 3 - - - - - - - - - - - - - - - - - - - - - - - - - - - - - - - - - - - - 2 * * 1 & - * & & * & & ",
"1 * * * * * * * - - * - 2 - - - - - - - - - - - - - - - - - - - - - - - - - - - - - - - - - - - - - - - * 1 * * & & & & * & & * ",
"* * * * * * * 3 - - - - - 2 - - - - - - - - - - - - - - - - - - - - - - - - - - - - - - - - - - & 2 * - & 2 3 * & 1 * & * * & & ",
"* % * * 1 * 1 * - ; - - * * ; 2 - - - - - - - - - - - - - - - 2 - - - - - - - - - - - - - - - - * - - 2 & * * * & & & * & * % & ",
"% % * * * * & * * 2 * * - & 2 - - - - - - - - - - - - - - - - - - - - - - - - - - - - - - - - - - - * - * * 3 1 & * * % % % & & ",
"* * % * & & * 1 * & * * & - * - - - - - - - - - - - - - - - - - - - - - - - - - - - - - - - - - & 2 - 1 1 * * * * & * * * & & & ",
"* * * * & & & * & & 1 - - & 2 * - - - - - - - - - - - - - - - - - - - - - - - - - - 2 - - - - - 2 * - - 2 * * * % * % * * % % * ",
"* % * % * * 1 * & & & & & & - & - - - - - - - - - - - - - - - - - - - - - - - - - - - - - - - - * - * - * * * * * % * * % * @ * "
};
