/* XPM */
static char *_1dc628e171e47ace64bdabec9311e2bt5E78sg4HnlA7XPe[] = {
/* columns rows colors chars-per-pixel */
"64 64 240 2 ",
"   c None",
".  c #160C04",
"X  c #1C0D03",
"o  c #160904",
"O  c #1B1106",
"+  c #1E120A",
"@  c #161009",
"#  c #230D04",
"$  c #2D0E06",
"%  c #221205",
"&  c #2A1406",
"*  c #25160A",
"=  c #2B1509",
"-  c #25180D",
";  c #2D1A0A",
":  c #2F1E02",
">  c #351A04",
",  c #3A1D04",
"<  c #331B0B",
"1  c #3B1F09",
"2  c #331505",
"3  c #311D12",
"4  c #352105",
"5  c #3D2205",
"6  c #362409",
"7  c #3D2409",
"8  c #3E290B",
"9  c #3C2807",
"0  c #2B2016",
"q  c #3B2311",
"w  c #3A2912",
"e  c #461D05",
"r  c #421E11",
"t  c #432405",
"y  c #4A2504",
"u  c #452A06",
"i  c #4B2B05",
"p  c #42250A",
"a  c #4B240A",
"s  c #452A0C",
"d  c #4B2C0B",
"f  c #512E06",
"g  c #532D0B",
"h  c #5A2808",
"j  c #4E3004",
"k  c #4D310D",
"l  c #553206",
"z  c #52330D",
"x  c #5B350D",
"c  c #5B3A0B",
"v  c #58370A",
"b  c #422612",
"n  c #452B12",
"m  c #4A2E12",
"M  c #462817",
"N  c #512D13",
"B  c #582A17",
"V  c #443011",
"C  c #4C3213",
"Z  c #4D331B",
"A  c #4F381A",
"S  c #533413",
"D  c #5A3414",
"F  c #553813",
"G  c #5B3B14",
"H  c #53351B",
"J  c #5B351B",
"K  c #543A1D",
"L  c #5A3B1C",
"P  c #643B07",
"I  c #643C0A",
"U  c #693B0B",
"Y  c #652B13",
"T  c #6C2B15",
"R  c #6C2B16",
"E  c #623513",
"W  c #623A14",
"Q  c #6A3A13",
"!  c #63351D",
"~  c #6B3219",
"^  c #633B1C",
"/  c #6B3C1B",
"(  c #6B3413",
")  c #733D15",
"_  c #72341D",
"`  c #723D1B",
"'  c #7A3C1C",
"]  c #773615",
"[  c #6C340C",
"{  c #533B22",
"}  c #5B3C23",
"|  c #593622",
" . c #482F22",
".. c #633D23",
"X. c #6B3D23",
"o. c #613E2A",
"O. c #7D3C23",
"+. c #763B26",
"@. c #5E411F",
"#. c #66400A",
"$. c #6D4412",
"%. c #63431C",
"&. c #674119",
"*. c #73421C",
"=. c #7D431B",
"-. c #784413",
";. c #5D4224",
":. c #5B4229",
">. c #644424",
",. c #6C4325",
"<. c #64442A",
"1. c #6A452A",
"2. c #694A2A",
"3. c #724123",
"4. c #7C4424",
"5. c #72422C",
"6. c #7C452C",
"7. c #7D4C2B",
"8. c #794A25",
"9. c #6D4B31",
"0. c #7A4A32",
"q. c #774A34",
"w. c #7B5837",
"e. c #73512C",
"r. c #7F6038",
"t. c #7E644A",
"y. c #833D1C",
"u. c #893A18",
"i. c #873D25",
"p. c #973F27",
"a. c #82461D",
"s. c #834424",
"d. c #8C4524",
"f. c #824A26",
"g. c #8C4B23",
"h. c #84452A",
"j. c #8D442B",
"k. c #854A2C",
"l. c #8C4C2C",
"z. c #944325",
"x. c #924D26",
"c. c #954C2D",
"v. c #99482D",
"b. c #88532D",
"n. c #93522C",
"m. c #9B532D",
"M. c #9D5A2D",
"N. c #854D34",
"B. c #8C4A32",
"V. c #864735",
"C. c #9C4C34",
"Z. c #984832",
"A. c #8D5133",
"S. c #8D5539",
"D. c #825D3C",
"F. c #875232",
"G. c #955433",
"H. c #9B5433",
"J. c #94543A",
"K. c #9C5A3B",
"L. c #9A5638",
"P. c #A4562E",
"I. c #A34E32",
"U. c #A35434",
"Y. c #A35D33",
"T. c #AD5B36",
"R. c #A3543A",
"E. c #AA553A",
"W. c #A55A3A",
"Q. c #AC5A3C",
"!. c #AA5333",
"~. c #B35D3D",
"^. c #B55B3B",
"/. c #A04F2F",
"(. c #85643C",
"). c #9C633E",
"_. c #A7632B",
"`. c #AA6635",
"'. c #B5613E",
"]. c #BB633D",
"[. c #B1713F",
"{. c #C0693F",
"}. c #9B5D43",
"|. c #925A43",
" X c #8F5D42",
".X c #AC5B42",
"XX c #A85A42",
"oX c #B35E42",
"OX c #BA5D42",
"+X c #B55846",
"@X c #9A7658",
"#X c #92664A",
"$X c #AB6443",
"%X c #A66447",
"&X c #B36344",
"*X c #BC6445",
"=X c #B3654B",
"-X c #BC644A",
";X c #BD6B4D",
":X c #B66A47",
">X c #BC7049",
",X c #BD6C50",
"<X c #BA7453",
"1X c #A76A52",
"2X c #B47C66",
"3X c #C26544",
"4X c #C46945",
"5X c #CB6B46",
"6X c #C4664B",
"7X c #C46B4C",
"8X c #CB6C4C",
"9X c #C86545",
"0X c #D26E4D",
"qX c #D26F46",
"wX c #C2724C",
"eX c #CC734F",
"rX c #D3724E",
"tX c #C36C51",
"yX c #CB6C51",
"uX c #CB6B57",
"iX c #D36E56",
"pX c #CE7353",
"aX c #C57757",
"sX c #D47453",
"dX c #D97554",
"fX c #D57855",
"gX c #DA7956",
"hX c #D3745A",
"jX c #D9755F",
"kX c #D57A5B",
"lX c #DB7B5D",
"zX c #DC7B61",
"xX c #C3845B",
"cX c #DC8364",
"vX c #D3976C",
"bX c #E38C6B",
"nX c #E48467",
"mX c #EE8974",
"MX c #DDA974",
"NX c #E5A77F",
/* pixels */
"                                                                                                                                ",
"                                                                                                                                ",
"                                                                                                                                ",
"                                                                                                                                ",
"                                                                                                                                ",
"                                                                                                                                ",
"                                              ^ >.>.2.2.>.1.1.1.<.1.9.                                                          ",
"                                            ^ >.>.>.>.>.;.L } } } } } } >.                                                      ",
"                                        S } ..>.;.:.;.;.A n Z Z :.:.} Z V V K :.<.                                              ",
"                                      C K L ;.;.;.@.A 8 w 6 8 Z { } { Z p 6 V { ;.K S                                           ",
"                                    m H Z @.;.:.;.6 6 6 4 4 5 n S K { H K Z p { { m n b }                                       ",
"                                  n | Z K V C 6 6 4 6 : 6 9 9 5 C K { } | <.J n Z  .Z b b                                       ",
"                                s k C C V 9 6 7 6 8 5 4 7 p s d D J L L ^ *.f.D m | | { Z Z                                     ",
"                                a C s 8 6 8 7 9 s s 5 5 u F ^ / ,./ / / s.x.U.K.h./ X.o.} M                                     ",
"                              a k 8 8 5 8 8 s 8 8 4 u k W W ) ' d.m.G.M.P.T.{.3X'.U.s.0.w.o.                                    ",
"                            d d s p p s 8 s s 9 9 u i x Q ) a.U.Q.'.'.].].3XqXqX5X5XW.c.i.q.5.                                  ",
"                            p V p 9 p V s s n C k k g $.=.l.m.T.^.3X3X3X7X8XrXsXrXqX5X&Xj.6.q.q.                                ",
"                          a 8 5 u V m C C F C u d g *.=.g.m./.].3X5X8XeXpXkXfXkXgXsXrX8XoXV.q.q.                                ",
"                          d p 8 C S m F k j z u g ^ ` a.x.W.Q.*X3X9XeXsXcXcXcXzXlXfXsX8X6X.X0.q.                                ",
"                          k C K C C F F k k k d G / ) g.m.U.~.~.-X6X7XfXcXbXbXcXcXlXdXdXsX;Xk.0.                                ",
"                          u H C F k k F k k j F &.Q ` c.m.U.'.&X*X3X6XkXkXbXbXnXcXgXdXdXdXfXW./ 1.                              ",
"                        u C @.K F k F z k k k %.c ( s.L.U.Q..X*X*X*X3X7XsXfXfXlXgXdXdXdXsXfXwXs.3.                              ",
"                        i @.L k k k C F k k @.%.c E h.R.XXXX&X&X*X*X6X8X0XyX0X0XsXsXdXdXfXeXaXK.3.N.                            ",
"                      l G F u 9 k k F C F C %.F %.E i.H..X&X'.&X*X6X6X5X5XeXyXyXeXsXsXfXgXsXsX:X` 0.                            ",
"                      %.g d p s V C k F C %.z G %.W s.L.&X-X*X*X7X;X,XpX7X5X8X8X5X0XpXhXkXkXzX<X/ 6.                            ",
"                      F s p p n 8 H m C F %.F F G W 4.h.l.B.l.s.' 4.Z..X*X*X9X9X9X3X7XtX=X=X=X1X/ X.                            ",
"                      C V s p n d C d F %.z F L D ! / +.h.B.J.B._ ~ ~ i.C.^.3X9X3X*XC.i.R +.i.V.3.,.                            ",
"                      C p t 9 d s C u L >.a k F D X.5.O.V.q.+.+.B.N.B.+.i.C.OX6X*XW.s.F.|.}..X%X3.X.                            ",
"                    l V p 9 t k k C u L F u d G J X.6.6.! > % & o.X.+.V._ h.oXhX7Xc.4.1.o.| +.}.6.5.D.                          ",
"                    c u s p p m k F u 2.C u k L ^ k.L.' B ..Z $ | 2Xi.V.~ i..XzX7Xg.^ #  .#XY h.4.8.D.                          ",
"                    D u s , , z i z u 2.d 5 C L ^ S.XX&Xn.g.S.|.J.}..X%Xi.d.E.zXuX=XV.B B 1XXX=XB.8.9.                          ",
"                    S d t 9 t d k k F >.d 5 m L ^ S.Q.-X4XT.H.C.I.v.R.U.j.i.E.uXhX7X$X}.}.=X*XpX$X8.,.                          ",
"                    u k u 5 t z d k ;.>.n t m | ! B.Q.oX6XyXzXuX6X-X7X-XI.U.Q.yXdX8X7XOXQ.^.iXdX6X/ ;.                          ",
"                    u u s , 1 d d F L L t t 8 <.B V.L.oX6X6X6XiXhXkXzX+XE.E.E.6XlX0X0XjXzXhXdXdX7X+.>.                          ",
"                    i u s 1 1 d u K ;.L 7 t p } J 6.L.XX*X*X8XhXnXbXcX;XR.R.XX3XgXdX0XzXmXmXjXiXwX8.w.                          ",
"                    u p n , 8 m s C | | p p s | ! 3.J.R.oX*X*X8XhXzXtXoXu.z.R.6XgXdXqXsXzXmXjX6XtXb.w.                          ",
"                    u u n 5 7 d u C L L p p t L D ( l.L.!.oXoX*X*X*X~.C.u.d.z.*XjXbXgXP.^.6X6XuX;Xb.D.                          ",
"                    u 8 n 5 7 d i a F @.s p p S S / 6.G.C.I.E.~.~.Q.~.x.y.H.d.E.tXhXsX!.u.E.oXOX&Xb.D.                          ",
"                    5 u C 5 5 u k 5 H @.S 5 p C D N Q 4.c.c.m.m.m.U.Q.i.T ' ' ' Z.XXU.~.u.z.W.Q.$X*.(.                          ",
"                      u p 5 9 k z u C @.L t 7 b J D E ` a.d.x.m.x.m.W.d.[ Y Y T R i.;X;XC.] c.H.k.&.(.                          ",
"                        s p e i @.i k %.G u 4 p } | ( Q =.h.a.a.n.m._.$XH.s.` ~ W.aXaXwXH.' d.B.,.%.(.                          ",
"                        m 7 5 z F j j k L t 4 5 ..^ Q ) a.g._.x.T ' l.J.U.&XXX;X=XE.H.B.l.l.c.J.G 2.r.#X                        ",
"                        d s p C z j j k z d t 5 S W *.a.g.M.`.[.Y e Y ] g.] x.u.L.C.i.R W.&X:XJ.H 2.w.r.                        ",
"                        s p s s F z u C k d t 5 a W $.a.M.Y.`.`.%XO.Y G.xXxXMXvXNXvXZ.=X<X>X:XX.| 2.w.                          ",
"                        t p s s k v z S k d , b u &.U =.n.Y._._.W.L.j.i.i.m.<XaXaXXXp.7XeXwX%XB | ,.9.                          ",
"                        p s s s k z k d F m , 1 s G W Q a.G.`._.`.c.j.z.Z.+X-XE.+X+X!.4XwX:X+.e | >.9.                          ",
"                        e d d s u k S S m S 1 5 p S W U Q =.M.M.Y.H.j.Z.p.z.p.v.Z.!.^.3X>XJ.2 M J ..2.                          ",
"                        y m m u d u F d d g 5 > 5 N W x E *.=.n.H.W.c.Z.I.I.!.Q.+XOX{.4XK.b = M L ..o.                          ",
"                        i d d i u i S d d d p 5 5 S D g a N E O.b.$X$X].*X*X;XtX7XeXwX$Xa # % m D B J                           ",
"                        t d i u i u d S a s s , 5 C g z a r N h *.l.[.*X4XfXpXpXlXeX>Xq.# # % n D d Z                           ",
"                        u d d i i i d d s u s , s n p D p > > e e h a.^.].5XyXyXyX*XXX .X # % d z 9                             ",
"                        x i j i d u i d a s p > t s d m t p 1 7 e y y ] g.W.$X%XA.}.@X< = = 1 M                                 ",
"                        D z f i F i s d a d , 7 1 1 m d m p t e 7 r e e e a M ..w.@Xt.O * = > m                                 ",
"                        x c l i S d i d u t 5 5 5 , m s d a p p p p t p > % % ; A :.w - X < 1 H                                 ",
"                        g G v i m z i i d s t 5 t t d d z d d p t a a t > O 0 * q q 7 = X = b                                   ",
"                        t c c c t F j i k d , , 5 , d d z i u t t t e Z ; O * - * w ; % # < b                                   ",
"                        y g c c i G j z z k 1 , 5 > p m d k u t t t z <.% O O + % - & X % > M                                   ",
"                      u t t F v c i l l x c > 1 1 > d d t x u a a E 8.^ % @ O O O * O X * ,                                     ",
"                        g t t c c #.v v x G 5 s , > p z y x f y / 7.8.F - . X O . - # X ; 5                                     ",
"                        E a y z #.#.P v c #.t n , 1 5 D y E W 7.k.8.w.< 0 + O O X * X X < q                                     ",
"                        *.D y y U P P P P $.D s 5 9 , G i E k.A.k.l.5.o 0 O O o * @ X % 3 M                                     ",
"                        -.*.f i l P $.U P $.>.8 H 9 t z f E F.k.k.n.o.o X % o X + X X = q q                                     ",
"                          ) U l f l $.U U $.*.u F j u m x x 8.f.l.b.N X . % O X + . o < $                                       ",
"                          a.-.P P l P #.U *.e.g l G d e ^ x f.f.G.).D X . O X o + o X ; 2                                       "
};
