/* XPM */
static char *_6acba26a48543ffd2a99c2fe2c33af8d9aoTReDw7jZyXrm[] = {
/* columns rows colors chars-per-pixel */
"64 64 252 2 ",
"   c None",
".  c #160D0D",
"X  c #161214",
"o  c #1A1315",
"O  c #1C1619",
"+  c #1E191A",
"@  c #17111B",
"#  c #170F11",
"$  c #221A1C",
"%  c #281715",
"&  c #361A17",
"*  c #2A0F10",
"=  c #3A231B",
"-  c #181930",
";  c #261C24",
":  c #3B1A21",
">  c #282224",
",  c #352828",
"<  c #3C3C3F",
"1  c #4B1317",
"2  c #6E0E17",
"3  c #46261C",
"4  c #522B1D",
"5  c #492C27",
"6  c #542B24",
"7  c #5C342C",
"8  c #58362A",
"9  c #593935",
"0  c #483332",
"q  c #663729",
"w  c #753B2B",
"e  c #633C33",
"r  c #683C35",
"t  c #723B35",
"y  c #732E30",
"u  c #53162A",
"i  c #5F4332",
"p  c #6A443C",
"a  c #6A4E3B",
"s  c #684837",
"d  c #7A453A",
"f  c #744A3D",
"g  c #774739",
"h  c #78553C",
"j  c #684833",
"k  c #122B54",
"l  c #123A6D",
"z  c #273068",
"x  c #4E3452",
"c  c #6C346B",
"v  c #593574",
"b  c #114B76",
"n  c #284477",
"m  c #356977",
"M  c #4E474B",
"N  c #734B43",
"B  c #794A47",
"V  c #6C5544",
"C  c #7B5B44",
"Z  c #745C4B",
"A  c #785845",
"S  c #765955",
"D  c #6B4949",
"F  c #7B624D",
"G  c #7B6453",
"H  c #57566A",
"J  c #714F6D",
"K  c #6F6B74",
"L  c #5C636F",
"P  c #880C1A",
"I  c #950F13",
"U  c #A90D10",
"Y  c #841428",
"T  c #883436",
"R  c #B32A2E",
"E  c #CD1910",
"W  c #CD2917",
"Q  c #E43618",
"!  c #8B4C3C",
"~  c #854838",
"^  c #954A38",
"/  c #8F5039",
"(  c #A95737",
")  c #AA543A",
"_  c #CE4E34",
"`  c #E05C3E",
"'  c #8F3678",
"]  c #B42F6C",
"[  c #9E2964",
"{  c #D81668",
"}  c #E31A74",
"|  c #D23071",
" . c #E62A77",
".. c #D50F5E",
"X. c #884C42",
"o. c #845243",
"O. c #8C5445",
"+. c #885949",
"@. c #945A4B",
"#. c #995747",
"$. c #885A54",
"%. c #975C55",
"&. c #914C4D",
"*. c #A45C4A",
"=. c #A95947",
"-. c #B55D47",
";. c #A55B58",
":. c #B25054",
">. c #83644B",
",. c #8C6B4D",
"<. c #886548",
"1. c #846A54",
"2. c #8B6D52",
"3. c #876957",
"4. c #956B53",
"5. c #8B7158",
"6. c #937454",
"7. c #94755A",
"8. c #9C7B5A",
"9. c #9B7855",
"0. c #976F4B",
"q. c #AD634B",
"w. c #A8634C",
"e. c #B3654B",
"r. c #BC644B",
"t. c #BB6A4C",
"y. c #B36446",
"u. c #A86555",
"i. c #B46453",
"p. c #BD6D54",
"a. c #B86A58",
"s. c #A27D59",
"d. c #BE775C",
"f. c #965C64",
"g. c #8F536B",
"h. c #A65E66",
"j. c #B34F72",
"k. c #886966",
"l. c #966569",
"z. c #9B7866",
"x. c #896675",
"c. c #987879",
"v. c #8C6F6D",
"b. c #A46667",
"n. c #B76975",
"m. c #AF7270",
"M. c #C35E48",
"N. c #C1694D",
"B. c #C56C53",
"V. c #C47354",
"C. c #C4735B",
"Z. c #CB795B",
"A. c #CA7659",
"S. c #D36B56",
"D. c #C5466E",
"F. c #D64D79",
"G. c #C95474",
"H. c #E7477E",
"J. c #C87864",
"K. c #C87A7B",
"L. c #CE6E70",
"P. c #E3704F",
"I. c #9C805D",
"U. c #A7845C",
"Y. c #9B8366",
"T. c #A48463",
"R. c #AD8B63",
"E. c #A98867",
"W. c #B38C63",
"Q. c #B48B6A",
"!. c #BB956C",
"~. c #B79469",
"^. c #AA8A77",
"/. c #B58878",
"(. c #BC9B73",
"). c #B79674",
"_. c #AE906C",
"`. c #BDA17D",
"'. c #C29D72",
"]. c #C8947B",
"[. c #CA8873",
"{. c #C4A37A",
"}. c #C6A479",
"|. c #1E3F83",
" X c #742F85",
".X c #174B89",
"XX c #0A5988",
"oX c #125194",
"OX c #285C99",
"+X c #2F4F8E",
"@X c #116A9B",
"#X c #32739A",
"$X c #0C75A8",
"%X c #316CA6",
"&X c #4F568E",
"*X c #734C8D",
"=X c #4B6A90",
"-X c #706E8D",
";X c #4B73A8",
":X c #617FA6",
">X c #864C8A",
",X c #AF5485",
"<X c #946E88",
"1X c #AF7787",
"2X c #AD78A7",
"3X c #D35584",
"4X c #E55484",
"5X c #E54B83",
"6X c #D97584",
"7X c #CF6D89",
"8X c #E56788",
"9X c #E2798D",
"0X c #E83A83",
"qX c #0A8BB9",
"wX c #0983AF",
"eX c #7E8892",
"rX c #628B9E",
"tX c #92888D",
"yX c #AA8882",
"uX c #B99787",
"iX c #BA9898",
"pX c #B28890",
"aX c #938FAA",
"sX c #B894A3",
"dX c #B0ADAF",
"fX c #BFA497",
"gX c #CB8884",
"hX c #D78589",
"jX c #C89A89",
"kX c #D7988A",
"lX c #DA9793",
"zX c #CD9096",
"xX c #E38894",
"cX c #E4999B",
"vX c #E2818D",
"bX c #CAA98A",
"nX c #C9A896",
"mX c #D9A998",
"MX c #D9B499",
"NX c #CFAD8C",
"BX c #E3B09C",
"VX c #C9A9A4",
"CX c #DCBDA2",
"ZX c #D7B6A7",
"AX c #CEB5AE",
"SX c #E7A8A6",
"DX c #E6B8A7",
"FX c #E59DA0",
"GX c #DDC4AA",
"HX c #DEC8B2",
"JX c #E7CAB4",
"KX c #E7CEB3",
/* pixels */
"                                                                                                                                ",
"                                                                                                                                ",
"                                                                                                                                ",
"                                                                                                                                ",
"                                                                                                                                ",
"                                                                                                                                ",
"                                                                      6.T._._.                                                  ",
"                                                                >.5.+.9.~.}.~.).^.                                              ",
"                                                              I.<.2.C ~.'.'.~.U.'.~.                                            ",
"                                                              U.6.9.9._.~.'.W.U.}.}.E.                                          ",
"                                                            9.,.6.I.U.`.}.}.'.W.!.'._.                                          ",
"                                                          I.U.U.6.W.R.~.~.'.}.~.~.`.}.NX                                        ",
"                                  l n +X+X;X&X=XOXoX%X  &XL J K K ).uXNXNXNXbX!.~.W.U.'.                                        ",
"                        l l n +X;X-XeX>X<X&X&XaX<X*XrX*X-X&X+X+X#X.X|.OXOX#X=X-XK Y.^.!.uX                                      ",
"                  l n l .X.X=X| 9XiXnXcX} VX*XjXDX} vXGXKXxXH.CX*X XAXsX] aXtX:X#XOX+X%X:X;X                                    ",
"              l l .X&XJ tX1X1X| sXg.MXG.| ZXBXGX9X{ hX*X1XKXH.9XiX*XAXDX} 9XKXJXSX3XAXdX*X-X;X&X%X;X%X                          ",
"          n .XJ g.x.jXbXjX] K.l.c.] K.MXMXMX| lXj.g.VX' 7XmX{ hXCXGXVX} cXHX>X>XKX8XxXVX XDXDX0XAXdXaX&X%X@XoX                  ",
"        n K b.n.x.uX7XG.bXJ x.CX4X4XMXc jXMXH.9XbXv uXhX..K.kXZXD.ZX6Xc pXJX>XG.KX4X4XKXAXSX4XSXAX<XJX8XKX*X2X;X%XoX            ",
"        H b.c.j.n.x./.D.j.NXuXnX| mXx.' mXMX9XBXCXMXZXG.} 5XFXpXJ nXmX| ] lXmX] kXlXFX8XJX,XpXJX>XsXJX8XDX>XVXcX7XaX%X.X        ",
"      J f.n.yXK.n.J b./.gXbXG.kX<Xx.nXj.6XkXhXvX6XnXCX7Xg.VXnX,X9XDXmX5X9XCXGXnXmX .} F.ZXpX<XSX9X9XSXFXJXAXFX9XSXAXdX X%XoX    ",
"      c./.G.n./.g.J n.n.gXbXyX[.| L.NXbXNX| j.gXc hXDXgXMX].L.[.K.gXMXNXCXL.0XlXDX3XxXCX<XJ kX} } FXbXpX6XJX,XJX2X2XJX .9X&X+X  ",
"      v.l.f.n.j.uXx x.7X] nXx ^.n.gXnXD.K.kXJ x.Q.:.].~.{.~.W.'.{.!.(.W.~.bXm.[.NXjXyXCX,XvXGXF.5XSXJX<XMXhX,XCX4XxXcX .xX<XdX;X",
"      yXf.g.m.yX] n.k.n.[ v.c.j./.(.s.m.s.U._.U.s.s.T.W.W.~.U.(.!.~.~.W.(.'.(.`.bX`.bX`.'.A.}.MXxX4XmXmX0X} F.BXlXvXDXDXKXzXxX| ",
"      m.g.$.j.f.x.:._.b.^.V 6.5.9.R.s.U.U.s.s.I.s.9.R.8.9.U.9.I.0.W.W.W.~.}.'.!._.I.~.`.W.W.'.}.jX7XhXCX' zXmX<XGX .G.L.xXF...| ",
"        h.S f.&.g.h.m.,.T.6.T.U.s.8.<.8.0.,.<.h 8 i 8 i 7 q 6 w q j j g ~ / ,.0.U.0.U.~.(.(.!.!.!.NXbXbXyXyX1X<XDX .4XyX1X,XAXtX",
"        l.n.m.g.S 7.7.2.I.Y.7.2.4.2.C C h i 3 % & 4 4 4 q q q w w w w q q 4 4 4 q h 0.<.I.R.W.!.!.!.W.U.(.(.m.kX6X6XlXiXyXn.3X  ",
"        g.l.f.h.1.2.1.2.,.7.>.F F C h h i 3 # & 8 q g ~ ~ ^ / ) ) =.^ ! ~ ~ g j 4 = = 4 j h <.<.0.U.).!.U.U.'.NXbXF.7XlXF.| G.  ",
"          &.D $.,.2.5.5.5.1.5.>.+.C a j 4 = % 3 g ~ ~ ^ =.-.e.r.r.e.=.q.w.=.=./ ~ q . . % i h h <.0.8.8.U.U.U.'.`.).gXj.hXlXbXNX",
"          x $.S F 5.1.5.1.6.0.>.h h a i i = & j j 6 6 7 ! a.A.Z.V.B.r.p.p.r.q.u.0.g & * % . = j h <.<.0.4.I._.T.W.{.uXx.<Xc ^.| ",
"            %.$.F 5.1.5.2.>.1.A a V a a i 0 = p 3 5 5 7 8 @.[.[.[.%.r e q p g #.( ~ 4 3 & % . 3 j g / <.4.6.8.~.E.E.(.).j.kXF.D.",
"              3.F 1.1.F >.C Z V a a a a j 9 5 8 e %.a.u.o.O.d.J.J.#.g g d p e 7 w / w 4 = % & % i h <.<.0.6.4.5._.E.T.'._.jXhXuX",
"                D G 5.C F Z a V h a i a A 9 5 s 9 9 e j d d u.A.A.w.#.*.u.a.u.O.q ~ h q 3 = 3 % i h h <.<.5.5.7.U.E.6.R.R.G.kX/.",
"                  Z G G Z F Z a V F a a V r 5 f s B f p 0 t #.N.C.d.@.9 5 , 6 d #./ / j 3 3 6 q e s s A ,.1.<.6.2.6.8.8._.b.j.| ",
"                      G 5.Z V G V a F h a y 8 o.+.u.u.%.O.O.#.M.r.V.d.;.u.u.u.o.#.w./ 8 3 3 ^ T g 8 9 h C <.0.1.2.T.T.E.Y.k.c.x.",
"                        Z G G Z 1.F V F >.t 9 / #.i.i.#.&.! =.M.N.N.C.J.C.d.C.d.a.w.( 8 3 q N.) w j a h A F 2.1.7.2.z.E.).b.1X1X",
"                            G 3.G F F a B &.t O.*.i.=.&.! ! =.M.-.N.B.C.C.Z.J.Z.C.e.#.t 3 T M.-.~ a i a h F ,.,.6.8.7.8.8.m.K.b.",
"                                F G G F +.#.X.%.a.i.*.X.O.&.-.M.M.-.J.J.C.Z.Z.J.B.e.#.g q :.^ -.^ s i s a h A ,.7.6.z.T.3.jXk.  ",
"                                      5.+.X.&.@.*.O.5 : B X.r.B.-.N.;.*.C.J.L.Z.p.e.*.N t S.^ ) ! e a s h a +.2.6.6.^.2.^.m.    ",
"                                          @.$.#.X.$ o X . % r t : & % % 7 i.Z.P.B.t.%.p &.-.) =.o.a s i a C >.1.7.T.3.c.k.      ",
"                                          O.N f 0 X X X @ + o # O ; $ o $ r e.B.N.e.o.r =.B.r.;.a a A V F A >.z.5.k.            ",
"                                            N s > o o $ $ $ # ; > $ + + o $ ! ( w.@.N p =.r.a.Z D V V F 5.v.k.                  ",
"                                              9 $ o . & t t r e 9 5 5 % # + w #./ N D B $.C S Z Z F G                           ",
"                                              9 $ + o * ^.nXAXAXnXnXv.* # o 8 o.f p N f.                                        ",
"                                              M > O o u 6 k.uXfXl.u.r & . O 0 o.f N r                                           ",
"                                              M > O X r T h.n.uXuX%.t q . $ 0 f p N B                                           ",
"                                              S , X X g ;.B.:.:.:.n.a.7 @ ; 0 D f B l.                                          ",
"                                                0 . $ t @.u.a.a.A.J.a.6 o ; 9 N B B m.                                          ",
"                                                K 0 e e N &.&.*.-.u.#.e o 5 N B a ;.s.                                          ",
"                                                  B p 9 e p B X.O.@.#.o.N o.N p @.w.                                            ",
"                                                  B D 9 9 p r N B O.B A C g g X.w.e.                                            ",
"                                                  +.N 9 5 0 9 e p s f g d d d =.y.y.                                            ",
"                                                  %.O.N p 5 8 6 6 7 t o.X.~ w.y.e.e.                                            ",
"                                                  $.@.A B f B h g ~ O.O.^ q.e.t.t.q.                                            ",
"                                                  @.@.@.$.%.w.w.w.*.#.=.t.t.p.V.t.y.                                            ",
"                                                  3.#.+.O.4.i.a.q.*.i.p.V.V.V.V.t.y.u.                                          ",
"                                                  B O.O.O.@.;.*.:.r.p.V.A.A.A.V.t.y.#./                                         ",
"                                              $ o s O.O.O.#.4.;.e.V.V.Z.Z.Z.Z.V.N.( ( ^ ~ 4 % $                                 ",
"                                        $ $ o . . 8 O.O.O.@.f.h.e.a.C.V.V.Z.A.V.N.( ( ^ ( w = % > ,                             ",
"                                < b @XrXM , . . . 8 O.O.O.O.h.:.i.t.d.V.V.V.V.A.N.y.( ( ( w & % + + ,                           ",
"                          % - - k b wXK Y.J.T 1 . 8 d o.o.O.l.i.e.p.t.t.y.N.V.V.S.( ( ( ( w * . X + + > >                       ",
"                  Y Y T 2 @ - k k b rXK d._ I P 1 1 r d ~ +.k.#.=.=.=.;.=.u.=.t.t.y.( ( ~ 8 O X X O O O + + >                   ",
"              b -XP P g., - k k b XXL fXS.W U 2 1 * # x H H M L J K K %.O.! ! #.=.) ) ( q & o X X O + O + + + > <               ",
"            - XXK P P T - k l l b XXtXP._ E U 2 1 # @ x =X@X$XwXqXqX%Xx.- % & 1 2 P U E E W _ m.G M K m b b @XoX.Xl l n         ",
"        : $ - oXg.P P u - l l b XX@X/.` E U I 2 * * @ H L =XL wXqXqX&X-X; * * 1 2 2 U E E Q P.kXY.tXeXwXqX$X@XoX.Xk k 5 R R     "
};
