/* XPM */
static char *result[] = {
/* columns rows colors chars-per-pixel */
"64 64 248 2 ",
"   c #020407",
".  c #030B14",
"X  c #02131C",
"o  c #08161B",
"O  c #16181C",
"+  c #0C1C24",
"@  c #061B28",
"#  c #141C24",
"$  c #1C1C22",
"%  c #171D2A",
"&  c #0A1E33",
"*  c #0B152F",
"=  c #0B222C",
"-  c #06232A",
";  c #1D232B",
":  c #16262A",
">  c #0B2433",
",  c #0D2A34",
"<  c #0D2B3B",
"1  c #092539",
"2  c #132432",
"3  c #122C35",
"4  c #1B2C35",
"5  c #122C3B",
"6  c #1B2B3C",
"7  c #19253A",
"8  c #15343D",
"9  c #1A333C",
"0  c #173538",
"q  c #0C313C",
"w  c #23252C",
"e  c #252829",
"r  c #28352B",
"t  c #333928",
"y  c #242B34",
"u  c #2A2D35",
"i  c #232B3B",
"p  c #242936",
"a  c #2B323C",
"s  c #26353A",
"d  c #35363B",
"f  c #342E2B",
"g  c #2A251D",
"h  c #513B1C",
"j  c #463828",
"k  c #493636",
"l  c #6D393B",
"z  c #3A4437",
"x  c #70501D",
"c  c #5A4925",
"v  c #574733",
"b  c #504C32",
"n  c #7A5625",
"m  c #695A37",
"M  c #6F542B",
"N  c #7A6436",
"B  c #5F471A",
"V  c #0D2C43",
"C  c #132D43",
"Z  c #192B46",
"A  c #163542",
"S  c #193642",
"D  c #163946",
"F  c #193945",
"G  c #163548",
"H  c #19354A",
"J  c #163A4B",
"K  c #193B4B",
"L  c #173D52",
"P  c #1A3C51",
"I  c #1B3656",
"U  c #0E3345",
"Y  c #242E42",
"T  c #233444",
"R  c #2B3443",
"E  c #2C3B45",
"W  c #24334C",
"Q  c #2C3A4B",
"!  c #27384A",
"~  c #323543",
"^  c #333A44",
"/  c #343D4B",
"(  c #373B49",
")  c #233B54",
"_  c #243B5B",
"`  c #283955",
"'  c #323D56",
"]  c #1D3A66",
"[  c #263E63",
"{  c #433C42",
"}  c #3B414C",
"|  c #394348",
" . c #294359",
".. c #3C4453",
"X. c #384758",
"o. c #354A54",
"O. c #1D4472",
"+. c #2A4464",
"@. c #284669",
"#. c #374A67",
"$. c #39536D",
"%. c #274977",
"&. c #324C74",
"*. c #2D527B",
"=. c #395576",
"-. c #164155",
";. c #46474B",
":. c #474C56",
">. c #4C535B",
",. c #47525B",
"<. c #52545A",
"1. c #57585A",
"2. c #554E4C",
"3. c #68564E",
"4. c #696447",
"5. c #736E4F",
"6. c #4B5462",
"7. c #485769",
"8. c #575C67",
"9. c #485A77",
"0. c #525E77",
"q. c #444E65",
"w. c #5C626B",
"e. c #596168",
"r. c #4C6178",
"t. c #596678",
"y. c #566974",
"u. c #63666B",
"i. c #676B76",
"p. c #69747D",
"a. c #75777D",
"s. c #706A71",
"d. c #825B2B",
"f. c #916A2C",
"g. c #886838",
"h. c #986E32",
"j. c #997438",
"k. c #8B6D2E",
"l. c #A67B39",
"z. c #A97933",
"x. c #8B7746",
"c. c #8C774B",
"v. c #A57A48",
"b. c #8F5F62",
"n. c #B0853B",
"m. c #C89539",
"M. c #9E854B",
"N. c #988459",
"B. c #A78748",
"V. c #B58C47",
"C. c #BA9554",
"Z. c #B2924C",
"A. c #A98C60",
"S. c #AFA069",
"D. c #9D9360",
"F. c #C69845",
"G. c #D29D50",
"H. c #D4A54A",
"J. c #D1AA53",
"K. c #D3B36B",
"L. c #E0B96C",
"P. c #EDCC70",
"I. c #DDC277",
"U. c #264C85",
"Y. c #275387",
"T. c #385985",
"R. c #345C92",
"E. c #265A97",
"W. c #3B6294",
"Q. c #1A4985",
"!. c #455E83",
"~. c #49648A",
"^. c #546584",
"/. c #5B6D8D",
"(. c #56698A",
"). c #466897",
"_. c #5C7698",
"`. c #586E90",
"'. c #677487",
"]. c #777C86",
"[. c #667999",
"{. c #646E82",
"}. c #4F74A5",
"|. c #6B7EA5",
" X c #667DA6",
".X c #897C80",
"XX c #7C8288",
"oX c #768697",
"OX c #6C82A5",
"+X c #6C83AD",
"@X c #6A85AC",
"#X c #7484A4",
"$X c #7285AC",
"%X c #748AAB",
"&X c #7888A7",
"*X c #6D85B2",
"=X c #6D88B1",
"-X c #7387B2",
";X c #748AB4",
":X c #7A8DB3",
">X c #758CBA",
",X c #7A8DB9",
"<X c #7D93BD",
"1X c #7892B7",
"2X c #7D95C3",
"3X c #738FC1",
"4X c #83868D",
"5X c #858B94",
"6X c #888A95",
"7X c #8B939A",
"8X c #92949D",
"9X c #9A9388",
"0X c #B1AA94",
"qX c #8B97A7",
"wX c #989BA6",
"eX c #8699BB",
"rX c #8D97AD",
"tX c #9CA3AB",
"yX c #99A6B9",
"uX c #8DA2BD",
"iX c #A3A7AD",
"pX c #A7ADB5",
"aX c #ABB2B8",
"sX c #B2B6BD",
"dX c #A79B96",
"fX c #C4C6B0",
"gX c #EBD88E",
"hX c #859AC3",
"jX c #98A7C7",
"kX c #99ABCC",
"lX c #A6B4C7",
"zX c #B6BCC6",
"xX c #B3BDD2",
"cX c #A6B3CF",
"vX c #BBC2CA",
"bX c #BBC5D7",
"nX c #C3C5CC",
"mX c #C6CACE",
"MX c #CBCCD4",
"NX c #C8CBD5",
"BX c #CCD2DA",
"VX c #D3D6DA",
"CX c #D0CFD0",
"ZX c #D7DBE5",
"AX c #CCD5E5",
"SX c #E1DEE3",
"DX c #E8E9F1",
"FX c #D8E2E6",
/* pixels */
"K J D D F D D D D J D D D J J D D J J J J J J D D D J J D U q < U J D D J J J J J J J J J J K K K K J J D K D D K D K D G K K 5 ",
"F A F A F F D F D D F F D D D D J F D F J J J J D D K 8 , , ! o.S 3 S F J D J J J J J J J J K K K K K K ! K D D D D D F F G H K ",
"8 F F 9 8 F F F D 0 F F F F D F F K K F A D F A F F 9 8 X.e.y.{.| . 4 F S K D D D F F D J F J K G D K F F K G D K F F G F K K G ",
"F 8 D F F F 8 8 D F F F F F F F K F F K J F F F 9 S 5 y.E ; X.X.} o o 9 S F F J J J D J J J K F K K K F K K K J K G K J K F F D ",
"F 8 F D 8 F F F F F D D F F F D F F K F F K K A D A J 9 = + R / R R + 7 S S G K J J J J J J F D K F G K D D F D D F K F J K K F ",
"8 F 8 F F 8 9 F F F F D F F D D K K K K K K K F D D 8 0 D > X.:.Y W w % 6 S S G G J J D D D K K G K D J D G K K K K K G G K K J ",
"F F 8 8 F 8 F F 8 F F F F F F K K F K K K K F F 8 F F F , @ I _ I ` Y O . @ 3 A D J D D F F J K K K D G K K G G K F K K K K A A ",
"F 8 F D 8 F F 9 F F F F F 0 F F F F F F D D A F 8 0 D X k 2.8XxXkX7X.X3.k f s 5 D J K K D F J q F D G J K K K K K G G D K F V A ",
"F A F 8 S S S S 9 F A F F 8 9 3 q , , - , K F F F 8 < .XdXl b.ZXCX.Xl { l k / , D K F F < , = o.-.D D K G K K K K J K J J K S F ",
"8 F 9 F S S F S 9 F A 8 , : 3 s E 4 | y.T - 5 8 8 1 6 6X3.3.k { :.$ g g O w % 1 C 8 S 3 o.4 sXaXo , J K K K K K K J K J J K C A ",
"F F 9 F S 9 F S F F 9 , o.p.p.p.qXnXMXzXtXi.0 3 3  .p   w nXwX.X8.w w 8.e e p 7 T 2 X } oX4XNXwX>.| = D K K G K D J J J K G T K ",
"F 9 F F S F F S 9 F , ,.qXoXa.a.s.6X6X].e.].4XXXt.! $ . s.ZXrXwXb.1.<.:.$ e w p ..oXXX7XzXa.].].'.oX'.A K J K K J J J J D D 5 G ",
"9 F 9 F F 9 F F 0 8 5 s : o . $ 8.u.u.<.i.a..X{.' & Y   nXSXzXBXpXaXtX; ; $ w p a 8.a.a..Xi.7Xa.X . s , < F K K L J J J J K 5 G ",
"A A 9 F F 8 S 8 8 8 3 Q :.E d :.w.8.1.<.6.i.0.9.+.+.7 u VXpX]..Xi.oXXXX.a e i Q Y d d ;.:.].u 6XpX8.e.7. .< A D G J J K J K A S ",
"8 A F 9 F F A A 8 8 7.8.8.w.:.>.2.;.;.<.<.2.1.' 1 W . s.DXiX8XwXXXXXo.w.( y T ` ! ~ ( ;.:.i.8.8.'.p.y.w.e.X., A J J J J K G C K ",
"F A 9 D 8 A A 0 1 $.,.8.0.9.^.' 9.>.8.:.<.1.,.' W E w O zXwX6X].,.a.} } : T R W ` :.;.;.<.;.1.<.6.=.7.p.w.X.A 8 K K J J F D S G ",
"8 9 F 9 F F F 8 < $.| 8.'.=.).$.9.t.{...8.6.9.[ ' 6 w . 8XaXwX6X;.XXw.u } ` _ _ _ $.6.<.6.6.q.$./._.`.7.u.#.G 5 F F J J J J S D ",
"8 A 8 A 8 0 8 3 U @...d & ).U.I  ._.(.,.u.i.' p i Y u   s.nX8X6X>.w.w.~ ( _ @.*.&.[ q.6.q.$.9.*./.$X).Z X._ ) < A K K J J J A G ",
"8 9 8 8 8 0 9 > @.&.W X.@.U.@.[ _ }.q.6.9.T.[ [ @._ $   2.zX5X].w.:.i.:.; Y =.R.T.+.` ` #.[ T.~.W.).*.+._ [ W 3 A F K G J J G H ",
"F 8 8 8 8 0 5 V R.T.C [ &.] %.%.~.&.Q p [ U.U.Y.T.` O   wXzX7X7X].u.u.6Xd $ ) ).).~.+.I @.[ I *.T.Y.%.] [ @.R y < F K K J K G G ",
"S A 8 8 8 8 , L Y.W.O.7 +.U.U.[ Z * 2 _ %.[ U.U.&.Y . u.DXiX5X7X4Xu.<.8.} p ! $.=.=.=.%.+.@.@.I I ] ]  .T.+.i R 5 F K J J J A G ",
"8 8 8 F 8 8 1 L Y.E.R.I % [ *.@.7 7 +.W [ @.[ [ 7 + ( SXiX'.tXaXpXqX.X'.t.i 6 ` H 1 =.&.Z 5 %.Y.U.%.*.U.&.T i W 5 F K J J K G G ",
"S S 8 8 A 8 , +.Y.E.Y.T.Y % Y [ [ #.Z & 7 W [ _ +.9.rXDX8XwXBXlXrX:X|.|.#X[./.~.9.#.V & 2 9.}.).R.U.O.%.[ Y i W A G K J J J D G ",
"8 S F A 8 8 6 1 %.Y.Q.Y.~.7 # ! W Z 5 3 @ 9.|.|.<X2X$XlXMXCXxXOX X|.3X>X+X;X:X;X,X%XZ 2 T *.%.+.I %.T.@.W ` Q 6 < D D J J J C G ",
"F F S 8 A 8 8  .Y.U.Y.O.*.=.) E 7 * 4 3 @ _.<X;X>X+X>X|.bXAX|.+X*X-X;X*X+X;X+X+X+X,X+.= 4 @ - @.).}.[ Z Q Y _ W C F K K J J 8 D ",
"8 8 S S A 8 3 $.O.%.E.%.%.%.T.-._ 5 3 : < %X;X%X%X$X`./.yXuX+X-X;X+X X[. X*X*X*X*X;X/.& = < ).3X}.[ 7 W ' ! S W H G K K K K G G ",
"S 8 8 F S A 0 - V &.Y.O.~.W =.).%.+.- @ `.hXkXcXoX7.X.7 9.-X*X;X+X[. X-X+XOX X^.9.7.' /.C @.}.R.Q.[ W ` [ 9.i 5 G K K K K K A G ",
"8 S S 9 A A A 3 0 +.Y.O.&.$.J ).}.%.#.#XhX;Xr.X.^ E | O 7 -X+X X X X+X_.~.$. .T 9 % !.2X=XO.O.Q.Q.] _ _ [ [ S 5 F K P K K F G G ",
"S S S S F 8 F 8 - @.).V 2 (.P  .}.).~.hX1X%X#X7.2 ~ u e O [.,X|.$X(. .' / Q E 6 Q [.,X X@X%.Y.R.U._ [ I +.@.C A K J J K K P A J ",
"S 8 8 F 8 8 8 F , $.#.+ > _. .= 9. X).<X<X<XeXuX:.w a u O a 6.#.' R R a s ^ ^ ^.#X^.~.1X_.@.&.T._ % _ Z V P C K -.J K K K K A D ",
"S 8 S 8 F 9 8 8 q F 3 3 @ =. .! 5 ~. XhX>X<X<XhX0.$ a u $ O $ y p y u R ( Y p / ! 9._.;X@X=.$.q.4 4 < H 8 G J F D K J K J K A G ",
"8 F S 8 8 F S 9 A q 8 8 >  .F X.8.C *X2X<X<X<XhX( $ ~ ( R w $ u ;.( ~ ~ ~ ~ 0.^.^.;X1X=X;X#.0.4 u T C H K J J -.K K K J J K G G ",
"8 S F 8 S S 8 8 A 8 S 8 8 > X . tX/ (.2X<XhX2XeX;.O ^ X.$.:.( p w y T R % {.hX3X;X;X+X>X XoX,.= # 1 G K F K L P P J J J J J D G ",
"S S 8 S S 8 S S 8 S 0 < , ` oX,.| t.r.2X<X2X1XhX7.$ d '.8.8.8.} e ; ~ oXOX:X-X+X=X+X+X+X$XeX: o | o.Z C G P P J K P P P J K G G ",
"8 S 8 F S 8 8 S S 8 0 q $.#.6.iXu. .[.>X;XeX;X<X0.p u ~ a s y Q ( u ; i 7.|.*X XOX X-X|.eX{.. w.wX0.#.G A J P J P L P K K K D H ",
"8 S S 8 A S S 8 S S -  . .= o y rX=.=X*X-X>X:X1X|.Q a y u u ( / ..^ d p $ ! ~. X@X+X-X$X;X#.; 5Xy + S #.A K K J J K K L J K G G ",
"S 8 S S S S 8 8 8 S ,  .@.@ X E oX~.:X-X|.;X,X:X:Xr.a d u a u ....| } } % ..rX-X+X@X X;X_.9.Y 4X# X ) T.A J K L J J J J J K D G ",
"8 S S 8 9 8 S S S S < L ~.) , '.(.7.:X;X-X-X>X;X;XeX9...a a u d } ,...../ i Y 9.`.(. X>X[.X.7.oXp.S _.+.V K J J L P J K J K A G ",
"8 S 8 F 8 F S 8 F 8 8 < +.T._././ 7.eX,X;X,X-X+X=X>X<X&X0.R a p w ^ :.q.,.>.| i 9.&X+X*X`.' ..9.#X1X#.V K K K J J K J J J K D H ",
"S 8 S 8 F 8 S F 8 A 8 8 , C > o.:.8.eX>X;X+X+X*X+X+X+X,XjX} # / ~ w ; ~ R / ,.>.i Z 9.,X9.q..X8.6.7 , J J J L J J J J K J K K H ",
"S 8 S S S S S S S 8 S S S @ } tX;.8.eX|.3X-X-X$XeXjXjXuX(.| 9.jX9.u &Xa ; p ; w ( [.-XhX#.' pXiXw.: < D J K J K J K K K -.K J F ",
"S S S S S 8 S 8 8 F S S 5 : sX4X1.;.|.2X3X|.|.cXrXtXfX9X'.1X;X2Xr./.kX^.# e e e $ t.@X X' w.pXtX7X6., J K K J J J J K K K K G F ",
"S S S S S 8 S F S 8 8 F @ 5XpXi.a.2.[.>X;X:XxXqX| z N.5.zXlXlXpXp.eX|.hXOXs o u w # `.[./ s.aXi.i.XXE q K K K K K K K K K K A H ",
"F F F D F F 8 F F F F 5 4 xXa.:.a.1.i.$X XjX'.i ^ y e.t 0.'.].5.u.yXkX X<X_.q...% p W 9.( w.zX7X>.XXE U K P G K K J K J F K C C ",
"A A A G F F D A F F K > y.zX( 8.6X<.<.&X=XeX8XnX4X| a.].( d p { ( u yXcX$XOX<X%X[.&X^...} 1.sXNXi.p.3 D K F J K K K K H K K 8 S ",
"A A A F A F K F F F H 5 9.,.# vX6Xu.8.7.1X|.NXFX7XiXDXMXVX<.t.ZXBXu.^ XXpXcXeX<XhX2X[.,.d 4XnXZXy.T A J J G G K G H K K K F 5 C ",
"A D D A S G G K K G F F A @ s ZXwX8.a.# 9.1X:XBX4XvXmXMXvXXXDXSXVXDXi.a 6.e.lXlX$X1X#.,.} CXBXAX,.@ K F G K D K K G K K K H H H ",
"S D F F F K K H K K K D F 8 , pXAXu.u.p 2 %X-XkXzXpXmXVX7XsXDXMXmXFXtXzXBXiXlXuX<X/.2 a a.BXmXiX& F F G K G G G D K K K K S 5 S ",
"D J D F D F G K F F D F J J 5 y sXiXu.R . 7 :X|.xXwXsXMXaXaXDXMXmXCXpXNXmXVXlX:X*XH + O XXmXfX;.@ A D J J K J D J J K D J J 8 A ",
"G F D G G D G K F K K H K H # b 0X9X6Xb b v >.%X$XxXzXVXzXsXSXCXmXVX4XpXVXlX$X,X .o e t 0X9XD.S.O A D J J J K J J J K K K J A A ",
"G F G K D F D K J G D P D - 4.gXB.j 2.5.m M m 8.2X;XxXFXzXmXCXCXNXmXwXsXxX:X>X(.% d k 2.b b n L.4.@ D J J J J J K K K P J G 5 G ",
"J J G K K G K G K D F K q z gXZ.j j v N v c N 2.#.hX#XbXBXMXmXnXmXvXzXbX&X%X$XT e v 5.A.c.j M j.gXr q K J J J J J K K J J F A G ",
"G K F G K K K K K K ! F - 4.K.c j B K.j z c M.m . 9.hX&XcXAXmXnXvXAXlX|.>X%XX.X 4.A.v.d.K.N B n C.N.& P J J K P P P K K K K F G ",
"G D K G K G K G K J J F A r 4.b t S.gXh g m b + 5 & 9.hX&XyXbXnXbXjX XeXOX .1 5 e N n f.L.K.x n g.z 5 L J L P P J J J P P K 5 G ",
"K K K K K J J J J J J J K 3 4 b M.P.H.V.M c o q 8 8 > $.hX%XeXlX$X X1X`.S , ! K o g V.H.H.P.B.c b 2 G J P K J K J J J P K K C G ",
"K K K K K J D J J J D K D A @ t gXJ.m.m.J.N r - + , 8 & _ 1XhX1X2X2X7.1 < q = O c v.m.G.H.J.I.t - L I J P P P P P -.P P K K G G ",
"J F J J J J D J J J J J F -.- D.P.m.H.n.x H.J.M.N z r : X @ $.@X/.7   @ ; d m C.F.n.n F.J.H.I.| < P J P P K P P P K K P P P D J ",
"K J J J K J J J K K J J D D q 5.P.m.H.n x n.F.n.Z.C.Z.B.v.g.c N g.m x.v.n.F.G.z.n N k.m.H.J.J.: L P J K P L J K P P L P K K K K ",
"J K K K K J K J J J J J D J D - m K.h.h M.J.B N k.n.n N j.n.G.n.C.l.l.h.m.m.x Z.N c x z.m.J.b < L J P P K P J P K P P K P L P K ",
"K J J D J J J J K K J D D D J F o b B.Z.k.n.B M.j.n B.M v.k.M g.n h.h.n n.G.M x n.k.z.V.B.t - L J K I P P J P K P K J P K J P P ",
"J K K J J J J J J K K J U J K K K < e 5.B.n.n.f.N z.n.d.n.Z.c N n F.H.k.v.n.d.g.h.H.Z.m : q K -.K P P K K P P L L K P P P L K P ",
"J J K K J J J L J K K J J -.K -.K K J 1 r 5.B.Z.Z.H.z.d.j.n.j.k.j.f.h.h.N j.B.F.M.b : > 0 K K K K J K L L H J J J L J J J L P J ",
"J J K K J J J J -.D J P -.J K K J J -.L A - , z m k.M.M.n.n.V.Z.C.M.B.v.x.4.2.u , < J D J -.P P K L K P L L J L J K L J J -.L J ",
"D D D J J D J D J D J J J J L J J J L J J H U U , + + r r t z t r r r : = & 1 A D D J J D J L J L J L J J L J J J L J L J J A 5 "
};
