/* XPM */
static char *_cf4b1387e584a97eaac5fdb6d980a88LQN12t2cLgCd3GOB[] = {
/* columns rows colors chars-per-pixel */
"64 64 18 1 ",
"  c #8C0202",
". c #8E0202",
"X c #930202",
"o c #970202",
"O c #9B0202",
"+ c #9F0202",
"@ c #A30202",
"# c #A40202",
"$ c #A90202",
"% c #AF0202",
"& c #B30202",
"* c #B60202",
"= c #BA0202",
"- c #BF0202",
"; c #C20202",
": c #C60202",
"> c #CA0202",
", c #CD0202",
/* pixels */
"OOoO++++ooooOoOO#$$$****+OOoOOO+$&%%&&&&oXXXoooo#$%$%$$$OoooXXXX",
"OoooOOOOooXooooo###$&*&&+OoOoOOO$%%%&&&%o...XXoX#$$$$$$$oXXoX.X.",
"OooOO+++oXoXoOoO@##$&&*&+OOoOOOO%%%%&&&%oX..XXoo#$$$$$$@OXoXX..X",
"OoOoO+++OooOOOOO#$$#&&*&+oOOoOO+$%%%%%%%o.XXoooo#$$##$$@oooXXXXX",
"#@##$$$$=;;;-;;-**&&&&&&@++++++++OOOoooooOooO+++oXXXXoooOOOO++++",
"$#$#%%%%;>>,>>>>=**=&%&%@++@@+++ooOoX..XoOOO++++.. ..XXXO+O+@@@@",
"$$##$%%%:>>>>>>>-***&&&&@@+++@++OoooXXXXoOOO++++....XX.XOO++@@@@",
"$#$$%%%%;::::>::=*=*&&&&#@@@++++OOOOXXXXOOOO+@++o.X.oooo++++@##@",
"*&&****=$$#$$$$$==-===**%##$@+++$%%%&&&&%%$%%$%%&&**-;;-%%%%$$%$",
"==**===*#+++@@@@*=-=====%$%$@+@@%&&&*===&%%&&%&&=--->>>:*&%&%%%%",
"=****==*#+@+##@@=-=-==**$$$$+++@%&%&*===&%&%%&%&=-=-:>>>&&&&%%%%",
"********$@@@####*===****%$$$@@@@%%%&***=&&&&&&&&==-=::::**&&%%%%",
"$$$$@@++$&%&***&$@#@@@+@#$$#&**&++O+@###&***=**=$$$$##@#;:::=***",
"$#$#+O++%*&&===*#+@+OO+O###$*=**+oOo+@+@&======*$#$#+O++:>>:====",
"$$##++O+%*&&*==*#@+++O++##$$****+OoO++@+*=*=====$$##+O+@;>>>=*=*",
"$#$$++++$&&&**=*#@@@+++@####&**&OoOO@@@@&****&&&$#$$+++@-::;=***",
"%%$%#@@@+O+O#$$$&&&&%&%%OXXoXXoXOOOO#$$#+O++OooO%&&&&&%%+OOOoooX",
"%%%%##@@OooO###$&***&&&&o.......O+O+$$$$+OOoXX.X%******&OXoX..X.",
"%%%%#@@@OOoO##$#&&&&&*&&o..X....OO+O$$$$OOOoXXXX%**&*&*&OXoXX...",
"%$$$#+@+OoOo#$$$%&&&%%%%o.X..X.XOOO+##@@OOOOXXXo$&%&%&&%ooXoXXXX",
"oXXXXXXXoOoO&***@++OoXXXooooOOOOOoOoXX.XO+O+++O+ooXoO+OOoOooOOOO",
"XXXXX...ooOO&==*+ooo....ooooOO+OoOOo....OO+O@+++XXXXoOOOoooO++++",
"XXXXX.X.ooOo&*=*+oOo....ooooO+O+Oooo.. .OOO+++++X.X.oOOOoOoOO++O",
"OOoOooooO+O+&==*@OOOXX.XoOOO++++O+O+oXoo+++++@++oooO++++OOOO+@++",
";;:;;;:;*&&&&**&########@@@@$$#$&&&*;:;;&%$$#@@@-;:;:::;&%%%$$$$",
",>>>>>>>-****&&&$##$###$@@@@$$$%***=:>>>&%%%@@@#;>>>>>>:*&&%$$$$",
",>>>>>>>-***&*&&$#$##$##@#@@#$$$***=:>>>*%%%@@+#:>>>>>>>&&&&$$$%",
">:::::>:=*******%$#$$#$#####$$%$&*&*;:::&%%%#@@#;:>:>:::*&&%%%$$",
"########-:::::::*%%%%%%%**&****&++O+@@@@%&&&*****&*&&&&&*===****",
"++O+++O+->>>>>>:*&&%%%%%*===*==*+ooOOooO%&&***=*%%%%%$%%*======*",
"+O+O+O++-,>>>>>>*&&&%%%&*=*====*OoooOOOO%&&&==*=%%%%%%%%=====*==",
"@+++++++=:::::::*&&&%%%%*******&OOooOOOO%&&&&***%%%%%%$%********",
"&%%%%%%%+OOO+@@@&==*&%%%++O+@+@+OOO+++++O+++oooo#$$#@@@@OOOOoooo",
"&%&&&%%%OX.XO+OO&*=*%%%$+oOOO+O+O+OO++++OOOoX..X@#$#@+@+oooXXXXX",
"&&&&%&&%O.XXOOO+&===&%%%OOOoO++OOOOO++@+OOOOX.XX@$##@+@+oXXXXXX.",
"&%%%%%%%OXXXO+++%**&%$%$OOoO++++O+O++@+@++++oooo@#$#@@@@OOOOoooo",
"++++@@@@+OOO%&&&OXXXoXXo+++@$$$$OOoO$$%%-;;;;;;;$@@#%%%%;;;;;;;;",
"+OOO++@+++++&***o.....X.+++@$$%$OoOO$%%%:>>>,>>:$@##%&&&:>>>>>,>",
"+O+O+@+@++++&***o....X..++@@$%%$OOOO$%%%;,>>>>>:$###%%&&:,>>>>>>",
"++++@@@@+@++&**&OXXoXXoo+@@@$%$$+O++$%%%-:::::>;$###%%%&;;:;::::",
"********%%%%&&&&-;;;*&&&%%&%%%%%********####%%%%%$%$$#$#+OOO#%$$",
"==*=====&&&&&&&&:>>>-*==&&&&%%%%*===**=*#@+@#$#$%%%%$$#@oXXo##$#",
"========&&&&&&&&:>>>===*&&&&%%%&*===*=**@@@+$$$$$%%%$#@#oXoo#$##",
"**&&****&&%&%%%&-:;:=***&%&&%%%%****&&&&@+++#%$$$$$$##@@Oooo##$$",
"OoOoO+O+$%%$%%$%@@@@+++@%**&%&&%+OOOO+OO+OO+$%%$OXXXXXXXOOO+%%$%",
"ooXoOoOo#%$%$$%$+OOO++O+&&&*&%&%OoOoOoOoOOOO$%%$o.X.X..XO++@$%%%",
"oXoXoooO#%$%%$$%@OO+O+++&***&%&%+ooooOoOOOO+$%%%o......X++++$&%%",
"ooXoOOOO#$$$#$$#@@@+@+@+%%%%%$$$OOOOO++O++++%%%$OoOoOooo+++@$$$#",
"+OOOO+OOXXX.XoXX%****==*OXooXX.o@###%&&&$$$$%%%&;;:;;:;;%%%$oXoX",
"++O+O++OX......X%====--=OXX.....@$#$&*&&%$$$%&%&:>>>>>>>&%%$o..X",
"+++O+OOO.......X%==*--==OXX.....@##$&&**$$$$%&&&:>>>>>>>%%%$o..X",
"++@++@++OXoXOoOO&=======OXooX.XX@#@@%&&&%$$$%&&&;:;::;:;&%%%OoOO",
"&%%%%%%%*===;::;====&&&&#$##@++OX.XX@@##%%&%=*=*$##$$##$*===;:;:",
"&%%&%%%%=-==:>>>-=*=&&&%$$$$@@++....+@@#%%&&*==*##@@####**==>>>>",
"&%&%%%%%==--:>>>-**=&&&&%$$$++@+....@@##%&%&*==*$@@@@###*===:,>>",
"*&&&&%&%*===;:;;===*&%%&$$$$@@@@OooO#$##$%$%&&&&$@#####$&*&*;;;;",
"-=-=====%#$$#@##&==*%$$$%%%%&&&&;:::****+OOO++++$$$$%%%%@++++OO+",
"--=---==%##$@@@@&=*=$$$$$%$%&*&*:>>:=***+OOOOOO+#$$%%&%%+O+Ooooo",
"---==-=-$###@+@@*==*%$$$%%%%&&&*:,>>=***+OOoOOOO$$$$%&&%+O+OoooO",
"***&****%$$$@@+@%&&&$#$$%%%%****;;;;&&&&+++++@@@#$$#%$%$@@@++O++",
"oXoXoOOO&=**%$$$+OoOO+++&**==-==$###++++$%%%****@OoOOOO+&*&*****",
"X..XoOOO%===$$$$+oooO+O+&====--=$@#@++O+$%%&**==+oooOooO&**=====",
"XXX.oooO&*=*%$%$OoooO+++***==--=##@@+O++$&%%===*+ooooOOO&****==*",
"XXXXoOO+&===%$%$+oOOO+++*-==----$##@++O+$&&%===*+oOOOoO+&=====-="
};
