/* XPM */
static char *_3714d5a173b4cfec43f3817cf32405eViwRuqn4fHS4jrZu[] = {
/* columns rows colors chars-per-pixel */
"64 64 211 2 ",
"   c None",
".  c #351B16",
"X  c #3B1E17",
"o  c #341E1B",
"O  c #3B1F18",
"+  c #36211B",
"@  c #3E211B",
"#  c #392322",
"$  c #3F2A2E",
"%  c #372324",
"&  c #3D2B34",
"*  c #42231A",
"=  c #4B271B",
"-  c #432623",
";  c #4C2B24",
":  c #422A2B",
">  c #472B28",
",  c #552D23",
"<  c #592F2D",
"1  c #5C3325",
"2  c #5A322F",
"3  c #553025",
"4  c #473535",
"5  c #4A3634",
"6  c #4B3439",
"7  c #473739",
"8  c #5D3535",
"9  c #5F3738",
"0  c #5E3A3B",
"q  c #553535",
"w  c #65342B",
"e  c #6A362E",
"r  c #6D3A2C",
"t  c #693726",
"y  c #743D2D",
"u  c #7C3D2F",
"i  c #633431",
"p  c #693730",
"a  c #633933",
"s  c #653C3A",
"d  c #6D3D39",
"f  c #6C3935",
"g  c #753D33",
"h  c #793F30",
"j  c #5A433C",
"k  c #7A412E",
"l  c #6C403B",
"z  c #7B4335",
"x  c #73433E",
"c  c #7D463D",
"v  c #7D493B",
"b  c #4A3D47",
"n  c #49404E",
"m  c #54444A",
"M  c #594445",
"N  c #6D4444",
"B  c #6A464C",
"V  c #694747",
"C  c #734542",
"Z  c #7A4742",
"A  c #7B4A44",
"S  c #704749",
"D  c #744B4D",
"F  c #7C4D4C",
"G  c #774C47",
"H  c #664A53",
"J  c #7A4E51",
"K  c #784C59",
"L  c #62565E",
"P  c #69565B",
"I  c #7A5153",
"U  c #7F5957",
"Y  c #7D565C",
"T  c #745157",
"R  c #7D4F65",
"E  c #735B64",
"W  c #726268",
"Q  c #786F79",
"!  c #736A70",
"~  c #7B7077",
"^  c #834435",
"/  c #894A35",
"(  c #84473C",
")  c #884638",
"_  c #854B3C",
"`  c #8C4D3D",
"'  c #864A37",
"]  c #8C513E",
"[  c #94543F",
"{  c #98543C",
"}  c #844C43",
"|  c #8B4E44",
" . c #814E4B",
".. c #904F42",
"X. c #8E5245",
"o. c #83524E",
"O. c #8C534C",
"+. c #845147",
"@. c #935344",
"#. c #985846",
"$. c #93564D",
"%. c #95594D",
"&. c #9B5D4D",
"*. c #84475A",
"=. c #835454",
"-. c #8B5653",
";. c #8D5955",
":. c #8E565A",
">. c #8C5B5A",
",. c #83595C",
"<. c #945A54",
"1. c #9B5D53",
"2. c #925E5C",
"3. c #9A5E59",
"4. c #A05F50",
"5. c #9E6253",
"6. c #95615D",
"7. c #9C625C",
"8. c #A36455",
"9. c #A2655B",
"0. c #A76B5E",
"q. c #AA6B5D",
"w. c #A36856",
"e. c #8C5665",
"r. c #935E64",
"t. c #995E67",
"y. c #965868",
"u. c #A85669",
"i. c #B25B74",
"p. c #B45E79",
"a. c #8C6265",
"s. c #896369",
"d. c #936263",
"f. c #9B6562",
"g. c #9D6A67",
"h. c #956569",
"j. c #9C646A",
"k. c #94696B",
"l. c #9A696B",
"z. c #976862",
"x. c #8F6B72",
"c. c #9D6D73",
"v. c #976C76",
"b. c #83777B",
"n. c #9F7176",
"m. c #977078",
"M. c #9E7379",
"N. c #A16763",
"B. c #A46965",
"V. c #AA6D63",
"C. c #A26D6B",
"Z. c #A86D69",
"A. c #B16E62",
"S. c #AB7166",
"D. c #A5706E",
"F. c #AC726C",
"G. c #B27363",
"H. c #B3756C",
"J. c #B57A6C",
"K. c #BA7E6D",
"L. c #A26573",
"P. c #AC6574",
"I. c #A16B73",
"U. c #A3677A",
"Y. c #B8647A",
"T. c #A47274",
"R. c #AB7472",
"E. c #A77877",
"W. c #AD7976",
"Q. c #A5747A",
"!. c #A97679",
"~. c #A6797E",
"^. c #AC797D",
"/. c #AB7A7C",
"(. c #B27974",
"). c #B17A7C",
"_. c #B27E7E",
"`. c #B37C7C",
"'. c #B87E7D",
"]. c #BB827D",
"[. c #BE8272",
"{. c #C1887F",
"}. c #886C83",
"|. c #847F87",
" X c #AD6E84",
".X c #AC7B83",
"XX c #A8788C",
"oX c #B07489",
"OX c #B87789",
"+X c #B07B91",
"@X c #B58284",
"#X c #BD8585",
"$X c #B4828A",
"%X c #BC8A8C",
"&X c #B9868E",
"*X c #A88297",
"=X c #B68493",
"-X c #BB8C95",
";X c #BF8F9B",
":X c #BB8396",
">X c #B78EA7",
",X c #BB92A4",
"<X c #C38E8C",
"1X c #C58D84",
"2X c #C4899D",
"3X c #C48C97",
"4X c #C4959C",
"5X c #C79492",
"6X c #C493A8",
"7X c #C7A8BA",
"8X c #CBB6C5",
/* pixels */
"                                                                                                                                ",
"                                                                                                                                ",
"                                                                                                                                ",
"                                                                                                                                ",
"                                                                                                                                ",
"                                                                                                                                ",
"                                                                                                                                ",
"                                                                                                                                ",
"                                                                                                                                ",
"                                                                                                                                ",
"                                                                                                                                ",
"                                                                                                                                ",
"                                                - % + o o o O                                                                   ",
"                                            j # o o o o o . . o @                                                               ",
"                                          6 % % o # # @ O - - @ @ X @                                                           ",
"                                      P 4 4 > < w e g g u g r r w , * . O                                                       ",
"                                    ! m 4 8 s x c ( ( ( ( ) ) ) / / k , * .                                                     ",
"                                  *XL H B C Z } } +.| +.@.@.@.@.@.@.` ^ k , @                                                   ",
"                                  Q W T I F o.O.O.$.<.%.1.1.4.4.4.8.&.[ ' k 3 *                                                 ",
"                                ~ W P Y I o.;.2.1.7.7.7.9.N.q.q.q.q.q.#.] k t * *                                               ",
"                              b.L P T I =.;.2.f.g.B.D.Z.Z.F.H.H.H.A.9.&.@.] k = *                                               ",
"                              W m V S D =.>.z.C.I.T.E.!.^.).).`.(.H.q.8.&.@.' 3 @                                               ",
"                              m 4 9 C D =.>.l.I.Q.!.^.).^.).)._.`.(.S.0.w.&.] 3 @                                               ",
"                              M $ 8 C F ,.6.l.n.~.^..X^.!.).@X@X].W.D.S.w.w.@.1 @ ;                                             ",
"                              5 % 8 C  .O.=.,.h.M..XM.~..X_.].W.z.,.D l 8 k v k @                                               ",
"                              5 # 8 2 2 b V B D Y e.h.~.@X_.C.d.=.,.k.k.z.;.k l * 1                                             ",
"                                - 2 s T a.m.m.x.s.U >.n.~.W.7.2.h.s.s.U F ] ] v = t                                             ",
"                              q - s N N 6 $ n & H I A g.W.J.5.%.H 6 b - j j v X.z '                                             ",
"                              N ; l x 0 N D Y s.s.o.} $.V.S.8.4.6.a.m.g.7.5.5.%._ @.                                            ",
"                                C C F ;.6.d.d.6.6.f.F.7.8.8.q.K.J.S.0.V.J.K.G.&.} {                                             ",
"                                ;.x F D.].].].%X$XE.7.5.V.A.A.q.S.].%X%X5X1X[.5.] {                                             ",
"                                A C o.F.#X4X4X-X~.<.<.S.'.#X].H.S.E.].;X5X5X].V.%.                                              ",
"                                  Z -.!.%X4X4X~.Q.C.I.Q..X.X.X).W.`.T.!.%X%X].8._                                               ",
"                                  A  .C.@X&X.Xc.I.I.I.T..X.X).F.R.F.C.r.E._.F.<.                                                ",
"                                    C 2.!.^.l.>.d.r.r.t.L.U.L.L.f.:.:.=.l.R.B.|                                                 ",
"                                    d  .l.T.r.J K y.U. X:X2X2X3X=Xv.e.r.R.C.3._                                                 ",
"                                      C :.I.I.h.*.}.*X>X8X7X8X,XXXR L.Q.!.C.O.'                                                 ",
"                                      g  .z.T.c.u.e.*X+XoX>X+X>X=Xu.!.W.T.;.'                                                   ",
"                                          F k.m.r.u.U.:X6X6X2XOXY.L.W.E.6.}                                                     ",
"                                          i D h.h.y.u.i.p.p.OXY.P.^.E.f.A                                                       ",
"                                            N C r.m.c.U.oX+XoX=X%X#XD.A g y                                                     ",
"                                          G i i C j..X.X-X3X;X3X-X^.;._ y u v                                                   ",
"                                          e p f d o.l.Q..X.XXX.XT.<.} z ( ^ k                                                   ",
"                                          g c A Z  .-.>.r.>.-.-.O.} ( | ( ^ h }                                                 ",
"                                          Z } O.-.-.-.-.2.2.$.-.O.O.$.| | ) ^ e.                                                ",
"                                            } O.$.<.2.f.7.f.7.7.1.%.%.@...` )                                                   ",
"                                              O.$.<.3.3.7.3.t.1.1.1.1.%.@...:.                                                  ",
"                                              6.3.7.f.N.7.7.4.3.1.1.1.%.@...                                                    ",
"                                                  C.C.B.N.N.9.4.3.1.1.%.@.                                                      ",
"                                                    z.I.C.N.f.3.3.1.%.O.                                                        ",
"                                                            f.3.1.                                                              ",
"                                                                                                                                ",
"                                                                                                                                ",
"                                                                                                                                ",
"                                                                                                                                ",
"                                                                                                                                ",
"                                                                                                                                ",
"                                                                                                                                ",
"                                                                                                                                ",
"                                                                                                                                ",
"                                                                                                                                ",
"                                                                                                                                ",
"                                                                                                                                ",
"                                                                                                                                "
};
