/* XPM */
static char *result[] = {
/* columns rows colors chars-per-pixel */
"64 64 245 2 ",
"   c #010102",
".  c #070B0A",
"X  c #0C140B",
"o  c #0A1509",
"O  c #131B0D",
"+  c #18190B",
"@  c #0B0D13",
"#  c #0C1412",
"$  c #0D1A12",
"%  c #0F1119",
"&  c #111314",
"*  c #131B13",
"=  c #141C1B",
"-  c #191D1C",
";  c #161817",
":  c #152213",
">  c #192415",
",  c #16221A",
"<  c #1B241C",
"1  c #1D2B1B",
"2  c #1B2918",
"3  c #162917",
"4  c #212D1D",
"5  c #252717",
"6  c #24321E",
"7  c #28321E",
"8  c #28371C",
"9  c #352D14",
"0  c #1A1C22",
"q  c #1A1F25",
"w  c #1C2423",
"e  c #1D2A23",
"r  c #1B2725",
"t  c #1E322A",
"y  c #222525",
"u  c #232C24",
"i  c #22262A",
"p  c #242C2B",
"a  c #292C2D",
"s  c #2B2827",
"d  c #263422",
"f  c #283624",
"g  c #263824",
"h  c #293825",
"j  c #25322B",
"k  c #2A342D",
"l  c #2B392D",
"z  c #26392C",
"x  c #32362B",
"c  c #2B2D32",
"v  c #262932",
"b  c #2C3432",
"n  c #2D3A34",
"m  c #2D3B39",
"M  c #283535",
"N  c #313535",
"B  c #323B35",
"V  c #32353A",
"C  c #343C3A",
"Z  c #393D3D",
"A  c #342D2E",
"S  c #251F1B",
"D  c #443E1A",
"F  c #4B3630",
"G  c #542819",
"H  c #2D4239",
"J  c #34433B",
"K  c #3B443D",
"L  c #34493E",
"P  c #354337",
"I  c #47441B",
"U  c #774E17",
"Y  c #734F18",
"T  c #554828",
"R  c #595326",
"E  c #4E4432",
"W  c #795527",
"Q  c #6A532C",
"!  c #7A662C",
"~  c #766936",
"^  c #7B7233",
"/  c #6E652E",
"(  c #3B3C42",
")  c #3A3B46",
"_  c #6C3743",
"`  c #3C4443",
"'  c #3C4B43",
"]  c #3A4646",
"[  c #3B5349",
"{  c #3D5352",
"}  c #414346",
"|  c #424C44",
" . c #43444C",
".. c #454B4C",
"X. c #4A4C4D",
"o. c #494844",
"O. c #43524A",
"+. c #47534A",
"@. c #4B4C53",
"#. c #474951",
"$. c #4D5254",
"%. c #4B5957",
"&. c #53555B",
"*. c #555B5C",
"=. c #595B5E",
"-. c #525855",
";. c #594A4B",
":. c #755156",
">. c #4A625D",
",. c #59635B",
"<. c #5B5D62",
"1. c #565B63",
"2. c #4C6965",
"3. c #5C6365",
"4. c #5B6567",
"5. c #557370",
"6. c #616566",
"7. c #63646B",
"8. c #666A6C",
"9. c #696B6D",
"0. c #626965",
"q. c #68726C",
"w. c #6A6C73",
"e. c #676B73",
"r. c #6D7174",
"t. c #6E737A",
"y. c #72757B",
"u. c #747B7C",
"i. c #797C7C",
"p. c #757676",
"a. c #73686A",
"s. c #726B45",
"d. c #815B1A",
"f. c #845D25",
"g. c #8C6826",
"h. c #886835",
"j. c #9C7735",
"k. c #8F722E",
"l. c #A4792C",
"z. c #84621F",
"x. c #937342",
"c. c #865B5F",
"v. c #70827B",
"b. c #9F8335",
"n. c #A98538",
"m. c #B28C36",
"M. c #D9B539",
"N. c #D0A939",
"B. c #E6BB3D",
"V. c #C49934",
"C. c #E3C53D",
"Z. c #B28D44",
"A. c #B79946",
"S. c #AB924A",
"D. c #B6A34B",
"F. c #8F8A63",
"G. c #C49C48",
"H. c #C8A747",
"J. c #D9B747",
"K. c #D9B957",
"L. c #CCAE52",
"P. c #E2BD53",
"I. c #E4BA4A",
"U. c #D5BB63",
"Y. c #E1BF62",
"T. c #DDC350",
"R. c #E6C759",
"E. c #F1CE57",
"W. c #F3D759",
"Q. c #E9C94E",
"!. c #D2C26F",
"~. c #EACE6D",
"^. c #757A81",
"/. c #7A7C81",
"(. c #767883",
"). c #7D8284",
"_. c #7F8389",
"`. c #789389",
"'. c #82848C",
"]. c #848B8D",
"[. c #898C8D",
"{. c #828585",
"}. c #8A8D93",
"|. c #858A93",
" X c #8D9294",
".X c #8D9499",
"XX c #919395",
"oX c #93959B",
"OX c #969A9C",
"+X c #989C9C",
"@X c #8C918D",
"#X c #9CA09E",
"$X c #9B9DA4",
"%X c #969AA3",
"&X c #9EA2A4",
"*X c #9EA1AA",
"=X c #A2A5AB",
"-X c #A6A8AB",
";X c #A8B2AE",
":X c #AAACB2",
">X c #A6AAB3",
",X c #AEB2BA",
"<X c #AEB2B4",
"1X c #B1B3B5",
"2X c #B3B5BB",
"3X c #B5B9BC",
"4X c #B9BCBD",
"5X c #B2BBB1",
"6X c #B0AEB9",
"7X c #BC9E9C",
"8X c #C09593",
"9X c #BCC2BD",
"0X c #EFDB88",
"qX c #FAF090",
"wX c #FFFFAA",
"eX c #BBBDC2",
"rX c #B7BAC3",
"tX c #C1BFC2",
"yX c #BEC2C8",
"uX c #C1C3C5",
"iX c #C5C9CC",
"pX c #C6C8CA",
"aX c #CACDD2",
"sX c #C7CBD3",
"dX c #CDD2D6",
"fX c #D3D6DB",
"gX c #D5D9DC",
"hX c #DADBDD",
"jX c #D1D4D5",
"kX c #D1CFD6",
"lX c #DEE4DE",
"zX c #DADDE2",
"xX c #DDE1E4",
"cX c #DDE1E8",
"vX c #E4E6EA",
"bX c #E6E9EC",
"nX c #EBEDED",
"mX c #E3E6E5",
"MX c #EAECF2",
"NX c #F4F5F9",
"BX c #F6F9FC",
"VX c #FCFEFE",
"CX c #F3F3F4",
"ZX c #F0EFF0",
"AX c #E9DADE",
/* pixels */
"> d j u d 6 d 6 d d d 6 d d 6 d 6 6 d 6 6 d 6 d d d d 6 6 6 6 6 5 O 2 d d d d d 6 6 6 6 d 6 d 6 6 d 6 d 6 6 d 6 6 d 6 6 6 6 d 6 ",
"d h f f d d d d d g g d g f f g f d g d g g f d g d g g f g g : d +.u 2 g g d d f f h g g g h h d g d d h f g g d d d g d d d g ",
"d 6 f d 6 g d d g g d f g f d g g d f f g f d g d d d f d h 3 +.lXtX5Xn 1 h d d f f f f d d d f g h g g f f g d 6 d d d d d d d ",
"6 d d f d d d d d d g d d f f d d d g f d d d d d d f d f 8 : 0.v.  #XE : d d g d d d g g f d d f d d d f f f f d g d g d d d d ",
"d d d d f d d d f f f d f g d d d g 6 d g d d d d d d g f 6 h O   ).&.F K 1 f 8 d d f f d g f f d h h h f h h f d g d g d g g g ",
"f d d d d f 7 f g 6 g f d f d d f d f g f d g d 8 g d d g 6 O O {.rXr r.x 1 8 h g d f f f g f g d d d f g d d g d d f h g g d g ",
"6 d d d 7 d f f d f g d f 6 f f f d g h f f f d d 8 8 f 6 $ -.jXxXrX9.@.3 1 d g f d 6 g f f f f h f d 6 d d d d d f f d g h f h ",
"f d d d d f 4 f f g f g f d g g d g f h f h f 8 g 6 6 4 o 5XVXmXpX-Xi.=.' , 6 g f d d g f f f f d g g d d f g f f h h h f f g 6 ",
"4 d d 6 f 7 4 f d f d d f d d d d g d g 6 g d f 7 f 4 o ;.8X8XnXAX:._ :.c.F 5 g d f f f g d f d f d f d f g g h h f f f d d d 6 ",
"f d d d 7 4 f f d 6 d d d d d d d f f 6 6 6 d f 8 8 ; +XAXc.G ;.c.r.G F F F S 4 g f f f d d f g d f d f f f f d f g d h d g g 6 ",
"7 d f d d d 4 f d d 6 d d 8 6 h 8 6 d d f f 6 7 f * X [.(.c A i i V ) i s A s u h f h z h f g d d f f f f f f h h f f h f g g 6 ",
"7 d f 6 6 f f f 6 f 6 d d f f > 4 f d h f f f f > ,.w.) % ) oX%X/.) v ) Z @.9.o.o > f g d f f d f f 8 f f f f f g d g f h d d 6 ",
"7 f d f f f f f d 6 4 d f 7 : o.x > ; o o o - + 5 X.].#.v rXrX:X'.a.)  .@.#.v i -.+.> d u 6 h f f h h f f f f h f d f f h f f 2 ",
"7 u d 6 4 f 7 4 d d 6 6 f + ,.@X@X+ E ].+Xq.o.1Xc u.uXc 7.MX,X%Xt.1.@.c <.1.@ c 4X4X# , e * o d 4 : < d f g 8 h h f g g g f h 1 ",
"7 f d d 4 f d 4 6 d 6 d 8 + ,.@X-.hX-X=.X.r.XX&XV oXuX ..XsXoX|.e.&.'.) &.1.) 0 i.p.y.u.-XhX Xo h +.*.B 6 f 6 d d d g f g g h 6 ",
"7 u f 4 f d d 6 d d d 6 8 5 x r.-X-X; 9.r.; @ - . 9.=X0 vXcXrX>X(.1.<.@.(.i w. .a ( ( b b 7.BXuX8.;XxX6 6 h 8 d g h f f f h g 6 ",
"6 f d 6 7 f d 7 d d d 7 9 X u.{.gXk kXVXfX2X} oX@.-Xa @ aXzX|.(.7.1.&.e.|.V  .(.(.7.  A <.; i NXp.$.9.O g g f f h g f h d d f 4 ",
"4 u d 6 f 4 d d 6 6 - : 2   ].=XuXw.VX( <.1Xi.9.6XX.  +X&XmX%X_.(.t.1. .&.*X) ) _.@.#.tX<.=.% 8.-X .B > 1 d f f d d g h f g h d ",
"7 4 f 7 7 4 4 4 4 3 { 2.5.H %.jX1Xw.fX& } 7.} v N   =X*X- nX,X%X(.(.(.(.) (.*X#.0   +X<.p.V @ } :X$.p O H 4 1 d d g h f h d h d ",
"6 4 4 6 4 7 4 7 3 H 2.2.2.5.m 1XkX=.=X&.A A % - % tX2X@ 0 xX:X%X>X(.(.&.@.) }.yX}.&.=X4XpX$X@ } =Xk l `.v.>.z 1 d d h h g g d 6 ",
"7 6 6 4 4 4 4 4 < u l H , >.] $ '.%X1.^. .c ) &.tXXX0 . |.MX$X>X.X(.) e. .4.V >XMXvXvXzXvX:X. y.p.X `.+.1 H ' d 2 f h f f g h 6 ",
"7 7 6 4 f 4 2 < u , n C , %.e p ` '.y.$.y.(.y.7.#.# . /.VXzXrX>X|.*X|.7.|.#.e.i y.aXvXvXiX$.%..Xw , %.L = w J n 4 f h h f g h 6 ",
"6 d 6 6 6 4 2 ' ' n j C j = j ` i i <.=.` ` c - ; & /.VXBX|.$X,XrXrXrX(.e.rX1./.- i 7.p.*...*.%.n o $ * . e J z * 1 g f f g h d ",
"7 u 6 7 6 3 P K | u $ = < < p w p p j = $ w < y u N b i.VX[.%XrXyXsXeX>X].^.` j ( a 0 ; r j , t >.H e M 4.' z L H l 1 d d d g d ",
"7 4 d 7 f > g O.P l e L [ e < ` d J l p C B B B B B k < hXhXeXsX>X^.-.` z r B B B B C C b p B u z %.>.2.>.' O.[ H ' d 4 d d g d ",
"7 d 6 6 7 u : P +.n ' ' t r N p J l , J ' J n C k C b X -.1Xr.E z M n J C J B n P B n b b k ; | z , [ %.t K >.m ' l g 6 z d d 4 ",
"6 u 6 7 d 4 4 * k J z p m ] ] C ' , , K [ [ L B B j -.=X4X<X).b M ` J n B m B J B m l B n a & k { t . t n r w J m K P 6 h h g d ",
"7 d d 6 f 6 u 4 X B e r p n N b m , , ' O.[ J ` y v.VXhXjXbXNXCX1.t ] J n n J ' J m J n l u & k z H z w r b K C l ,.4 f g g g 6 ",
"6 6 d 6 6 4 4 , J < 3.XX9.` s < n : > C J L P j i.gX8.` *X>XoXgX,Xp ' n ' Z n L K J m B b w . e m z C p = e , * u < u h f f h d ",
"7 d 6 7 f f > K 5 =.VX` 7.$X- C O.L , ' H J j =.VXCXsXgXsXe.) >XdX .u O.OXh p B n b l m k z L ] m e O.m ` j * , 2 d h h h g h d ",
"6 u f 6 7 5 p | #.ZX3X= ( $Xw ; L O., | J L , 4XCX,X}.*Xe.p b %XzX#.$ _.$.1 J C j N b l a C n ' p r 4. X..$.a < 4 u d f h g h 4 ",
"7 f 4 7 7 > J { yXBX:XZ @.XX( XXt.C $ L L H z i.a.E e.t.C j 3.fXeXV = =X$.u | B n Z J C a w M #.= z 8..X$.1.} u y 4 d g h g h d ",
"d d d 4 6 > ( >.bXMX<.@.#.%X@.zX-X9.. L L L k } F p.q.j M ] sXbX.Xp = &X Xw L B C B C C < @.4XgX:X- &.; 1.e.&.r - u d f f f h d ",
"7 u d 6 f , H [ iXAXA w.@.'.'. .pX=.o O.[ K N E ..J z ` e >XNXyX3.u w w.dX#.w b b j B B < [.i {.5XV e.p &.1.1.r < 1 f f f d g 6 ",
"7 7 d 6 6 5 t %.b pX .'.$X) i.fXhXS : | L L C ] m H ] e ).VXzXoXj J b c eX2Xj j B n J b a ` N r.aX.X7.<.(.(.*.p u < f h f g f d ",
"7 u d 6 6 4 $ ,.j N A (.vX6X=.6.c @ < L [ L P H L ' j $.MXhX:X] m ' ' p (.zXy.r J j B b b ; b Z u./.=X3XyX_.M m w 4 f h l f h g ",
"7 d 6 6 4 d : n O.r _.#.pXNXpXZ ` & - P L H H H H n u jXbX4X*.p k 5 s @ r yXrX) p B B x x X - c $.|.%X>Xt.y ] M , d d h f f h d ",
"7 u 6 4 d u , l e.# .X7.{.VXoXV |.y ; B L H H P ] , OXVX3Xw.= e *.XX-X$X1.$XsXy.e P B k 0 B 9.t.*X) |.fXC z ] # 5 4 j h f f h d ",
"u d d 6 d 2 h ,.m a ; }.$.aXpXi -XZ X C ' H J ` j +.VXfX/.- b uXVXmXfXMXVXsXrX|.p x l k s eXV 4X,X}.rXK * >.[ r , d h h g f h 6 ",
"6 d 6 6 d 4 u C , y i w p.V oXt.1X0.. ] ' ' J J p uXBX,XV u jXBXOX3.1.7.}.pXrX}.a B P b p 3XN p.dX] r.B   2.`.2.2 6 h h d g g 6 ",
"7 d 6 6 d d 5 , y X.X.4X*.k ( :X=Xr.. b ' ' P p 9.VXzXw.= v.VX:X@.V V q 1.sXrX(.M M b B & r.-.s   $.p.# Z , { z 1 d f f f h h h ",
"d d d u f 4 6 2 Z } $XhX0.s S <.eXs ; 1 | ' J u 4XVX<X( e +XVXaX .v ) e.fXyX%X#.] c P k c [.} oX` +X( yXyX.Xo 1 d f f f f f f d ",
"d d d d f 6 4 : y i.:Xq     & &XOXX.& > K O.n J xXBX}.p p ).ZXVXbXyXzXBXdX,X@.(. X- ` < v.{.&.xXvXN E yX% ;X+.: f f f f f f h 6 ",
"6 d 6 d 7 6 7 K   @.2X% @X@X-XOXy.9.& - P ' l $.CXCXt.v n ..xXdXfXsXdXrX>X&.$.BXXXw P u :X6.$.dX4XX . 1.v u.r.O h f f f f g g d ",
"d d f d d 4 < [.(.q |.6X%XoX*X'.tX-.X , h ' n 4.ZXNX/.r ] e /.pX%X%X.X}.b 4.MXMXt.r C u pX3.X.uX}.$X..- } $X< < f f f 6 g g f d ",
"4 d d d d 5 2 7.rX*Xe.%X@.#.7.w.6Xu w 2 w ' z q.nXCX$Xe m ] i *.^.r.3.V ; fXzXrX( a B e hXp.2X2XxX` 1.&.Z & | P 2 f f d f f d u ",
"6 d 4 7 d d , 9.(.|.(.&.oX<.c #.$X0 e 4 2 n l ,.mXVXiX&.r m ] p r M p ; ).xXsX(.q B l O 1X2X-X+XjX& Z c N &X+X4 4 f d f f g h 1 ",
"d d d d d f > -.@.7.|.a.#.}.(  .6X) > 6 1 1 n ' uXvXBXuX8.a p p j p q u.zXsX>Xm V C u . {.NXw.*.[.v 0 N  X&X6.u 2 f f f f h h d ",
"d d d d f 6 4 ; (  .1.e.7.X.( #.hXX.O f f < n C ^.>XgXBXzXrX[.6.*.r.,XdXsX6X@.a ] x 5 : k CX<.. 0  .v @.w.t.7.y 4 f f f d f d 2 ",
"d d g d h 8 O 6.4X<...$.@. .V 9.NXB > 8 u 4 + c ( t.'.eXNXBXBXVXNXBXMXyX%X&.p Z j , 5 > X vX7.V /./.y./.).e.b < 4 f 8 7 d d d 1 ",
"g g d 6 h 3 P MXVX2XV 8.=.&.i 2XlX; 2 1 5 + E E u ] 1.<.oXpXzXzXsXsX=X^.%.p B C N ; O x + hX=X# oXZ $.@.C $.a * 7 f f f f h d 1 ",
"d g f d g O -.:X}./.b *.n a 6.VXi.  5 E F Q ~ S.s.w ` #.@.&.7.w.8.<.&.] M n B u A E F ~ S.p.VX- X..X;Xq.*.+X:X| > h f h h f f 6 ",
"d d f f d 4 > &X/.w.u j J `.VXiX  9 !.0XT F Q ~.~ . l P ] ` C ` ..` C n J b c F Y S.g.L.~.~ yXnX*.m v.' r.<X}. XO h f h h h h 4 ",
"g d k d f f , ` zXNXvX3XiXBX:X5 ~ qX0XR.G.Y Q E < 3 : d n n B z m B ' P h 1 # E U.N.J.K.R.R.Q oXaXgXp.C p.mX].q.> f f h h h h 6 ",
"d d j d f d k * e 3.}.&X.X#./ U.qX~.K.N.I.P.!   X 2 6 > e n P J P ' P j 3 : @ 9 J.M.G.N.M.R.!.T ; $.$XiX9X=.+.u 6 8 f h h h h 4 ",
"d h g d f 8 f 8 1 * : * w . F.wXY.L.M.Q.j.f.U.L.Q 5 O O # $ e m z e # o + 9 x.K.J.P.U J.M.T.E.U.o O * = O - , d f f h h h g g 1 ",
"g d d g 8 f h g h h d 6 d d o F.~.M.M.T.Q S.j.l.R.L.D.k.R 9 + 5 5 5 D ~ A.E.P.H.f.g.h.h.K.V.~.I , f 4 d d d h h f h l h h h h 6 ",
"g f d f d g f f h d h f d g 4 5 S.Q.N.g.Q K./ S.g.G.n.L.Y.R.Q.L.H.K.Y.P.G.m.l.d.R.U x.d.l.P./ O z g g f h h h h h h h h h h h f ",
"d g f f g d f f h h h h f h h 4 + S.W.k.b.k.h.W.Z.Y j.g.Y W k.m.m.n.h.k.W W G.k.G.V.l.Q.E.^ X f d f f g h h h g f h h h h h h h ",
"d g f f f f f g h d d d h h f f 4 + ^ W.W.k.Y j.n.n.W.H.W L.h.h.j.j.W Z.Z.Y Z.A.d.M.M.~.Q + h k f f z g f h h h h h h h h h h h ",
"d f f d g f f f f f f g 8 f 8 f 8 g o I D.W.J.H.d.N.Q.k.j.E.z.g.n.A.W G.Z.g.m.l.I.Q.D.9 O f 6 l l g h h h h h h f h h f h h h h ",
"g j h f f g f f h h f f d d h h h 8 g , O T S.R.E.C.Q.g.n.N.U D.f.m.f.g.G.V.E.E.D.R + < l d h h f f h h h h h f g h h g h h h h ",
"d f g g h f f f h h h f f h h h h h f z 8 : O 9 / S.H.R.Q.T.B.T.K.I.R.K.L.A.h.D * : f h h h h h h f h h h h h g 8 g f h g f f h ",
"f g d d 8 g h f f h f f h l f f h f f h g g g e $ : 9 9 R ! ^ ! ^ W Q I 8 : $ , f h l h 8 f g h h g g g f h h h d h h f f f f h "
};
