/* XPM */
static char *ceacf83182384e6edbd0e055aac92289oSPL3LUcEKSLTOpQ[] = {
/* columns rows colors chars-per-pixel */
"64 64 145 2 ",
"   c None",
".  c #1E1A13",
"X  c #251F17",
"o  c #2B2416",
"O  c #282118",
"+  c #312B16",
"@  c #332B1C",
"#  c #393117",
"$  c #3D341D",
"%  c #3C3122",
"&  c #433C1C",
"*  c #4A3F27",
"=  c #4B3D2B",
"-  c #4E4517",
";  c #4F4819",
":  c #50481B",
">  c #675F1D",
",  c #70661F",
"<  c #7A6D1C",
"1  c #746A1C",
"2  c #53442F",
"3  c #564631",
"4  c #5D4D35",
"5  c #6B5B3B",
"6  c #6E6723",
"7  c #7C6D23",
"8  c #736D2A",
"9  c #7E7932",
"0  c #756140",
"q  c #786845",
"w  c #776D53",
"e  c #8B7E1C",
"r  c #8C7E26",
"t  c #837426",
"y  c #836D47",
"u  c #897F4E",
"i  c #867C53",
"p  c #A5921F",
"a  c #AD9B1E",
"s  c #908228",
"d  c #9E9224",
"f  c #A59D23",
"g  c #B0A321",
"h  c #BDB229",
"j  c #FCEB1F",
"k  c #DBC421",
"l  c #DFD12C",
"z  c #E2D727",
"x  c #ECD521",
"c  c #E7D92E",
"v  c #F6DC20",
"b  c #F7E021",
"n  c #F9E421",
"m  c #FCEB22",
"M  c #FAE729",
"N  c #FCEC2C",
"B  c #FEF424",
"V  c #FEF42B",
"C  c #FFF82D",
"Z  c #FDEF31",
"A  c #FEF533",
"S  c #FFF933",
"D  c #FEF63A",
"F  c #FFF93C",
"G  c #9B9641",
"H  c #8E8356",
"J  c #9D9374",
"K  c #AEA071",
"L  c #B8AA7A",
"P  c #C1BD71",
"I  c #FDF643",
"U  c #FFFA43",
"Y  c #FFFA4C",
"T  c #FFFB54",
"R  c #FDF658",
"E  c #FFFB5C",
"W  c #E1DD62",
"Q  c #E0DC7F",
"!  c #FFFB64",
"~  c #FFFB6B",
"^  c #E8E479",
"/  c #FFFB74",
"(  c #FFFB7E",
")  c #FFFB7C",
"_  c #FFFB7B",
"`  c #A79F88",
"'  c #AEA68E",
"]  c #B0A688",
"[  c #FFFB81",
"{  c #FFFB83",
"}  c #FDFA81",
"|  c #FFFB86",
" . c #FFFC87",
".. c #FFFC84",
"X. c #FFFB83",
"o. c #FEFB8A",
"O. c #FFFC88",
"+. c #FFFC8A",
"@. c #FEFB8F",
"#. c #FEFB8D",
"$. c #FFFC8F",
"%. c #FFFC8E",
"&. c #FFFC8C",
"*. c #FEFB8C",
"=. c #FEFB91",
"-. c #FFFC91",
";. c #FFFC93",
":. c #FDFC93",
">. c #FEFB97",
",. c #FFFC95",
"<. c #FFFC97",
"1. c #FFFC92",
"2. c #FEFB98",
"3. c #FFFC99",
"4. c #FFFD9A",
"5. c #FFFD9B",
"6. c #FEFB9D",
"7. c #FFFD9C",
"8. c #FFFD9E",
"9. c #FFFB9F",
"0. c #D0C7AA",
"q. c #DAD3B7",
"w. c #E6DDA7",
"e. c #FEFBA2",
"r. c #FFFDA0",
"t. c #FFFDA1",
"y. c #FEFCA1",
"u. c #FFFDA2",
"i. c #FFFDA3",
"p. c #FFFDA4",
"a. c #FFFDA5",
"s. c #FFFDA7",
"d. c #FFFCA9",
"f. c #FFFCAE",
"g. c #FFFCAD",
"h. c #FDFBAB",
"j. c #FFFCB2",
"k. c #FEFCB7",
"l. c #FEFCB9",
"z. c #E3DDC6",
"x. c #E7E2CD",
"c. c #F5F1D9",
"v. c #F3EFE0",
"b. c #F5F2E1",
"n. c #FFFFFD",
/* pixels */
"                                                              E /                                                               ",
"                                                              Y ~                                                               ",
"                                                            E U ~ O.                                                            ",
"                                                            E F ! :.                                                            ",
"                                                          ~ T U E :.@.                                                          ",
"                                                          ! T U E :.:.                                                          ",
"                                                        / ! Y U E :.4.<.                                                        ",
"                                                        ! E Y U E ..r.@.                                                        ",
"                                                      / ! E U U T ..a.<.7.                                                      ",
"                                                      ~ ! T U U T [ a.7.*.                                                      ",
"                                                    / ! ! T U U T _ r.d.:.4.                                                    ",
"                                                    ~ ~ E Y F U Y _ 7.f.4.@.                                                    ",
"                                                  _ ! ! E Y F F Y / 4.j.a.:.7.                                                  ",
"                                                  ~ ! ! T U F U Y / 4.j.j.<.@.                                                  ",
"                                                _ ~ ! ! T U F F Y ~ <.f.k.r.@.7.                                                ",
"                                                ~ ! ! E Y F S F Y ! @.d.k.f.:.@.                                                ",
"                                              [ ~ ! ! T Y F F F Y ! O.r.k.k.7.O.r.                                              ",
"                                              / ~ ! R Y U S A F Y ! ..4.j.k.d.@.*.                                              ",
"                                            :.~ ~ E Y U F S S F U E _ <.a.k.f.<.O.e.                                            ",
"                                          y._ ~ ! T Y F A A S S U E _ @.7.f.j.7.@.:.d.                                          ",
"                                      @.*.{ _ ~ ! Y U F A S A F U T / O.4.a.f.a.<.4.7.>.4.                                      ",
"                          @.O.O...) / / / / ~ ! T U D A V V A S F T ~ ..<.7.a.a.7.4.4.@.O.....@.*.<.4.                          ",
"              o...[ [ ) / / ~ / ~ ~ ! ! ! E ! T Y U A A A A A S F T ~ ) @.4.r.a.a.7.:...) ) _ _ ) _ ) ) | o.=.:.4.              ",
"    ~ ~ ~ ~ ~ ~ ~ ~ ~ ! ~ ! ! ! ! ! E T T E T Y D D A A A V A S F Y ! ) @.<.7.7.a.a.r.<.O.[ ) _ _ _ _ _ _ / _ _ ) ) ) { ) _     ",
"I D U Y T T T T R E E E E E E E T E T T T Y U F F A Z Z Z Z A S F Y ! / o.) #.:.r.a.d.r.r.4.<.<.:.:.@.:.@.@.O...{ { ) ) ) _ ~ R ",
"B M M A D F U Y Y Y Y T Y T Y T Y Y Y Y Y U U S A Z l c N Z N A S Y E / ^ w.:.:.7.r.a.a.a.a.a.r.r.a.r.a.r.r.r.7.:...) / ! Y A M ",
"  V b n N Z A D F D F F U U U I F U F U F D A A V h % * z N N V S Y T ^ + 4 P 4.<.4.7.7.7.7.r.r.r.r.r.r.7.7.<.O.) ~ E Y D N N   ",
"    I M v n M M N A A S A D A D S F S S D A A Z N > ' 0.d M Z A S U T d w c.H :.@.:.<.<.<.:.:.:.:.:.@.@...) / ! R Y S V m D     ",
"      T m v v b n M M N N Z Z Z Z A Z Z N A Z Z M : z.v.s M N V V D Y 9 ] n.H } [ [ [ [ [ ) _ _ / / / ~ ! E Y U F V B N I       ",
"        R V v v v v n v n n M M M M N N N M M M n * x.c.s M N N V D I 8 ' n.i / / ~ ~ ~ ~ ! ! E E T T Y U U F C V m N T         ",
"          E V j v v v v v v v v v n M M M M M M n % q.x.7 M M N N A D 6 J n.5 E ! E T T T T T Y Y Y U F S S V B m N T           ",
"            E A M v v v v v v v v v v v v n v n v @ K L 7 M M M M N Z 6 q w.* Y Y Y Y Y Y Y F F S S S S V V N m N T             ",
"              E C m v v v v x v v v x v v v v v v @ 5 0 7 n M M M N N , 3 y % D U F U U F F S S S S C C V m j V E               ",
"                ! V m j v v v v v v v v v v v v v o 3 3 1 b n n M M m 1 * 4 @ A F S S S S S S S S C B B m m N R                 ",
"                  E A m v v v v v x v v v x v x v X = = < n M M N M m 1 % 3 @ Z S S S S S S S C C B B B m N R                   ",
"                    T V m j j v v v x v v v v v v + @ @ e v n n M m M s X % + V S C S S S C C C V B m m V T                     ",
"                      T V m n b v v v v v v x v v - X . a b n M M m M g . . ; A C S C S S S V V B m m V T                       ",
"                        T C m n v v v v v v v v v p X @ x v n M m M N b $ O f C C S S C C C V V m B V T                         ",
"                          Y C m v v v v v v v v v v k x b j n b n M N m M z V C C C C S S S V N B V T                           ",
"                          <.Y S j v v v x v v v v v v v b b b b n m m m B B V V C C S S S V V V A T 6.                          ",
"                            ..F N m b v v v v x v v v v v j b j j n m m m V V V C C S S S S C S Y o.                            ",
"                              Y C N n j v v v v v v v v v v v v j b M m m V V V C C C S S S S F !                               ",
"                              E S B N n v v v v v v v v v v j j j b m m m B B V C C S S S F S U /                               ",
"                              T S B B n v v v v v v v v j v v b v j j j m m B V C C C S F F F U ~                               ",
"                              Y S V B n v v v v v b v j v v j v b n b j n m B B C C S S F F F U E                               ",
"                            <.Y S V V M v v v v v v j x v j v j j j j n n j m B B C C S F U Y U R                               ",
"                            / Y S V B n v v v v v v v v j v j v v b n v j j n m B V C S S U Y U E [                             ",
"                            ! Y C C N b v v v v v j b j v j v v b j j j n j n m B B C C S U Y Y T O.                            ",
"                            ! U S V m v v v j v v v n j j j v j b j b j j b n b m B V C S F U Y T )                             ",
"                            ! F S V n j v v v x b j j n j j j j j b j n v j j j m m B V S S F Y Y /                             ",
"                            R F C m v j v v v j j n j j j j j j j b j v n j n j m j B B C S F Y Y !                             ",
"                            T S V m v v v j j b n j j j B j B j m j j n j b b j j n j B V S S U Y E                             ",
"                          @.Y S N j v x v j j j j B B B B B B C B B j j j j n j j j j m B V S F Y T =.                          ",
"                          [ U C m v v j v j j j j B B B B B F Y Y F B B j j j n b n j j B B C F Y Y ..                          ",
"                          / F B v j v v j j B B B B B B S T )     _ T S B B j j j b m j j B V S F Y _                           ",
"                          ! S B j j v j j j B B B C C Y _             ~ Y S B m j j j j j B B V S Y !                           ",
"                          Y C m j v b j j B B C C U ~                     E Y C B B j j j j B B S F T                           ",
"                          F B n b j j B B B C F !                             E F C B j j j B B V F Y                           ",
"                        / A m n j j B B C S E O.                                  T S B j j j j B S F _                         ",
"                        ! V j m j B B C Y _                                           U V B j j B V S !                         ",
"                        Y B j j B B U ~                                                   F B m j B C Y                         ",
"                        D j j B C E                                                         E C B j B F                         ",
"                        B m B D                                                                 C B B V                         ",
"                        V B                                                                         B V                         "
};
