/* XPM */
static char *_1e36983a59643b8e04edde458850ad7o5JEmLspQN0hnNp5[] = {
/* columns rows colors chars-per-pixel */
"64 64 210 2 ",
"   c None",
".  c #070606",
"X  c #080706",
"o  c #0B0907",
"O  c #0E0B0A",
"+  c #060708",
"@  c #120E0C",
"#  c #190F0C",
"$  c #15110E",
"%  c #1A130E",
"&  c #161311",
"*  c #1B1512",
"=  c #1C1815",
"-  c #1E1A19",
";  c #22150F",
":  c #221712",
">  c #231A15",
",  c #2B1C15",
"<  c #241D1A",
"1  c #2B1E19",
"2  c #321F17",
"3  c #321E19",
"4  c #26201D",
"5  c #2B221C",
"6  c #332116",
"7  c #33231C",
"8  c #3A251E",
"9  c #36291E",
"0  c #3B291E",
"q  c #2D2522",
"w  c #282827",
"e  c #332621",
"r  c #3B2621",
"t  c #332923",
"y  c #3B2B23",
"u  c #362D29",
"i  c #3C2E2C",
"p  c #3E3127",
"a  c #3D322A",
"s  c #42261D",
"d  c #44281F",
"f  c #432D25",
"g  c #4C2D23",
"h  c #452D29",
"j  c #542F25",
"k  c #443125",
"l  c #4B3126",
"z  c #44342B",
"x  c #4C352C",
"c  c #47392D",
"v  c #523126",
"b  c #54342A",
"n  c #593628",
"m  c #553B2E",
"M  c #5B3A2D",
"N  c #5A3227",
"B  c #453730",
"V  c #4B3732",
"C  c #4C3B32",
"Z  c #473D34",
"A  c #533D33",
"S  c #5B3D33",
"D  c #5B3F38",
"F  c #612E2C",
"G  c #60372C",
"H  c #633B2D",
"J  c #683D2E",
"K  c #7F2F33",
"L  c #623C31",
"P  c #6C3F33",
"I  c #773935",
"U  c #5F402F",
"Y  c #4D4134",
"T  c #5D4136",
"R  c #5C433B",
"E  c #574537",
"W  c #72402E",
"Q  c #634336",
"!  c #6B4334",
"~  c #634339",
"^  c #6B453B",
"/  c #6C4B3D",
"(  c #664939",
")  c #724434",
"_  c #734439",
"`  c #7B443D",
"'  c #744A3B",
"]  c #7A4B3E",
"[  c #7E4435",
"{  c #65503E",
"}  c #75533E",
"|  c #5F4943",
" . c #644A43",
".. c #6C4D44",
"X. c #654744",
"o. c #744C42",
"O. c #7C4D42",
"+. c #6E5145",
"@. c #6C5249",
"#. c #6B5946",
"$. c #735244",
"%. c #7C5345",
"&. c #74544B",
"*. c #7B5449",
"=. c #77594E",
"-. c #7C5A4B",
";. c #775845",
":. c #7B5B52",
">. c #7D6255",
",. c #7B6B66",
"<. c #8B393B",
"1. c #854C3E",
"2. c #81463D",
"3. c #84523F",
"4. c #8D4144",
"5. c #834C43",
"6. c #8C4C44",
"7. c #8A4947",
"8. c #954648",
"9. c #835344",
"0. c #895645",
"q. c #8B5B47",
"w. c #845549",
"e. c #8C544B",
"r. c #84594B",
"t. c #8B5C4C",
"y. c #945447",
"u. c #94544B",
"i. c #925B4D",
"p. c #9B5A4D",
"a. c #955949",
"s. c #994F51",
"d. c #835D52",
"f. c #8F5D52",
"g. c #945550",
"h. c #9E5654",
"j. c #935D52",
"k. c #9C5B53",
"l. c #9F555A",
"z. c #9C5C5C",
"x. c #A35D55",
"c. c #8D624E",
"v. c #86614F",
"b. c #94604F",
"n. c #9B624F",
"m. c #836355",
"M. c #8D6352",
"N. c #8A6957",
"B. c #84665A",
"V. c #8C645B",
"C. c #87695D",
"Z. c #8B6B5E",
"A. c #946253",
"S. c #9A6354",
"D. c #926856",
"F. c #9C6856",
"G. c #95645A",
"H. c #9C645A",
"J. c #946B5B",
"K. c #9C6B5B",
"L. c #97715F",
"P. c #9C705F",
"I. c #A16955",
"U. c #A4655B",
"Y. c #A26C5C",
"T. c #A5665A",
"R. c #A3715F",
"E. c #A8735F",
"W. c #A15E61",
"Q. c #896B62",
"!. c #936D64",
"~. c #9E6E61",
"^. c #996E68",
"/. c #8D7163",
"(. c #947265",
"). c #9B7365",
"_. c #95746A",
"`. c #9B766B",
"'. c #97796E",
"]. c #9B7A6D",
"[. c #9D7C71",
"{. c #9B7A73",
"}. c #A46C62",
"|. c #AA6D64",
" X c #AB6E69",
".X c #A56A64",
"XX c #A47263",
"oX c #AA7365",
"OX c #A57569",
"+X c #AC746A",
"@X c #A37A6E",
"#X c #AD7A6D",
"$X c #AB7866",
"%X c #B0766E",
"&X c #B17A6E",
"*X c #A47771",
"=X c #A27D73",
"-X c #AC7C73",
";X c #AF7370",
":X c #B17672",
">X c #B17C75",
",X c #B47B78",
"<X c #988177",
"1X c #A48275",
"2X c #A58479",
"3X c #AB8579",
"4X c #B28176",
"5X c #B2847B",
"6X c #B68A7F",
"7X c #B48982",
/* pixels */
"                                                                                                                                ",
"                                                                                                                                ",
"                                                                                                                                ",
"                                                                                                                                ",
"                                                                @ O O O $                                                       ",
"                                                          % @ o O @ @ & O $ * $ $ $                                             ",
"                                                      % O O O @ & - = - 4 = & $ & & % >                                         ",
"                                                    % O $ & = & & - & & = = < - = - < = > 7                                     ",
"                                                & $ O $ & $ $ * - 4 = & @ & & & & = - q 5 4 0                                   ",
"                                              = $ O $ & O $ = 5 w 4 & & O & O + + O & - 5 4 4                                   ",
"                                          y 4 * & & & & > 5 t t 4 = & & # < % O O O & * 4 q 4 5 9                               ",
"                                        9 e 5 * = - < 7 y t 5 , = $ $ & : e 1 * $ @ @ * - 7 q 5 5                               ",
"                                      6 9 q = = 4 5 y k 0 6 , , 5 6 7 1 8 l f , & & # = < 7 7 q q q                             ",
"                                    5 5 4 4 > 5 5 y k k 0 8 l b Q M H M P O.' Q 8 > * # : 5 p e e q 5                           ",
"                                  4 5 , 6 5 5 5 0 0 l m v W 3.q.t.t.t.b.A.A.e.r.P b 1 & * , y z p u q                           ",
"                                  6 7 5 t e 5 9 9 8 m M ' 3.b.S.F.Y.R.XXXXXXP.K.A.] M 2 > 3 r c p a u q                         ",
"                                > y t k p a 5 y 6 8 l ) q.i.S.Y.R.XXXXoX$X$XOXoXR.A.3.N d 6 k Y c B q 4                         ",
"                              ; > C B u a 4 9 5 , 2 g 9.b.S.Y.XXoX$X$X$X-X#X#X#XOXI.p.0.W g v U E B u 4 4                       ",
"                              % 4 z y 5 < > 7 , ; , N 9.A.I.R.oX#X#X#X>X4X4X4X$X#XoXE.n.3.H n U E Y a u =                       ",
"                              @ > t 5 = % > , ; % 2 G q.F.R.XX$X#X-X4X6X5X5X5X4X&X&X$XE.I.3.! ! { Y a t 4                       ",
"                            % @ : 4 % @ % , , % , 8 I b.Y.R.OXOX#X#X4X6X5X5X6X4X&X&X&X$XoXS.} ! } Y a t 4                       ",
"                            $ O & % @ @ * , % 2 v ! 0.S.Y.R.XXoX$X-X4X4X5X5X5X5X4X4X&X$X#XXX9.U -.Y a q 5 4                     ",
"                            O O @ @ @ # , , 8 H r.q.t.b.F.R.OXOXoX+X#X-X4X5X6X5X4X&X&X&X$XOXD.n ;.{ Y 9 4 5                     ",
"                          % O O @ O @ : 6 0 J 9.e.t.e.A.K.K..XOX#X>X-X5X>X4X4X6X4X4X4X$X$XXXF.n U #.Y t 5 5                     ",
"                          $ o O o O # : f b ] r.q.w.%.w.w.w.G.OX-X5X7X7X7X>X5X7X5X>X-XOXoX}.F.^ d { Y p a 7                     ",
"                          @ o O @ O # : 8 b %.0.r./ M S P ^ =.-.Q.`.-X,X7X>X5X7X7X>X>X-X+X}.G.%.s U Y y p 5 B                   ",
"                          O O O @ # # * 2 b 9.r.r./ ! O.o.o.b f f h P !.-X5X5X7X7X7X5X>X#XXX~.w.d l c y a 4 a                   ",
"                        @ O @ # $ @ @ > , M 9.t.A.A.V.f.d.-.@.*.O.! v _ G.*X>X>X>X-X*X-X*X.X!.t.n 8 y 0 p 4 t 4                 ",
"                        @ @ # $ @ o & * 7 ) 9.A.J.K.b.! S a u f :.1.i.i.A.OX-X=XOXV.o.^ o.:.m.r.T 6 6 9 p 4 4 >                 ",
"                        $ $ % @ @ # # % g O.e.S.P.R.K.q.*. .h ~ {.q.I.K.Y.$X3XOXM.} M g f 2 f l k 6 6 5 y 4 % %                 ",
"                        % @ @ & : * # & S O.0.A.K.R.OXP.A.J.!.A.e.a.E.K.H.+X-XN.t.r.*.%.M.M.;.x , : , , 9 5 $ $                 ",
"                          % & * < 1 > 1 L O.0.j.F.XXOX#XOXXX}.F.n.S.F.n.F.}.~.w.c.t.,.z 1 A ] r.T , , * 6 4 O $                 ",
"                            * > > > 5 r S o.e.S.U.}. X X+X+X+XoXXXY.x.p.H.Y.H.] t.a.d.l f ,.x ! ! 7 , % 6 = O O                 ",
"                            5 5 : * 8 i V ^ w.G.H..XT. X X X X X+XY.H.x.k.H.j.] 1.S.n.F.r.*.H W ' y , % , = O O                 ",
"                            > & $ * g h f ~ w.A.H..X.X X X;X:X%X+XH.j.g.u.h.g.O.1.Y.OXK.K.t.w.t.;.e : ; : % o @                 ",
"                            , $ @ : b A r ~ *.j.H.U..X X,X,X,X,X X6.7.y.p.x.g.5.` U.+XoXXX^.A.M.$.7 : ; : % o @                 ",
"                        1 y e % $ & : e r D w.j.H..X.X X%X:X:X#Xu.u.x.U.}.:X}.5.2.T.|. X}.H.A.r.( q % : > $ O O                 ",
"                  > % * * 5 > = # O O # t L *.j.z.U..X%X%X%X%X|.u.k.j.w.H.|.!.e.2.|. X X Xz.j.5.R < * ; % @ O                   ",
"                % & % % * 1 t 5 $ @ O * 3 ^ *.j.H.T.E. X%X%X+XY.x.h.k.5.7.j.I 5.e.|.+X X XH.e.O.z = & ; % @ o                   ",
"                  & & & * > 5 > # @ % 3 e S o.j.S.Y.Y.T.|.|.U.h.h.u.e.k.G.t.5.j.6.|.;X+X+Xz.e.^ q $ O * % @ o                   ",
"                  % & * & * 5 > * # 6 r r S *.G.G.K.}.Y.H.f.e.j.5.5.O.I j.w.I 6.y.T.+X+X}.z.O.V * @ $ % $ o                     ",
"                * & & O @ % < e < : j x 8 T O.G.K.).XXK.c.r.t.e.j.g.g.5.e._ P [ 6.p.T.Y.~.M.o.q * * $ % @                       ",
"                $ @ & & & $ < < * 3 _ T 3 S o.d.M.K.).K.K.e.` 4.7.8.l.h.x.s.O._ ' 9.S.U.A.r.A & * & @ % @                       ",
"                & $ & & $ & # & * g 9.o.r S o.-.d.A.R.K.XXXXe.2.<.K <.<.<.8.7.7.' ' 9.i.f.o.u & * * $ # @                       ",
"                < - $ & = $ $ @ 6 ) c.-.h S / $.*.t.~.).XXXXK.k.s.l.l.8.<.<.I N ` t.9.A.w.E & * * * * > %                       ",
"                    = * > > * : d 3.b.c.A z ~ / *.M.G.P.~.Y.).).G.z.x.W.l.4.I I c.c.M.M...q & O @ > * >                         ",
"                    w < > q 9 0 ! c.A.J.+.y A  ...r.A.P.XXP.OXXXK.f.r.O.O.O.O.w.M.A.M.} B & = & # = * <                         ",
"                        5 1 6 j 3.c.K.(.N.A z m Q ' 9.D.K.XXOXOXOXH.j.f.e.f.e.r.v.v.+.Y = & $ * & = & %                         ",
"                          R b ] v.D.P.).(.>.x f z M ( ' t.}.OXXX~.K.t.t.b.A.M.-.*...C q & & * < > & @ O                         ",
"                          =.' v.D.L.).).L./.#.p 7 f l L ] t.J.J.A.j.w.0.q.F.m.$.T A t O = = $ & = = $ @                         ",
"                        :.%.w.M.~.(._.@X].(.Z. .y 7 f b ^ %.b.v.w.*.] %.r.%./ m y e & $ $ - & & & $ @ $                         ",
"                        d.%.M.J.(.).`.].@X]._.Z...x 8 f M / ;.r.*.S ! %.-.Q x y < # < & @ $ O o @ $ # @                         ",
"                      Q.r.v.J.(.).`.@X`.].{.`._._.>.A 5 e h Q T S A S ! ~ x r < @ O & * @ O O o . o O                           ",
"                      C.M.N.(.).`.`.=X{.].`._._.'.'./.@.h 1 5 t y x m A f e = @ O o $ - O o O o . .                             ",
"                      J.N.(.(.].`.{.=X=X=X{.`.(._.{.1X1X{.B.( z 1 < < 1 < & O + $ & & @ @ @ @ @ O X                             ",
"                    _.L.J.(.].].{.=X=X=X*X`.`._._._.{.2X2X@X_.B.@.V V x q - $ $ @ @ O O @ ; 6 ; % O                             ",
"                    [.(.(.].].'.].<X1X1X].)._._._._.`.*X=X`._.>.| D @.| |       O o + o @ ,                                     ",
"                    <X].].].].].].].].].].].]._.!.!.^.`.{._.B. .D $.@.V             + o O ,                                     ",
"                      {.].].'.].).<X1X].].].'._._.!.!.^.^.:. .| ..$.A                 o o ;                                     ",
"                        1X@X<X'.<X].(.<X].]._._._.Q.Q.d...X.X...&.X.D                   %                                       ",
"                          2X1X<X].).].].'._._.(.Q.Q.d.&.=...$.&.@. .Q.                                                          ",
"                            2X1X].).].].(.(././.Q.V.:.:.&.&.=.@.X.d.                                                            ",
"                              3X1X@X].(.(./.Z.C.B.:.:.:.=.=.@.@.-.                                                              ",
"                                3X1X@XL.L.N.N.B.B.B.B.d.=.&.=.=.                                                                "
};
