/* XPM */
static char *ae083bf0ee084722e8e3d233668f4addsrQ2GcJcXxsFgLqW[] = {
/* columns rows colors chars-per-pixel */
"64 64 147 2 ",
"   c #654F2B",
".  c #66502C",
"X  c #6B542E",
"o  c #6D5630",
"O  c #7B5F36",
"+  c #7C6137",
"@  c #7F6338",
"#  c #81653A",
"$  c #92723F",
"%  c #957441",
"&  c #987743",
"*  c #997844",
"=  c #A27F4B",
"-  c #A6834D",
";  c #A8854E",
":  c #AF884E",
">  c #B28A4F",
",  c #B28B4F",
"<  c #B38B4F",
"1  c #B28A4E",
"2  c #B08A4E",
"3  c #B38C4F",
"4  c #B48C4F",
"5  c #B58C4F",
"6  c #B58D4F",
"7  c #B68C4F",
"8  c #B68D4F",
"9  c #B38B4E",
"0  c #A98550",
"q  c #A88650",
"w  c #A98650",
"e  c #A98650",
"r  c #B28B50",
"t  c #B28B51",
"y  c #B38C50",
"u  c #B48C50",
"i  c #B48D50",
"p  c #B58D50",
"a  c #B48D51",
"s  c #B58D51",
"d  c #B68D50",
"f  c #B58E51",
"g  c #B68E50",
"h  c #B68E51",
"j  c #B78E51",
"k  c #B48D52",
"l  c #B58D52",
"z  c #B68D53",
"x  c #B58E52",
"c  c #B48E53",
"v  c #B58E53",
"b  c #B68E52",
"n  c #B78E52",
"m  c #B78F52",
"M  c #B68E53",
"N  c #B68F53",
"B  c #B68F54",
"V  c #B58D51",
"C  c #B18F5A",
"Z  c #B18F5A",
"A  c #B2905A",
"S  c #B2905B",
"D  c #B3905B",
"F  c #B4905B",
"G  c #B2905C",
"H  c #B3915C",
"J  c #B3925D",
"K  c #B4915C",
"L  c #B5915C",
"P  c #B4925C",
"I  c #B5925C",
"U  c #B4925D",
"Y  c #B5925D",
"T  c #B5935D",
"R  c #B6925C",
"E  c #B6925D",
"W  c #B6935D",
"Q  c #B7935D",
"!  c #B6935E",
"~  c #B7935E",
"^  c #B7945D",
"/  c #B7945E",
"(  c #B7955E",
")  c #B5925D",
"_  c #B8935D",
"`  c #B8935E",
"'  c #B8945D",
"]  c #B8945E",
"[  c #B9945E",
"{  c #B8955E",
"}  c #B9955E",
"|  c #B8945F",
" . c #B8955F",
".. c #B9955F",
"X. c #B8965F",
"o. c #B9965F",
"O. c #B8955F",
"+. c #B79764",
"@. c #B89560",
"#. c #B99560",
"$. c #B89660",
"%. c #B99660",
"&. c #BA9660",
"*. c #B89763",
"=. c #B99660",
"-. c #B99965",
";. c #BA9966",
":. c #BA9A66",
">. c #BB9A66",
",. c #BA9A67",
"<. c #BB9A67",
"1. c #BC9A65",
"2. c #BC9A66",
"3. c #BC9B66",
"4. c #BC9B67",
"5. c #BD9C66",
"6. c #BD9C67",
"7. c #BE9C66",
"8. c #BE9C67",
"9. c #BF9C67",
"0. c #BE9D67",
"q. c #BF9D67",
"w. c #BC9A66",
"e. c #BD9C68",
"r. c #BE9D68",
"t. c #BF9D68",
"y. c #BE9D69",
"u. c #BF9D69",
"i. c #BF9E68",
"p. c #BF9E69",
"a. c #BF9F69",
"s. c #BF9F6A",
"d. c #BF9E69",
"f. c #C09E68",
"g. c #C09E69",
"h. c #C09E6A",
"j. c #C09F6A",
"k. c #C19F6A",
"l. c #C09F6B",
"z. c #C09F6A",
"x. c #C0A06A",
"c. c #C0A06B",
"v. c #C1A06B",
"b. c #C2A06B",
"n. c #C2A06C",
"m. c #C2A16C",
"M. c #C1A06B",
/* pixels */
"p p p p p p p N ( (  . . . . . . . . .@.v.v.p.v.p.v.p.v.v.p.v.p.@.@.$.$.p.x.p.v.v.p.v.p. . . . . . . . . . . . . . .@.I & % % % ",
"p p p p p p p p  . . . . . . . . . . .@.5.k.v.p.v.p.v.p.p.v.p.p.@. .( $.p.x.v.p.p.k.p.p. . . . . . . . . . . . . . . .( & % % % ",
"p p p p p p p p  . . . . . . . . .@. .@.v.v.x.v.k.v.p.v.v.p.k.p.&.@. .$.p.v.p.v.v.k.v.p.&. . . . . . . . . . . . .@.@.I % % % % ",
"N p p p N p p p _ _  ._ _  ._  ._ I _ I 5.p.p.5.5.p.5.k.p.p.p.p.@.(  .&.p.p.p.p.v.5.p.k.( (  . . . . . . . . . . .I  .I % % % % ",
"(  . ._  ._  ._ B p p p p p p p & & & & - ; - ; p N p B @.&. .@. . . . .$.@.@. .B p B n B p p p  . . . . . . ._ w - - - - - - - ",
" . . . . . . . .p p p p p p p r & $ % % - - - - p p p p  .@. . . . . . .( @. .( p p p p p p p p  . . . . . . . .- - - - - - - - ",
" . . . . . . ._ B p p p p p p u & $ % $ - - - - p p p p  . . . . . . . . . . . .p p p p p p p p _  . . . . . ._ ; - - - - - - - ",
" . . . . . . . .p p N p p p p r & & & & - ; - ; t p p N  . ._  . ._  ._  . . . .B n B p B p B p  . . . .@.&.@. .w - - - - = - = ",
" . . . . . . . .(  . . ._  ._ ( I I  .I  . . .( ' _  .' p p p p 6 p p p p p p B k.p.p.5.p.p.p.p.p.5.v.5.p.p.p.x.p.p.p.;.* % % % ",
" . . .@. . . . . .@. . . . . . . . . . . . . . . . . . .p p p p 6 p p p p p p p p.k.v.v.x.x.p.x.v.x.v.v.p.x.x.x.k.p.p.p.& % % % ",
"@.&.@.@.@.&.@.@.@.@.@.@.@.@. . . . . . .@.@.@.@. . .@. .B n p p p p p N 6 p 6 N v.v.v.v.x.v.v.c.v.v.v.v.v.v.v.v.v.v.v.p.% % % % ",
"I ( I I I ( ( I I I I I  .I I I I I ( I I I I J H R Z Z , , , , , , , , , , , t ;.;.;.4.4.4.e.e.;.;.;.4.;.;.+.4.;.;.e.+.% $ $ $ ",
"% & % & & & % % # # # # % & % & & & & % # # # # X X o X o o X o + # # # # # # + o X X o # # @ @ o o o o o o o o o o o o X X X . ",
"% % % % & % % $ # + + + % % % % $ & % $ # + + O . . . . .     . + + + + + + + + . . . . + + + + . . . . . . . . . . . . . . . . ",
"% % % % $ $ $ $ + + O + % % % $ $ $ % $ + O # + . . . .   .     + + + + + + + O . . . X + @ + + . . . . . . . . . . . . . . . . ",
"& & & % & & * % # # # # % & & & & & & & # # # # o o o o o . o . @ # # # # # # @ o o X o @ # # @ o X o X o X X X X X X X X o X X ",
"I I  ._ 5.5.5.4.- = = - ;.p.5.5.p.4.p.4.;.5.4.4.;.;.4.@.& % % % H I I I J I J I H H Z J H R H R 3 1 1 : , , : : - * = - ; , 1 : ",
"@.@. .@.k.v.v.p.w - - q p.k.v.v.v.v.v.v.v.v.v.v.k.k.v.p.% % % & I @. .@. .@.@.@. .@.@.@. . . . .m 6 g 6 N p 6 6 w ; - - 8 n 6 6 ",
"@. . . .p.k.v.p.; - - ; p.p.k.p.p.p.k.p.p.v.k.p.k.k.k.f.& % % % I @. . . . . . . . . . . . . ._ 6 6 6 6 p p p < - - - - p p 6 p ",
"@.@. . .p.p.k.5.w - - ; 4.k.p.p.p.p.p.5.p.p.p.p.f.4.f.4.& % % % I  .I  ._  . .@. . ._  . . . . .p N 6 N p p p p w ; - ; p p p p ",
" . . . . .@.@.@.I  . .R B p p p w w ; w p p m p ; ; ; - % % % % - - - ; t p p p p p p B _  . . .(  . ._  ._ _  .( _  ._ @. . . .",
" . . . . . . . . . . . .p p p 6 - - - - t 6 p p - - - - & % % % - - - - p p p p 6 6 p p  . . . . .@. . . . . . . . . . .@.@. . .",
" . . . . . . . . . . . .B p 6 3 - - - - t p p p - - - - % % % % - - - - p p p p p p p p _  . . . . . . . . . . . . . . . . . . .",
" . . . . . . . . ._  . .B p N 6 ; - - q p p B p ; - - - $ % % % - ; - - t B p B p B p p _  . . . . ._ _ _  ._  . . . . . . . . .",
" . . . . . . . .p p p p '  . .' _ ( I  . . . . ._ ( I R % % % & J (  . ._  . . . . . .' p 6 p p p p p p ; - - - I @. . . . . . .",
" . . . . . . . .p 6 p p ^  . . .@. . .@. . . . . . . .I % % % % ( @. . . . . . . . . . .p 6 p p p p p r - - - -  .@. . . . . . .",
" . .&.&. . . . .p p p p  . .o.o.@.@.@.@. . . . .@.@.&._ % % % % (  . .@. . . . . . . .( p p p p p p 6 p - - - -  .@. .@. .@.@.@.",
"H H H H H H H H t , , t H H H H I I I I H R R Z I I I Z % % % % H I I I _ I R _ I R ( ^ t , t , r r , , - - - - R I I _ I I I I ",
"X o X o o o o o @ # @ @ o X o o # # # # # # # # # # # # @ @ @ @ % & % % & & & & & & & & # @ # # # @ @ # % % $ % % % % % # # # # ",
". . . . . . . . + + + + . . . . O + O + + + + + @ + O + @ + + @ $ % % % % $ % $ % % $ $ + + + + @ + + + % % % % % % % % # + + O ",
". . . .   . . . + + + + . . . . + + + + + O + + + + + @ + + + @ $ % % % % % % $ $ % $ $ + + + + + + + + % % % % % % % $ + + + + ",
"X X X X X X X X + @ # @ o o X o @ # # # # # # # # # # # # # # # % & & % & & & & & * * * # # @ # # # # # % * % % & % & % # # + @ ",
": : r : - = = = = - = - ; r : , , r , r , 3 , t 4.4.4.4.4.4.4.;.I I I ( I ( I ( I ( I ( R H I I I I I I _ ( I ( I I I J % $ % $ ",
"p p p p - - - - - - - - n p p p p p p p p p 6 B k.l.k.k.l.l.l.k.@.@. . . . . . . . . . . . .@.@.@.@.@.@. .@. . . .@.( ( & % % % ",
"p p p r - - - - - - - - p 6 p p p p p p p p 6 p p.l.k.k.k.k.k.p.@. . . . . . . . . .@.@. . . . . . .@. .@.@.@.@. . .@.I & $ % % ",
"B p p p w - ; - ; - ; ; p p p p p p p p p p p p 4.k.5.k.p.p.p.4. . . .( _  . . . ._  ._  .( ( I  ._  . .I ( _ _  .(  .R & $ % % ",
" ._  ._ ( ( ( (  .I  . . . . ._ @. . ._  . . ._ p n p B w - 0 0 - - ; ; 6 p p p p B n p ; - - ; p p p p 0 ; - 0 - - - - & % % % ",
"@. . . . . . . . . . . . . . . .@. . . . . . ._ p p p p - - - - - - - - 6 6 p p p p p u ; - - - u p p u - - - - - - - = % % % % ",
" . . . . . . . . . . . .@.@._ @. . . . . . . . .p p p p - - - - - - - - u u p p p p p 6 - - - - u p p u - - - - - - - - % % % % ",
"@.@.@.@. . . . .@.@. . .@.@.@.@.@.@.@.@.@.@. .@.B p B p w - ; - - ; - w p B p p p p p p ; - ; ; p p n p - 0 - - - w - - % % % % ",
"x.p.p.p.$.@. .@.g.k.g.4.k.p.k.g.v.5.p.p.p.p.p.p.p.5.k.p._ ( @._  .( I _ _  ._  ._  ._ '  . . .I  ._ _ @._ _  ._ _ $.I I - - - = ",
"p.v.k.k.$.(  .@.k.l.k.k.k.k.l.l.v.v.k.k.k.p.p.k.k.k.k.p.@. .@.@.@. .@.@.@.@. . . . . . . . . . . .@.@.@.@. . .@.I $. . .w - - - ",
"v.v.v.k.@. . .@.k.k.k.k.l.l.k.k.v.v.v.k.v.v.l.v.k.k.b.k.@.@.@.@.@.@.@.@.@.@.@.@. . . . . . .@.@.@.@.@.@.@.@.@.@.@.@.@. .; - - - ",
";.4.4.;.J Z J I 1.4.4.4.<.;.4.<.;.4.4.4.4.4.4.4.4.4.4.4.I I I I I I I I I I @.I  .R _  . .I _ I I I I I I I I I I C I Z = = = = ",
"o o o o X X o o o o o o o X o o o o o o # # # # o o o o # # # # # # @ # & & % & & % & & % & * & # # # # # # # # o X o X X X X X ",
". . . . . . . . . . . . . . . . . . . . + + + O . . . X O + + + + @ + @ % % % % % % & $ % $ $ $ @ + + O + + + O . . . . . . . . ",
". . . . . . . . . . . . . . . . . . . . + + + + . . . . + + + + + @ O @ % % % % % $ % & % % $ % + O + @ O + + O . . . . . . .   ",
"X X X X X X X X X o o o o X o o X X X X @ # # + o X X X + # + # # # # # % % % & % & * $ % % % $ # # # # # # # # o o o o o o o X ",
"J H H H - = = - Z A H H H H H H H R Z R H R I I Z R H Z % % $ % ;.5.4.;.;.p.5.5.p , , , & $ % % , , , , I I I I C C R Z H H H Z ",
"@.@. .( ; - - ; ( o. . . . . . .@.@.@.@.@. .@.@.@.@.@.I & $ % & p.v.v.v.v.v.v.v.p p p 6 & % % & < p p p  .@.@.@.@.&.@.@.@.@.@. .",
" . . .( - - - ; ^ (  . . . . . . . . .@. .@. . . .( @. .& % % & 4.v.p.v.v.k.k.5.B p p < & $ % % u p p p @.@. .@.@. . .@. . . . .",
"^ ^  .R ; - - ; ( (  . . . . . .( ( (  .( I  .( ( '  .R & % $ * ;.p.5.p.p.p.v.f.B p p 6 * & % * p B p p I ( _  . . ._ (  .'  . .",
"6 p N p 3 t 3 t  . . . . . . .( - - ; - - - ; ; 6 p p t * % % % - - - w ( @.@.@.(  ._  .( I I ( _ @.@.I w - ; - - ; - ; 6 p p p ",
"p p p p 6 g 6 N  . . . . . . .( - - - - - - - - p p p r % % % % - - - - (  . . .@. . . .@. .@.&. .@.@.( - - - - - - - - 6 6 p p ",
"p 6 p 6 p 6 6 3 _  . . . . . .( ; - - - - - - - , p p p % % % % - - - - (  . . . . . . . . . . . . . . .; - - - - - - - p p p p ",
"N p N p N N 6 N  . . . . . . .I ; - ; - ; - - ; p p p t * % % % - w - w  .@.@.@. . . . . . . . . . . .I w - - - ; - q - p B p p ",
" ._  .@._  ._ @. . . . . . . . .( ( I  . .I ( ( _  .@.I - = - - 4.x.p.p.p.p.p.p.@. . . . . . . . . . . . .I (  .( ( I @. ._  ._ ",
" . . .@. .@.@.@. . . . . . . . . . .@. . . . . . . .@.$.; - - ; 0.x.x.x.p.p.x.p. . . . . . . . . . . . . . . . . .@.@.@. . . . .",
"@.&.@.&.@.@.@.@. .@.@.@.@.@.@.@.@.@. . .@.@.@. .@. .@.I - - - ; x.x.x.v.v.v.v.k.@.@.@. .&. .@. .@.@. .@.@.@.@.@.@.@.@.@.@.@.@.@.",
"C I C C I I I C R Z I I I I C J I I I R I I ( R I ( I J - - = - 4.4.5.5.4.4.4.;.I I I J ( H ( H J I J I I I J I I C I I I C I I ",
"o o o o o o o o o o o o o o o o # # # # # # # # % % & & % % % % & % & % # # # # # # # # # # # @ X X o o @ # # @ o o o o o o o o ",
". .     . . . . . . . .       . O + + + + + + + % % % % % % % % % % % $ @ + + @ + + + + + + + O . . . . + + + O .   . .         ",
". . . . . . . . . . . . . . . . + + + # + + + + % % % % % % % % % % % % @ + @ + @ + @ + + + + @ . X . . + + @ + X . . . . . . . ",
". . . . X . . . . . . X . . . . + + + + + + + + $ % % % $ % % % % % % % @ @ + + + + + + + @ @ + X . . . + + + @ . . X . . . . . "
};
