/* XPM */
static char *_1af103c1df8474bf95251cf81504f90HaZWVBQXW9b3Qh1f[] = {
/* columns rows colors chars-per-pixel */
"64 64 91 1 ",
"  c #97510B",
". c #99520C",
"X c #9D5610",
"o c #9F5812",
"O c #A0570F",
"+ c #A05710",
"@ c #A25B14",
"# c #AE6419",
"$ c #B1661C",
"% c #B4691D",
"& c #B66B20",
"* c #CA7D2F",
"= c #CC7E31",
"- c #CE8134",
"; c #CF863D",
": c #D18335",
"> c #D48639",
", c #D5883C",
"< c #D98B3E",
"1 c #D68C43",
"2 c #DB8E41",
"3 c #DB9047",
"4 c #DE934A",
"5 c #DF9751",
"6 c #DF9852",
"7 c #E59241",
"8 c #EA9644",
"9 c #EE9A47",
"0 c #E1974C",
"q c #E3994E",
"w c #E99B4E",
"e c #F29D4A",
"r c #E09750",
"t c #E19951",
"y c #E29850",
"u c #E49A50",
"i c #E59B51",
"p c #E79B50",
"a c #E69C52",
"s c #E79D53",
"d c #E19955",
"f c #E79E54",
"g c #E79E55",
"h c #E89C50",
"j c #E99C50",
"k c #E89D53",
"l c #E79F5A",
"z c #F5A04C",
"x c #F6A14D",
"c c #F7A24D",
"v c #F4A14E",
"b c #F5A14E",
"n c #F6A24F",
"m c #F8A24C",
"M c #F9A24D",
"N c #F9A34D",
"B c #F8A34E",
"V c #FAA34E",
"C c #F9A44F",
"Z c #FBA44F",
"A c #EBA056",
"S c #EBA058",
"D c #EAA159",
"F c #ECA35B",
"G c #ECA35C",
"H c #EDA45D",
"J c #EEA45D",
"K c #EEA55E",
"L c #F5A250",
"P c #F7A451",
"I c #F7A452",
"U c #F7A453",
"Y c #F6A555",
"T c #F9A450",
"R c #F1A65C",
"E c #F3A85F",
"W c #EFA660",
"Q c #F0A861",
"! c #F1A861",
"~ c #F3A860",
"^ c #F1A962",
"/ c #F2AA63",
"( c #F3AA63",
") c #F5AB62",
"_ c #F2AA64",
"` c #F3AA64",
"' c #F3AB64",
"] c #F3AB66",
"[ c #F3AC66",
"{ c #F4AC66",
"} c #F4AD67",
/* pixels */
"%%%%O.......%%%%%%%%%%%%%%%%%%%%%%%%%%%%%%%% ... ... ...........",
"%%%$....  ..#$%%%%%%%%%%%%%%%%%%%%%%%#%%%%%#. .. .. .. ..  . . .",
"%%$$O.  ....$%%$%%%%%%%%%%%%%%%%%%%%%%%%%%%#...... ..... ...  ..",
"%$%$+.. ....$%%%%&%%%%%%%%%%%%%%%%%%%%%%%%%%o.................  ",
"OO+@:<<<34540ttt6ttt77777777777711111111111,;;;>;;;;;;;;;;1-....",
"....8ZZm][(][]}[}//}PZmZmZmZZmPvqsqAtqqAqqqAsA6qqAAqhq6hit63o...",
". .O7mmZ(Q]](]]][/[/PmmmmZmmmmmmqqqqstqqqAsq06qAqA0h6qqqqiq3X . ",
".. .7mZmQ]Q](((]////PmxmxxxxmmmvwAsqqqqs6qq0Aq6q6qq6qhA5iqw3O . ",
" ..X1wwisgkgggggAAAAqkwkwwswwwwwqqsqsqqqsqqsqsqqiqqqiiqiqA63X  .",
"  .X1ii0qtiqiqqiqq6qqqqqtqqqtstsqqsqqqsqqqqqqsqsqiq6qqiqq6A3@  .",
". .+1twwiiqiqiitqsqqqA6qsqqstqtqqsqqqsqqq6sqqqqqiqqAiqhqqqi3X ..",
"....1iqwtqqqqqqtqqqqqqqqqqqiqq0qqqqqqqqwqqqqqqqwqqiqqqqqqqq3@...",
"$#@%=,,,,,,,,,,,>>,,,>,,,>>,2222333<3<3333<3,>>,,,,,>,,>>>>-$###",
"%%%&*::::::=:::-::::::-:->-:,<2<<<<<<<<<<<<,:::::::-::-:-::-%$$%",
"%%%%*::::=::::::-::-::-::-:>,<<<<<<<<<<<<<<<:::::::::::::::-&%%%",
"%%%%=:::>:::::::>::>::::>->:<<22<<<<<<<<<<<<>::::::::::::::-&$$%",
"+.O@7e99e99e99eeklglSSSSDDDAeee9e9e9w00q0q00404045474445404<@ooo",
".. .7eemTmeTVeeV){]]{{}}[](]TxZxxZmxqtqqqqqsqqqtqqiqiqqqqqi3o...",
". .O7ZTZmmmmmVeT){{{{{{{(]])PmxmmZmZwqsqqsqqqqqqiqqiiihqqhq3X . ",
".  +7ZZexmxxeTVT~{W{(W){((((LxZxxxxxqsqqqqsqqssqqiiqiqq5qqh3o . ",
"   X2iwwwwwwwwwwkggggggkggkswswwqwkwsqqsstsqqsqqiqiiqiqhiiq3X. .",
".  X1qtiiiiriiiqqqqi0iqiiqiqiqiiqqqqqqtqqqsqqkqsqiqiiq5Aiuh3O...",
"  .X1qiqqiiitiqqiqqiiqitqiiqqiqqsqsqtsqqsqqqqqqqi6iqqqiq6q63X. .",
"...X1t0wqq0qq0qqqqqqqqqqtqqqqtqqqqqtqqqqqqqqqqq0qqqqqqqqqqw3@...",
"$$$$=<>,,,,><>>>,>>>222222222222<31<3<<3,,>>>>>>>>>>>>>,>,::$##$",
"%%%%*:=:=:=::::::::-,<<<<<<<<<<<<<<<<<<<:::-::::::::-::-::--%%$%",
"%%$%*::=:::::::=::::,<<<<<<<<<<<<<<<<<<<:---:-::-::-:::::-:-%%%%",
"$%$%=>:::::::::::::><221<<1<2<1<<<22<<<<>:>>>:>::>>::>>>,->-%$$%",
"OOO+79eeeee9e9ee9999JJJJRRJJJJHHHHHHHJJJFDHHSJDJllRRADHgDHD6@.XO",
"   .8eTemmmVmmmTmmTm){(]]]]]]]]]{]]]}})/([([]]]{})){]]}{[[/D@ ..",
" . O7ZemmmVmmmVemTVT)(]((]]]]]]({]]][[/[]][]]({])]]([][[[['DO ..",
". .O7TTTmVmmmVPTmmmT(]]]([))]()(]]][][)/]]][([W](]]([E))[)'A@ ..",
". .Xt))/))//)())E))E)]]]YTmPPmZT)(]]]]])(]([][((YmLPTZTxTPP9.  .",
".. Xd[]Q([/[((](]]]](](]YeTPmmZm)(]]]](((]](](](vZxZmmZmZme9@. .",
"...Xd}(]([(Q(]](])]]]]]]YZmzzPZZ)(](Q]](]({)]^](PmmZmmmmmZZ8+...",
"...o4(E(Q(QQQ(W]W((H(QEEZemzmezmR((W]W(((R)E(W(Qeeeeemeeeee9@...",
"$$#$-,,,,,,,,,,,2223223322223<<332424222,,,,,,,,<,,,:,>>>>,:%%#%",
"%$$&*:::-:::::::,2<2<<<<2<<7<<<<<<<<<<<<::::::::--::=:::=>==&%%%",
"%$%&*::::-::----<<<<<<<<<<<<<<<<<<<<<<<<:::::--:::::::::>=:=%$%%",
"%$$$=:>:>>,:>>>><22222222<<<<<<3<<7<<<1<:>::>:>:::,::>::>>:=%$$$",
".+.@q(GJJJJJJGGGHHWHWHHHeeeeeez9eeeeeeeeeee9w300040000008001+.++",
".. Xd]](]]]]]]]]](]^]]]]LZPZmmZmxZZmxmmZmxZxiqiqirwiqirqwwi3@.  ",
".  X6]]]](](]]^](Q]]((]]vmmmZmmmmZmmmZZmvmemqiiqqiiqiqqi4ii3+  .",
" ..X5]Q]QQ]((^]^(](^(((]PxmxxxzvexxxxmexPmzxiiqtiqqiyiiitit3@  .",
" . X1gigqssskigqigwtqksiqkqswqqsqqqsqwqsqsqiqiqiiiitqiiqqi03+   ",
"   X1tqiiqqiiqitqiiqttiqqsqsssqqqsqsqsqsqqitqiii0iiqiiqiitk3@   ",
". .X1iiqtiqtqiriiqtttqqiqqsqqqsqqtqqqtqtsqtqi0ttqiqi0ryrqik3+ ..",
"O. X1r0wwt00wqwqqqwq0wqq0qqqqqqqqwqqqqqw0qw0w00w0000qwy00wt1@.+.",
"$$$$,<22<22<22<2<<<3<<<<<3<7<<<<22<2<22<,>>>>>>>>>:>>>:,>>>=%$$$",
"%%$%:<<<<<<<<<<<<<<<<<<<<<<<<<<<<<<<<<<<=:=:-:-:::=::::=:=:=%%%%",
"%%%&:<<<<<<<<<<<<<<<<<<<<<<<<<<<<<<<<<<<:::::::-:=::::=::=:=%$$%",
"$$$$,2<3<7<<22223<<33<3<3<3<3<<<<<<<22<2,::>:::>>>:>:>:>:>,=%$$$",
"+@+@7eeeeeeeRHWWRRHHHHRJEE(Jvzxzeeeeqw0000000000000000000052@..+",
"XXX@7TeZZmTT(({}[[[[[[[(//[/mxmmmmmmkq0iiiiqiqtqiiqiiitiiti4+...",
"XXX@8ZmmmxmZW]]][([[[[]]//)/PmPxmTVewiqiiqqiqiiqiiiqqiiqiqi2+ ..",
"+XX@2ZeZxxmeE(R(QQ(Q((((///EmvxveeTPqiiqtiqiiiqii0itiqqitii3+ ..",
"XXo@2kqAiqiqkgigsiiiigiitAtAAqqgkkiiqiiqqiiqiiqiiqitiiqiqit3+  .",
"XXX@1tqtiiiqqqqttttittisqqqqqqstqqqiiqqitiqiiqitqiiiqqitiqd3@  .",
"XX++1A6dqgisssiitAgdsqsqAqsqqsddikisiliidiigqgigiidikittigi3+.. ",
"XX.o;3343333333333333333333333443333233233342333323332332321X  .",
"oXXXX@#o#@@@+@@#@@@@@@@@#@@#@#oo@@@@@@@#@@@@@@@@@@o@@@+@+@@+..  ",
"XXXXXXXXXXXXoXXXXXoooooX XXXXXXXoXoXXXXXXXoo@X+X           ... .",
"XXXXXXXXXXXXXXXXXXXXoXXXXXXXXXXXoXXXXXXXXXXXXXXX     ..   .    .",
"XXXXXXXXXXXXXXXXXXXXXXXXXX.XXXXXXXXXXXXXXXXXXXXX.    .      ..  "
};
