/* XPM */
static char *d029b71263e348e6c054a6f2f9fb41d9ZiKYPZwXBhrQT1jw[] = {
/* columns rows colors chars-per-pixel */
"64 64 247 2 ",
"   c #070302",
".  c #0A0303",
"X  c #0E0802",
"o  c #0E0508",
"O  c #0E090A",
"+  c #120604",
"@  c #1A0602",
"#  c #150904",
"$  c #1C0A05",
"%  c #120608",
"&  c #160909",
"*  c #1B0B09",
"=  c #1B1205",
"-  c #181903",
";  c #230D05",
":  c #2A0E04",
">  c #220E08",
",  c #290803",
"<  c #390B02",
"1  c #241204",
"2  c #2C1305",
"3  c #25120B",
"4  c #2B1409",
"5  c #2D1B0B",
"6  c #231A0B",
"7  c #331504",
"8  c #3A1704",
"9  c #351A05",
"0  c #3B1B06",
"q  c #331609",
"w  c #351B0A",
"e  c #3B1C09",
"r  c #291C14",
"t  c #29220C",
"y  c #3B200A",
"u  c #372308",
"i  c #3D2313",
"p  c #352718",
"a  c #343116",
"s  c #382D21",
"d  c #431E05",
"f  c #431E09",
"g  c #4B1C0D",
"h  c #471804",
"j  c #511F0E",
"k  c #481509",
"l  c #442304",
"z  c #4C2504",
"x  c #44230A",
"c  c #4B250A",
"v  c #4B2B0B",
"b  c #492A0A",
"n  c #5B2300",
"m  c #542A07",
"M  c #5A2D05",
"N  c #542C0C",
"B  c #592C0B",
"V  c #562309",
"C  c #55320B",
"Z  c #5C330B",
"A  c #5B3607",
"S  c #4A2B16",
"D  c #472714",
"F  c #582A17",
"G  c #583919",
"H  c #4B3212",
"J  c #642C06",
"K  c #653906",
"L  c #63350C",
"P  c #653A0B",
"I  c #6A3B0A",
"U  c #693509",
"Y  c #733D0C",
"T  c #773804",
"R  c #663914",
"E  c #6C3B13",
"W  c #653717",
"Q  c #6D3419",
"!  c #493727",
"~  c #563A29",
"^  c #593E32",
"/  c #4C3F37",
"(  c #653A24",
")  c #683D34",
"_  c #5A4617",
"`  c #57430E",
"'  c #6D4207",
"]  c #7A4402",
"[  c #7B440C",
"{  c #7D4C0A",
"}  c #76480B",
"|  c #6D4314",
" . c #674814",
".. c #794518",
"X. c #7A5216",
"o. c #7E5209",
"O. c #5C4625",
"+. c #58473A",
"@. c #504F31",
"#. c #654525",
"$. c #754C25",
"%. c #784827",
"&. c #7B542B",
"*. c #674A37",
"=. c #685639",
"-. c #7A583A",
";. c #74682B",
":. c #795745",
">. c #795F51",
",. c #665443",
"<. c #6F6545",
"1. c #796646",
"2. c #6C6554",
"3. c #7B7658",
"4. c #7E6358",
"5. c #814B0C",
"6. c #884909",
"7. c #8A530B",
"8. c #8A5508",
"9. c #945B04",
"0. c #965808",
"q. c #834B13",
"w. c #864C18",
"e. c #895416",
"r. c #965A14",
"t. c #A05C11",
"y. c #9A660B",
"u. c #9F6215",
"i. c #986716",
"p. c #A66808",
"a. c #B06F09",
"s. c #AB750C",
"d. c #B47809",
"f. c #A36514",
"g. c #A36A13",
"h. c #A66918",
"j. c #AB711C",
"k. c #A67318",
"l. c #BA7C13",
"z. c #B57916",
"x. c #814B22",
"c. c #895527",
"v. c #945722",
"b. c #875A37",
"n. c #945B35",
"m. c #8D6027",
"M. c #8E6B3A",
"N. c #996939",
"B. c #9C723F",
"V. c #9A6E29",
"C. c #AC7725",
"Z. c #B47D26",
"A. c #A8763A",
"S. c #B27835",
"D. c #AA6C28",
"F. c #C07D14",
"G. c #845C42",
"H. c #826244",
"J. c #896947",
"K. c #946B4D",
"L. c #9B6A44",
"P. c #9C7847",
"I. c #896955",
"U. c #877458",
"Y. c #9E7354",
"T. c #8C7247",
"R. c #A67B47",
"E. c #A47657",
"W. c #957C64",
"Q. c #8B7462",
"!. c #A17F67",
"~. c #BA8213",
"^. c #BA8717",
"/. c #B88A13",
"(. c #8F803F",
"). c #BE842A",
"_. c #A8823C",
"`. c #BA8939",
"'. c #B69130",
"]. c #C38A1B",
"[. c #C48916",
"{. c #CA911D",
"}. c #CA9211",
"|. c #D4A31C",
" X c #C99723",
".X c #C58E38",
"XX c #C89938",
"oX c #C68824",
"OX c #D7A829",
"+X c #D5A934",
"@X c #DEB63C",
"#X c #E1B73A",
"$X c #87854A",
"%X c #9A8953",
"&X c #B78748",
"*X c #B7964B",
"=X c #B28656",
"-X c #AC8B53",
";X c #BAA353",
":X c #9C8C79",
">X c #98886C",
",X c #A68868",
"<X c #A79269",
"1X c #AB987A",
"2X c #B69674",
"3X c #B39067",
"4X c #B1A571",
"5X c #C79659",
"6X c #C18F5E",
"7X c #CCA648",
"8X c #C8A656",
"9X c #D8B24F",
"0X c #E7B958",
"qX c #E4B740",
"wX c #C09374",
"eX c #CFB563",
"rX c #D8BB68",
"tX c #C7A575",
"yX c #D4B777",
"uX c #CEAB6D",
"iX c #E5BC6A",
"pX c #EDC753",
"aX c #DCC26B",
"sX c #DCC47C",
"dX c #E8C966",
"fX c #F3CD6E",
"gX c #EFD069",
"hX c #F4D468",
"jX c #EBC978",
"kX c #F0D977",
"lX c #B9A789",
"zX c #D4BB88",
"xX c #C6B192",
"cX c #E7BF8B",
"vX c #D4BFA0",
"bX c #EAD49A",
"nX c #FBDE96",
"mX c #EAD187",
"MX c #F9E298",
"NX c #CEC7A5",
"BX c #F1D8A5",
"VX c #FAE6A6",
"CX c #FDF0B2",
"ZX c #C6C595",
"AX c #FFF5C3",
"SX c #FFFCD6",
"DX c #FEE9CE",
/* pixels */
"                    . . o . + . . . o   .                   . . . + + + * @ * % % + + + o . . % + + + . o . . o .               ",
"                    . . % . + + + + . + .   . . .             . + % * $ @ @ * * @ % % @ % . + % % * + % + + % .   .             ",
"            X       . . % + + + @ % @ + % . . .             . + + * $ * * ; ; * * * @ @ % + * > > * * & % % % o o o             ",
"                    . + + + @ $ * @ * * @ % + .   .       . . % @ ; > > > > > > ; * * $ @ ; : 3 : > * , * % % % .       . .     ",
"                      . o + @ > * ; ; > $ @ @ + . . . . . . & $ $ 2 4 4 : 3 > > 1 $ 3 ; : 4 q q 4 : > > * * + + o .             ",
"    .           .     . o + * > > , , 4 : , ; ; @ + . . . + > 1 9 e 9 9 w q 4 4 1 q 2 2 0 e 0 q q 4 > : * * + . o               ",
"                  o o o . % * * , q 7 q 7 q 7 7 ; $ # + + > q 8 b ( S x e 0 9 7 q 9 7 x c x x 0 w q 4 > * + * % .               ",
"              .     . % % + @ @ > q 8 8 8 f f *.7 2 2 ; ; 0 c c P R Z N N x f 0 c d v N B c l d 8 q : > > * % . .               ",
"                    o o o * * $ ; 7 8 f c c c N c d d 8 7 h L T { e.Y I L M z Z Z Z R L M B l d 8 7 2 ; $ @ o o       .         ",
"    . .               o . % * > $ 2 9 g V B R U L Z V V z J x.6.h.r.0.5.[ I K I ' w.[ I L B c x w q : > * % . . .               ",
"              .   o o o + + * * 3 2 7 y B L x...q.[ w.[ q.T t.j.^.l.f.0.8.6.r.8.0.e.5.' L B c x w 4 3 * + + .                   ",
"                      o . % * * $ 5 9 0 V L ..r.r.h.t.0.C.f.z..X7X.XC.C.g.g.j.p.y.0.7...I B N e q > @ * . . o                   ",
"                    o % + % * * > 2 9 l m K [ u.a.l.F.z.F.7XiXmXcXbXbXyXA.).^.d.s.j.8.{ | N d 7 : * * . . o .         X         ",
"                    . . . % & ; 1 4 9 x A I 7.g.l.[.oXF.a.0XiXnXVXSXSXSXVX8X{./.d.p.9.o.P m x q > @ + % % o o .                 ",
"              .     . o . + * * 1 4 u z Z { u.s.[.{.a.a.[.+X#XhXVXAXSXSXSXVX9X'././.y.} ' C x : ; $ * + % . o                   ",
"                    . . + + + * 1 w u v A o.s.[. Xl.z.a.z.F.|.#XgXnXCXAXAXCXkX@X/.^.i.8.P C G 4 4 > + + . . .                   ",
"          o           o o o # # 1 5 u C ' 8.^.{.[.l.C.f.h.t.[.|.#XpXhXkXkXkXgXpX/./.y.{ P v 0 2 6 + % .   . .                   ",
"                          . * r 3 i i C ' 8.^./.a.F.h.h.h.t.l.[.}.|.OX@X@X9X7XhX+X/.y.] A x 9 5 + % O # O % O         O         ",
"                            p ! # 1 9 H } y.^.[.d.{.F.t.r.6.6.t.~.}.[.{.|.'.'.hXqX/.y.] M x w p # o                             ",
"                              + # 1 u C } k.[.~.a.F.t.0.6.T T T 8.9.9.9.p./.7XgXpX/.g.5.K x 7 $ . .   .                         ",
"                            . . + 1 u A o.g.oXs.F.a.0.T T J J J n n n n ] `.8XnXrX`.C.e.A b 5 = .     o                         ",
"                            . . # $ u A r.i.z.8.F.a.0.6.v.v...j V k k j J R.yXBXP.-XV.o.' b 2 = # .                             ",
"                            . . # 2 l A i.j.).8.F.a.a..X&X&Xx.Q j D < j B R.zXBXv $.c.' &.H ; +   .                             ",
"                            . + 1 b G X.i.k..X9.F.oX.XiXiX&Xn.J ( ) < j b.R.BXzX7 $.m.K ..G 2 + .                               ",
"                    .   . $ 6 i D H A  .V.j..Xy.z.0X0XdXiX5Xv.n.F ) , g n.E.tXN.h =Xc.K z 7 ; + .     .                         ",
"        .       X . O * 3 3 4 q u b C X.{ i.S.k.] 8XeXjX5XS.v.Q ) I.< g Q L.E.h R tXw.| v u 3 $ % . .                           ",
"                o % & & $ 3 4 4 e x b Z ..{ e.D.w.5..XS.&Xw.w.Q n.K.k F Q b.h h | 3X| L b w 5 6 * . . .   O                     ",
"                . . + & * > : 2 2 9 c v M I [ w.R.q.6.7.D.v.T x.6XK.G.g Q k < F E.%.L N x e 4 $ 3 * &                           ",
"                . . % + * * > > 2 2 y x z M J Y S.5X5.J n n w.6XE.c.*., j E.< k !.E M h 0 q 4 $ $ & # O O                       ",
"              . o % o + + $ $ 3 1 5 e 0 d l M U n.iX5XR.n...N.yXL.%.*., j G.) K.L.L B d 0 4 ; $ $ & + . o o                     ",
"                . . o % % @ $ * 4 4 2 2 9 l m A E &XrXA.6X| c.N.x.E.~ @ I.G.L.wX%.B z S e 2 : * # # # . o   o                   ",
"              . .   . . % + * 3 > $ > 1 7 x J.M Z L.&X5Xv.N.%.E Q Y.:., :.#.W wXF N f 8 i q : > $ # + + o o                     ",
"                  . . . . $ & & * $ ; ; 4 9 x c b -.B.V.&Xq.c.Q W K.I.K.#.M.<X>Xf f 8 q 7 5 3 > * + + . . o   .                 ",
"                    . . & . + % % & $ > : 7 9 0 y $.P.N.&X&XN.c.R J.J.H.,XxXDX! 7 9 q 2 : > 3 > % % + . o .                     ",
"                    o o . % o o + # * ; > : : 2 q S Y.b. .cXyX*Xw.P.4X#.K.2XxX; ; ; 3 : > ; @ * * % % . . . .                   ",
"      X               .   .   o % % % * > > $ > ; 2 G.T.b.M.MXsX_.tXvXv $.-.~ + + + $ > * % * + % & % . . .                     ",
"                            O o o + + $ # $ $ $ $ ; :.&.M.m.uXnXzXuX1Xy W I.1 % . . + @ * * + + % . o o                         ",
"                              o . o . & & & $ * & $ i I.P.&X*XsXMXbXH.i #.H.+ . . o . . . . + o . o . .       .                 ",
"                              X o . o % # # % + + + # >X-XA.*XaXmXbXH O.-.G + .     . . . . . . . . .                 X         ",
"                                .   o   . % . o . +   i <X*X;XaXmXyXH D I.9 .           . . . . . .                             ",
"                                . . . . o o o o . . . . lX3XeXaXsXM.u u I.1 .                       X                   X       ",
"                                        o . o   . . . . <XmX8X;XZXt ; +.1X+ .                                                   ",
"X                           X             o           + %XsXaXrXM.; e >.I.. .         .                                         ",
"                  X                                 . + ;.rX;XeXu 2 *.>.+.+                                                     ",
"                                                      .  .uX4X .; ~ I.! i .   o         .                                       ",
"                                                  . o . H 4X3X7 D ^ !.*.s .             .                                     X ",
"            X                                   .     . _ 4XS D :.W.-.,Xs .                                       X             ",
"  X                                             .     . J.-.D *.,.< ~ <X! . .                                                   ",
"                X                             .     . + ,X .!.( : : O.vX$XX                                                     ",
"                                                .   . +.H.,X~ d D q U.>XvXa                                                 o   ",
"                                    .       .     . X ,.lX-.-.%.k S 1XT.NX@.X                                                   ",
"                            X         .           O p a H 1.,XG ~ :.W.2.3.3.-                                                   ",
"                                            .     X lX2.- = = # @ @ + # a 4X2.X                                                 ",
"      X                                       .   6 lXlX2.,.s r $ r # 2.:XNXNX3.O . .   .                                     O ",
"                                            . . = 5 >XW.=.W.~ >.+.4.! I.<.lXZX$X;.A 1 + .                                       ",
"                      X                   . . * r p u =.:XU.>.I.~ >.+.*.3.<.$X;.'.V.| 7 + . .                                   ",
"                                            + > 5 ^ 1 # # p / @.+.2.s a - a ;.%X'.j.w.B 7 . .                                   ",
"                                          . + @ ; 5 +.s = # . # = 6 - - - @.4X;Xk.r.w.L 8 @ .                                   ",
"    X                                   . . . + # > 6 s +.! a ~ *.1.<.;.$X(.(.;.e.5.U z 4 * . .                                 ",
"                  X       X             . . . + + # $ $ 5 y i H @.*.O.O.` ` ` ` I J f 7 > + .                           o       ",
"                                            . . . . + + # # = 1 5 t t t a u a b h 7 : ; +                                       ",
"                                                    . . . + + # # # = = - - 1 1 ; @ @ . .                                       ",
"                  O                           .     . . . . . O X X + X + # # + . . .                                           ",
"        O             O                                 .     .     . . . . . .                                                 "
};
